<?xml version="1.0" standalone="no"?>
<!DOCTYPE svg PUBLIC "-//W3C//DTD SVG 1.1//EN" "http://www.w3.org/Graphics/SVG/1.1/DTD/svg11.dtd" >
<svg xmlns="http://www.w3.org/2000/svg">
<metadata>Generated by IcoMoon</metadata>
<defs>
<font id="icomoon" horiz-adv-x="1024">
<font-face units-per-em="1024" ascent="960" descent="-64" />
<missing-glyph horiz-adv-x="1024" />
<glyph unicode="&#x20;" horiz-adv-x="512" d="" />
<glyph unicode="&#xe900;" glyph-name="rpi" d="M688.832 223.808c-36.608-42.24-56.96-119.168-30.272-144 25.472-19.2 94.080-16.64 144.64 52.608 36.736 46.080 24.32 123.52 3.392 144-31.168 23.68-75.904-7.040-117.76-53.12zM344.704 211.008c-38.784 44.416-89.216 70.848-121.792 51.2-21.76-16.256-25.856-71.936 5.248-126.72 46.080-65.152 110.912-71.68 137.6-55.808 28.16 20.8 12.8 91.264-21.12 131.392zM520.064 76.608c-47.104 1.152-119.488-18.688-118.592-44.032-0.768-17.28 56.832-67.2 115.52-64.64 56.704-1.28 115.328 48.64 114.56 70.4-0.192 22.4-64 39.68-111.36 37.76zM516.864 672.256c-54.528 1.408-106.88-39.808-106.88-63.744-0.192-29.056 43.008-58.752 107.2-59.52 65.92-0.448 107.52 23.808 108.16 53.76 0.64 33.92-59.52 70.016-107.52 69.504zM385.664 649.536c-91.2 14.72-167.168-38.4-164.096-136.32 3.008-37.76 197.76 129.92 164.16 135.68zM802.048 510.656c3.072 97.28-72.96 150.4-164.16 135.68-33.6-5.76 161.152-173.44 164.16-135.68zM817.6 475.456c-52.928 14.080-17.92-215.68 25.152-197.12 47.36 37.12 62.592 147.2-25.152 196.48zM181.248 275.776c43.008-19.2 78.080 210.56 25.152 196.48-87.68-49.28-72.512-159.36-25.152-197.12zM583.424 529.856c-48.96-32-57.792-103.68-19.712-160s108.672-77.44 157.696-46.080c48.96 31.36 57.792 103.040 19.712 160s-108.672 77.44-157.696 45.44zM451.2 524.096c-48.96 31.36-119.552 10.88-157.632-45.44-38.080-56.96-29.248-128.64 19.712-160.64s119.552-11.52 157.696 45.44c37.76 56.32 28.8 128-19.84 160zM637.824 218.176c-0.384 59.52-53.504 107.52-118.784 106.88s-117.952-48.64-117.632-108.16v-1.28c0.384-59.52 53.568-107.52 118.848-106.88 65.28 0 117.76 48.64 117.12 107.52v1.28zM774.912 864.576c-98.56-50.56-156.032-90.88-187.52-125.44 16.128-64 100.16-66.56 130.816-64.64-6.272 2.56-11.52 6.4-13.44 11.52 7.68 5.12 35.072 0.64 54.144 10.88-7.296 1.28-10.752 2.56-14.080 8.32 17.92 5.76 37.376 10.24 48.768 19.84-6.144 0-11.904-1.28-19.968 3.84 16.128 8.32 33.28 15.36 46.72 28.16-8.32 0-17.28 0-19.84 3.2 14.72 8.96 27.136 18.56 37.44 30.080-11.648-1.92-16.64-0.64-19.392 1.28 11.136 10.88 25.28 20.48 32 34.56-8.64-3.2-16.64-3.84-22.272 0 3.84 8.32 20.032 13.44 29.44 33.28-9.152-1.28-18.88-1.92-20.8 0 4.224 16.64 11.52 26.24 18.56 36.48-19.456 0-49.088 0-47.68 1.28l12.032 12.16c-19.072 5.12-38.592-0.64-52.736-5.12-6.4 4.48 0 10.88 7.872 17.28-16.64-2.56-31.36-5.76-44.16-10.88-7.040 6.4 4.48 12.16 10.24 18.56-25.6-5.12-35.84-11.52-46.72-17.92-7.68 7.040-0.64 13.44 4.48 19.2-19.2-7.040-28.8-16-39.040-24.32-3.84 4.48-8.96 7.68-2.56 19.2-13.44-7.68-23.68-16.64-31.36-26.88-8.32 5.76-5.12 12.8-5.12 19.2-14.080-11.52-23.040-23.040-33.92-34.56-2.56 1.28-4.48 6.4-5.76 14.72-33.28-32-80.64-112-12.16-143.36 57.6 46.72 127.36 81.28 204.16 106.88zM251.264 864.576c76.8-25.6 146.048-60.16 204.032-107.52 68.16 32 21.12 112-12.032 143.36-1.728-8.32-3.648-14.080-5.76-15.36-10.88 11.52-19.712 23.040-33.664 34.56 0-6.4 3.328-14.080-4.992-19.2-7.488 10.24-17.536 19.2-30.976 26.88 6.4-10.88 1.088-14.080-2.368-19.2-10.24 9.6-19.84 18.56-38.4 25.6 5.12-6.4 12.8-12.8 5.12-19.84-10.24 6.4-21.12 12.8-46.080 17.92 5.76-6.4 17.28-12.8 10.24-19.2-13.504 5.184-28.224 9.024-44.224 10.944 7.68-6.4 14.592-12.288 8.192-17.28-14.72 5.12-34.432 10.88-53.632 5.76l12.16-12.16c1.28-1.6-28.16-1.28-47.872-1.472 7.040-9.6 14.4-19.2 18.56-36.48-1.92-1.92-11.52-0.64-20.672 0 9.6-19.2 25.6-24.32 29.44-32.64-5.76-4.096-13.44-3.2-22.4 0 7.040-13.44 21.12-23.040 32-34.56-3.2-1.92-7.68-3.2-19.84-1.6 10.24-11.072 22.4-21.12 37.12-30.080-2.56-3.008-11.52-2.944-20.48-3.2 13.44-12.992 30.72-19.84 46.72-28.352-8.32-5.76-14.080-4.48-19.84-4.48 10.88-9.6 30.72-14.080 48.64-19.84-3.84-5.76-7.040-7.040-14.72-8.32 19.2-10.88 46.080-5.76 53.76-11.52-1.92-5.12-7.040-8.96-13.44-11.52 30.72-1.92 115.2 0.64 131.2 64.64-31.36 34.56-88.96 74.88-187.52 124.8zM325.312 960c10.048 0.32 18.56-5.76 27.84-8.576 22.592 7.232 27.776-2.688 38.912-6.784 24.64 5.12 32.128-6.016 43.968-17.92l13.76 0.384c37.12-21.632 55.68-65.6 62.208-88.192 6.528 22.592 24.96 66.56 62.208 88.192l13.76-0.32c11.84 12.16 19.328 23.040 43.968 17.92 11.136 4.48 16.256 14.080 38.912 7.040 14.080 4.48 26.496 16 45.12 1.92 15.744 6.4 31.040 8.32 44.672-3.84 21.12 2.56 27.904-2.56 33.088-8.96 4.608 0 34.56 4.48 48.32-15.36 34.56 3.84 45.44-19.84 33.088-42.24 7.040-10.88 14.4-21.12-2.112-41.6 6.4-11.52 2.56-23.68-11.52-39.040 3.84-16-3.2-26.88-16-35.84 2.56-21.76-20.48-34.56-26.88-39.040-2.56-12.8-7.68-24.96-33.92-31.36-3.84-19.2-19.84-22.4-35.2-26.24 50.56-28.8 93.44-66.56 93.44-159.36l7.68-12.8c57.6-34.56 109.44-145.28 28.8-235.52-5.12-28.16-14.080-48-21.76-70.4-11.52-90.24-88.96-132.48-109.44-137.6-29.44-22.4-61.44-43.52-104.32-58.24-40.32-40.96-84.48-56.96-128-56.96h-3.904c-44.16 0-88.128 16-128.64 56.96-43.008 14.72-74.88 35.84-104.512 58.24-20.48 5.12-97.536 47.36-109.44 137.6-7.936 22.4-16.768 42.88-22.080 71.040-80.896 90.24-29.12 200.96 28.416 235.52l7.36 12.8c0 92.8 42.88 130.56 93.44 159.36-15.36 3.84-30.72 7.040-35.2 26.24-26.24 6.4-31.36 18.56-33.92 31.36-6.4 4.48-29.44 17.28-26.88 39.68-12.8 8.96-19.84 19.84-16 36.48-13.44 14.72-17.28 27.52-11.52 39.040-16.64 20.48-8.96 31.36-1.92 41.6-12.16 22.4-1.28 46.72 33.28 42.88 13.44 19.84 43.52 15.36 48 15.36 5.12 6.4 12.16 12.16 33.28 9.6 13.44 12.16 28.8 10.24 44.8 4.352 6.4 5.12 12.16 7.040 17.28 7.040z" />
<glyph unicode="&#xe901;" glyph-name="raspystat" horiz-adv-x="810" d="M224.162 940.137c-2.893-0.617-7.212-2.661-10.028-4.705l-2.044-1.466-4.898 1.62c-6.788 2.198-11.725 2.97-17.395 2.7-2.468-0.116-5.515-0.501-6.788-0.849-3.317-0.887-8.177-3.394-10.915-5.592l-2.353-1.89-3.78 0.424c-2.083 0.193-5.592 0.27-7.829 0.154-7.907-0.463-12.265-2.16-16.932-6.634l-2.97-2.816-6.557 0.231c-17.317 0.579-29.544-3.587-37.026-12.651l-1.928-2.353-7.135-0.077c-5.862-0.077-7.637-0.231-10.182-0.926-11.918-3.24-18.706-11.609-18.706-23.064 0-5.168 1.234-10.414 3.548-15.003l1.003-1.928-2.314-3.78c-1.234-2.083-2.777-5.014-3.394-6.557-3.355-8.485-1.62-17.086 5.438-27.037l2.198-3.047-0.926-2.507c-3.587-9.449-0.54-19.824 9.372-31.819l2.468-3.008-0.386-2.661c-1.774-11.339 2.353-21.174 12.303-29.351l3.355-2.738 0.231-4.127c0.579-11.532 6.942-20.711 21.213-30.662 4.397-3.047 4.821-3.471 5.091-4.783 0.54-2.97 2.546-8.447 3.934-10.876 2.97-5.053 9.295-10.568 15.389-13.383 1.234-0.579 4.59-1.851 7.444-2.816l5.13-1.736 0.849-2.7c1.466-4.628 3.201-7.444 6.788-10.992 2.584-2.623 4.011-3.703 6.865-5.13 3.625-1.89 10.259-4.243 15.582-5.515 1.658-0.424 3.008-0.81 3.008-0.926s-2.044-1.388-4.551-2.893c-25.185-14.965-44.508-32.089-57.12-50.718-12.381-18.243-20.133-39.302-23.72-64.448-1.311-9.102-1.697-13.846-2.198-25.571l-0.386-9.989-3.278-5.94-3.317-5.901-3.895-2.7c-13.191-8.987-24.838-20.943-34.943-35.869-4.86-7.212-7.135-11.069-11.031-18.899-18.513-37.103-21.791-77.639-9.295-114.742 6.094-18.166 16.006-35.483 29.274-51.219l2.854-3.355 1.234-5.94c2.738-13.268 6.21-24.684 14.193-46.9 4.898-13.615 5.284-14.849 6.325-21.020 4.898-28.695 15.89-53.186 34.21-76.173 8.794-10.992 24.26-25.494 35.985-33.671 9.334-6.48 22.563-13.615 29.467-15.929 2.623-0.849 4.050-1.697 9.449-5.708 21.213-15.775 36.756-25.687 54.768-35.059 10.182-5.284 24.954-11.763 34.519-15.119 2.97-1.041 3.278-1.311 8.292-6.132 26.342-25.533 55.385-41.23 87.165-47.054 16.045-2.931 33.285-3.471 49.754-1.543 36.062 4.204 68.421 20.287 97.579 48.597 5.014 4.821 5.322 5.091 8.292 6.132 9.565 3.355 24.337 9.835 34.519 15.119 18.012 9.372 33.555 19.284 54.768 35.059 5.4 4.011 6.827 4.86 9.449 5.708 6.904 2.314 20.133 9.449 29.467 15.929 11.725 8.177 27.191 22.678 35.985 33.671 18.32 22.987 29.312 47.478 34.21 76.173 1.041 6.171 1.427 7.405 6.325 21.020 7.984 22.216 11.455 33.632 14.193 46.9l1.234 5.94 2.854 3.355c33.131 39.263 44.238 86.625 31.665 135.106-3.355 13.036-9.912 28.811-16.893 40.69-10.876 18.513-25.263 34.365-40.767 44.933l-3.895 2.7-3.317 5.901-3.278 5.94-0.386 9.989c-0.501 11.725-0.887 16.469-2.198 25.571-4.165 29.158-13.923 52.878-30.122 73.126-6.827 8.562-18.32 19.516-28.425 27.152-5.245 3.934-16.199 11.262-22.293 14.888-2.507 1.504-4.551 2.777-4.551 2.893s1.35 0.501 3.008 0.926c5.322 1.273 11.956 3.625 15.582 5.515 2.854 1.427 4.281 2.507 6.865 5.13 3.587 3.548 5.322 6.364 6.788 10.992l0.849 2.7 5.13 1.736c2.854 0.964 6.21 2.237 7.444 2.816 6.094 2.816 12.419 8.331 15.389 13.383 1.388 2.43 3.394 7.907 3.934 10.876 0.27 1.311 0.694 1.736 5.091 4.783 9.025 6.325 14.579 11.956 17.819 18.282 2.237 4.32 3.163 7.675 3.394 12.381l0.231 4.127 3.355 2.738c9.951 8.177 14.078 18.012 12.303 29.351l-0.386 2.661 2.468 3.008c9.912 11.995 12.959 22.37 9.372 31.819l-0.926 2.507 2.198 3.047c7.058 9.951 8.794 18.552 5.438 27.037-0.617 1.543-2.16 4.474-3.394 6.557l-2.314 3.78 1.003 1.928c2.314 4.59 3.548 9.835 3.548 15.003 0 11.455-6.788 19.824-18.706 23.064-2.546 0.694-4.32 0.849-10.182 0.926l-7.135 0.077-1.928 2.353c-7.482 9.064-19.709 13.229-37.026 12.651l-6.557-0.231-2.97 2.816c-4.667 4.474-9.025 6.171-16.932 6.634-2.237 0.116-5.747 0.039-7.829-0.154l-3.78-0.424-2.353 1.89c-2.738 2.198-7.598 4.705-10.915 5.592-1.273 0.347-4.32 0.733-6.788 0.849-5.67 0.27-10.606-0.501-17.395-2.7l-4.898-1.62-2.044 1.466c-6.325 4.59-13.152 6.132-20.287 4.667-2.816-0.579-4.551-1.234-15.582-5.747l-4.513-1.851-4.32 1.041c-2.468 0.617-5.901 1.157-8.022 1.273-6.402 0.347-9.449-0.656-20.403-6.672l-3.973-2.16-3.163 0.501c-5.053 0.849-12.573 0.694-16.199-0.347-6.287-1.774-10.182-4.435-17.664-12.111l-5.245-5.361-12.766 0.54-3.973-2.623c-13.075-8.524-24.954-21.174-35.136-37.335-6.518-10.375-14-26.535-17.934-38.569-0.81-2.468-1.543-4.513-1.658-4.513s-0.849 2.044-1.658 4.513c-3.934 12.033-11.416 28.194-17.934 38.569-10.182 16.16-22.061 28.811-35.136 37.335l-3.973 2.623-12.766-0.54-5.245 5.361c-7.482 7.675-11.378 10.336-17.664 12.111-3.625 1.041-11.146 1.196-16.199 0.347l-3.163-0.501-3.973 2.16c-10.954 6.017-14 7.020-20.403 6.672-2.121-0.116-5.554-0.656-8.022-1.273l-4.32-1.041-4.513 1.851c-11.031 4.513-12.766 5.168-15.582 5.747-3.548 0.733-6.942 0.733-10.259 0.039zM233.572 914.257c9.488-3.78 18.089-9.295 28.387-18.166 2.314-1.967 4.32-3.587 4.513-3.587 0.54 0 3.51 3.857 4.32 5.592 1.041 2.237 0.926 5.4-0.231 8.524-0.54 1.427-1.157 2.816-1.388 3.124-2.044 2.43 8.447-4.474 14.695-9.681 4.127-3.433 9.295-8.678 11.995-12.149 1.157-1.504 2.276-2.7 2.507-2.738 0.231 0 1.234 0.849 2.198 1.89 2.661 2.854 3.201 5.091 2.623 10.992-0.231 2.507-0.347 4.667-0.231 4.783 0.27 0.27 5.631-4.513 10.606-9.565 3.587-3.587 19.863-21.753 20.904-23.296 0.771-1.157 3.085 3.818 4.59 9.681 0.617 2.468 1.196 4.551 1.273 4.628 0.386 0.386 10.876-11.571 15.427-17.587 19.747-26.072 30.662-54.96 28.772-76.328-1.466-16.7-9.449-29.775-23.913-39.147-4.513-2.893-8.832-5.014-9.372-4.59-0.27 0.193-2.623 2.083-5.284 4.204-47.517 38.029-106.18 69.462-176.105 94.378-5.13 1.813-9.488 3.317-9.642 3.317-0.193 0 2.7-1.581 6.402-3.51 48.481-25.185 92.179-51.759 122.841-74.746 16.469-12.303 32.205-26.034 42.233-36.679l4.358-4.705-0.849-2.931c-3.934-13.422-11.571-25.070-22.216-33.979-16.122-13.422-38.993-21.676-68.652-24.723-6.171-0.656-21.136-1.118-26.805-0.81l-5.207 0.231 1.736 0.926c4.513 2.391 8.408 5.747 9.796 8.447 0.887 1.697 0.771 1.967-0.81 2.623-2.314 1.003-6.441 1.62-14.965 2.276-13.653 1.041-20.171 2.006-25.918 3.895-3.394 1.080-8.215 3.201-8.215 3.625 0 0.154 0.849 0.463 1.851 0.694 4.204 0.964 6.364 2.083 8.678 4.397 1.196 1.234 2.198 2.43 2.198 2.623s-2.044 0.964-4.513 1.736c-8.987 2.777-20.056 6.48-23.835 7.984-6.904 2.738-17.163 8.408-17.163 9.488 0 0.154 1.466 0.193 3.24 0.116 4.667-0.193 8.215 0.54 11.918 2.391 2.854 1.427 3.047 1.581 2.353 2.083-0.386 0.309-4.474 2.43-9.025 4.744-10.375 5.284-16.469 8.639-21.367 11.879-3.895 2.546-10.529 7.714-12.111 9.411l-0.887 0.964 6.094 0.27c3.355 0.116 6.865 0.424 7.829 0.617 2.083 0.463 4.628 1.543 4.628 1.967 0 0.154-1.967 1.581-4.358 3.163-9.411 6.171-17.973 13.036-25.648 20.519l-5.207 5.053h6.904c6.325-0.039 7.097 0.039 9.141 0.849 1.196 0.501 2.198 1.041 2.198 1.196s-2.816 2.854-6.248 6.017c-8.755 7.984-16.353 15.697-18.899 19.092-2.43 3.278-5.091 7.675-4.821 7.945 0.116 0.116 1.311-0.116 2.661-0.54 3.703-1.157 8.138-1.774 10.954-1.504 2.623 0.27 7.097 1.967 7.097 2.738 0 1.080-3.317 4.59-7.907 8.408-6.325 5.284-11.301 10.144-13.962 13.653-2.121 2.816-5.515 8.485-5.515 9.218 0 0.309 1.504 0.27 4.937-0.039 6.248-0.617 11.571-0.656 13.152-0.116 0.656 0.231 1.196 0.501 1.196 0.617s-0.54 2.006-1.157 4.243c-2.468 8.369-6.75 16.893-12.959 25.764-1.62 2.314-3.047 4.435-3.124 4.705-0.154 0.386 2.854 0.501 14.965 0.501 15.235 0.039 28.849 0.463 29.698 0.964 0.27 0.193-1.774 2.507-5.438 6.171l-5.901 5.901 2.661 0.579c11.185 2.546 24.723 1.311 41.809-3.818l5.592-1.658 1.080 1.080c0.733 0.694 1.157 1.62 1.311 2.661 0.347 2.507-0.964 4.705-5.554 9.218-3.433 3.355-3.857 3.934-2.931 3.78 15.775-2.661 23.373-4.435 33.748-7.907 3.741-1.273 6.904-2.314 7.020-2.314 0.077 0 0.54 0.579 0.964 1.311 1.928 3.085 0.771 5.438-5.901 11.918-2.777 2.738-4.705 4.86-4.281 4.744s2.044-0.463 3.587-0.81c13.152-2.738 24.838-7.212 34.943-13.422 2.276-1.427 4.281-2.584 4.435-2.584s0.656 0.386 1.080 0.887c2.276 2.468 2.661 5.785 1.080 8.987-0.771 1.581-3.047 4.628-5.901 7.984-0.771 0.887-0.694 0.849 3.24-0.733zM579.611 914.99c-2.854-3.355-5.13-6.402-5.901-7.984-1.581-3.201-1.196-6.518 1.080-8.987 0.424-0.501 0.926-0.887 1.080-0.887s2.16 1.157 4.435 2.584c10.105 6.21 21.791 10.684 34.943 13.422 1.543 0.347 3.163 0.694 3.587 0.81s-1.504-2.006-4.281-4.744c-6.672-6.48-7.829-8.832-5.901-11.918 0.424-0.733 0.887-1.311 0.964-1.311 0.116 0 3.278 1.041 7.020 2.314 10.375 3.471 17.973 5.245 33.748 7.907 0.926 0.154 0.501-0.424-2.931-3.78-4.59-4.513-5.901-6.711-5.554-9.218 0.154-1.041 0.579-1.967 1.311-2.661l1.080-1.080 5.592 1.658c17.086 5.13 30.624 6.364 41.809 3.818l2.661-0.579-5.901-5.901c-3.664-3.664-5.708-5.978-5.438-6.171 0.849-0.501 14.463-0.926 29.698-0.964 12.111 0 15.119-0.116 14.965-0.501-0.077-0.27-1.504-2.391-3.124-4.705-6.21-8.871-10.491-17.395-12.959-25.764-0.617-2.237-1.157-4.127-1.157-4.243s0.54-0.386 1.196-0.617c1.581-0.54 6.904-0.501 13.191 0.116 3.394 0.309 4.898 0.347 4.898 0.039 0-0.733-3.394-6.402-5.515-9.218-2.661-3.51-7.637-8.369-13.962-13.653-4.59-3.818-7.907-7.328-7.907-8.408 0-0.771 4.474-2.468 7.097-2.738 2.816-0.27 7.251 0.347 10.954 1.504 1.35 0.424 2.546 0.656 2.661 0.54 0.27-0.27-2.391-4.667-4.821-7.945-2.546-3.394-10.144-11.108-18.86-19.092-3.471-3.163-6.287-5.862-6.287-6.017s1.003-0.694 2.237-1.196c2.006-0.81 2.777-0.887 9.102-0.849h6.904l-5.207-5.053c-7.675-7.482-16.237-14.348-25.648-20.519-2.391-1.581-4.358-3.008-4.358-3.163 0-0.424 2.546-1.504 4.628-1.967 0.964-0.193 4.474-0.501 7.829-0.617l6.094-0.27-0.887-0.964c-1.581-1.697-8.215-6.865-12.111-9.411-4.898-3.24-10.992-6.595-21.367-11.879-4.551-2.314-8.639-4.435-9.025-4.744-0.694-0.501-0.501-0.656 2.353-2.083 3.703-1.851 7.251-2.584 11.918-2.391 1.774 0.077 3.24 0.039 3.24-0.116 0-1.080-10.259-6.75-17.163-9.488-3.78-1.504-14.849-5.207-23.797-7.984-2.507-0.771-4.551-1.543-4.551-1.736s1.003-1.388 2.237-2.623c2.276-2.314 4.435-3.433 8.639-4.397 1.003-0.231 1.851-0.54 1.851-0.694 0-0.424-4.821-2.546-8.215-3.625-5.747-1.89-12.265-2.854-25.918-3.895-8.524-0.656-12.651-1.273-14.965-2.276-1.581-0.656-1.697-0.926-0.81-2.623 1.388-2.7 5.284-6.055 9.796-8.447l1.736-0.926-5.207-0.231c-5.67-0.309-20.634 0.154-26.805 0.81-29.659 3.047-52.531 11.301-68.652 24.723-10.645 8.909-18.282 20.557-22.216 33.979l-0.849 2.931 4.358 4.705c10.028 10.645 25.764 24.375 42.233 36.679 30.662 22.987 74.361 49.561 122.841 74.746 3.703 1.928 6.595 3.51 6.402 3.51-0.154 0-4.513-1.504-9.642-3.317-69.925-24.915-128.588-56.349-176.105-94.378-2.661-2.121-5.014-4.011-5.284-4.204-0.54-0.424-4.86 1.697-9.372 4.59-24.568 15.929-30.546 42.966-17.086 77.060 5.94 15.080 16.276 32.089 27.345 45.164 3.433 4.088 9.874 11.031 10.028 10.838 0.077-0.077 0.656-2.16 1.273-4.628 1.504-5.862 3.818-10.838 4.59-9.681 1.041 1.543 17.317 19.709 20.904 23.296 4.975 5.053 10.336 9.835 10.606 9.565 0.116-0.116 0-2.276-0.231-4.783-0.579-5.901-0.039-8.138 2.623-10.992 0.964-1.041 1.967-1.89 2.198-1.89 0.231 0.039 1.35 1.234 2.507 2.738 5.438 7.020 14.54 14.926 23.681 20.634 2.777 1.736 3.818 2.121 3.008 1.196-0.231-0.309-0.849-1.697-1.388-3.124-1.157-3.124-1.273-6.287-0.231-8.524 0.81-1.736 3.78-5.592 4.32-5.592 0.193 0 2.198 1.62 4.513 3.587 10.182 8.755 18.32 14.039 27.924 18.012 4.088 1.697 4.513 1.813 3.703 0.887zM424.873 662.519c13.152-2.391 23.99-6.017 35.946-11.995 22.331-11.185 39.842-27.769 44.431-42.078 1.157-3.587 1.157-9.102 0.039-13.499-1.427-5.477-5.014-11.956-9.411-16.932l-1.62-1.851-8.292 2.7c-16.006 5.207-32.475 8.871-48.982 10.838-11.648 1.427-17.703 1.736-32.012 1.736s-20.364-0.309-32.012-1.736c-16.507-1.967-32.976-5.631-48.982-10.838l-8.292-2.7-1.62 1.851c-4.397 4.975-7.984 11.455-9.411 16.932-1.118 4.397-1.118 9.912 0.039 13.499 4.59 14.309 22.1 30.894 44.431 42.078 12.381 6.21 24.375 10.144 37.026 12.072 7.444 1.157 6.75 1.118 20.557 1.003 11.648-0.116 13.191-0.193 18.166-1.080zM263.232 644.122c7.367-0.54 17.472-1.89 19.014-2.546 4.667-1.928 1.89-9.719-7.907-22.331-15.080-19.362-48.442-51.026-79.143-75.17-27.808-21.83-49.291-35.059-60.823-37.45-4.435-0.926-7.212-0.193-8.524 2.237-0.617 1.080-0.694 2.276-0.617 9.719 0.231 35.946 11.802 66.531 33.671 89.055 10.529 10.838 22.601 19.284 36.216 25.301 20.287 8.987 44.315 12.921 68.112 11.185zM568.503 644.122c28.772-2.16 53.263-11.416 73.165-27.731 5.592-4.551 13.846-13.113 18.089-18.744 16.353-21.753 24.761-48.365 24.954-79.066 0.077-7.444 0-8.639-0.617-9.719-2.314-4.281-9.218-3.355-21.56 2.816-32.976 16.546-100.819 74.052-126.93 107.568-5.631 7.289-9.141 13.268-9.912 16.97-0.54 2.7 0.154 4.59 2.006 5.361 1.427 0.617 11.802 2.044 18.243 2.507 6.21 0.463 16.623 0.463 22.563 0.039zM426.185 559.849c17.703-1.736 34.172-5.13 50.139-10.298 83.926-27.268 145.173-99.893 157.708-187.174 1.736-11.918 2.121-18.282 2.121-32.976s-0.386-21.059-2.121-32.976c-14.579-101.474-94.609-181.504-196.083-196.083-11.956-1.736-18.282-2.121-32.976-2.121-14.656 0-21.136 0.424-32.976 2.121-101.474 14.579-181.504 94.609-196.083 196.083-1.736 11.918-2.121 18.282-2.121 32.976s0.386 21.059 2.121 32.976c9.372 65.143 46.128 123.266 101.050 159.79 34.519 22.948 75.055 36.293 116.439 38.414 6.094 0.309 27.037-0.154 32.783-0.733zM117.249 472.491c4.937-0.926 8.832-4.474 11.956-10.915 3.047-6.287 4.898-14.232 6.248-26.497 0.617-5.901 0.617-28.888 0-36.833-2.276-27.808-7.212-53.919-14.348-75.402-8.601-25.995-18.513-40.189-28.425-40.806-4.127-0.27-5.361 0.309-9.951 4.628-16.16 15.35-27.114 38.762-30.932 66.261-0.964 6.942-0.964 25.185 0.039 32.205 5.014 36.409 23.797 65.297 54.845 84.504 4.937 3.047 6.827 3.548 10.568 2.854zM697.246 472.491c5.053-0.964 20.943-12.651 29.891-21.984 17.24-18.012 27.384-39.456 30.971-65.374 1.003-7.020 1.003-25.263 0.039-32.205-3.818-27.5-14.772-50.911-30.932-66.261-4.59-4.32-5.824-4.898-9.951-4.628-9.912 0.617-19.824 14.81-28.425 40.806-6.055 18.204-10.876 41.5-13.268 64.024-1.234 11.378-1.581 18.050-1.543 30.662 0 13.422 0.27 17.703 1.736 26.96 2.623 16.315 8.601 26.381 16.623 27.962 2.314 0.463 2.661 0.463 4.86 0.039zM148.258 275.328c0.077-0.27 1.080-4.474 2.276-9.372 11.339-46.552 36.37-90.174 71.314-124.23 8.948-8.755 15.582-14.425 25.648-22.023 6.171-4.667 17.125-12.111 21.020-14.309 1.041-0.579 1.851-1.157 1.851-1.273 0-0.733-4.088-6.248-6.017-8.138-5.747-5.554-18.32-9.179-31.819-9.179-22.023 0-46.475 8.909-66.762 24.337-10.838 8.254-22.138 19.901-31.434 32.282-6.827 9.102-15.543 29.389-19.747 45.974-3.008 11.763-4.281 21.907-4.281 33.593 0 11.725 1.003 18.822 3.857 27.384 4.397 13.229 10.452 19.747 21.598 23.296 5.284 1.658 12.226 2.584 12.496 1.658zM667.239 275.251c7.521-1.157 14.733-4.165 18.552-7.829 4.281-4.088 7.521-9.604 9.989-17.047 2.854-8.562 3.857-15.659 3.857-27.384 0-11.686-1.273-21.83-4.281-33.593-4.204-16.585-12.921-36.872-19.747-45.974-9.295-12.381-20.596-24.028-31.434-32.282-20.287-15.427-44.74-24.337-66.762-24.337-13.499 0-26.072 3.625-31.819 9.179-1.928 1.89-6.017 7.405-6.017 8.138 0 0.116 0.81 0.694 1.851 1.273 3.895 2.198 14.849 9.642 21.097 14.348 48.365 36.525 82.846 88.554 96.885 146.214 1.196 4.898 2.198 9.102 2.276 9.372 0.154 0.579 1.041 0.579 5.554-0.077zM337.939 75.812c23.951-6.171 42.001-8.485 67.032-8.485s43.081 2.314 67.032 8.485c3.703 0.964 7.020 1.736 7.367 1.736 2.083 0 15.813-6.518 21.251-10.066 4.975-3.278 10.259-8.601 11.956-11.995 3.047-6.325 1.851-12.072-4.243-20.364-3.085-4.204-12.072-13.152-17.549-17.51-19.284-15.35-42.888-26.265-64.603-29.891-6.904-1.157-12.612-1.581-21.213-1.581s-14.309 0.424-21.213 1.581c-21.714 3.625-45.318 14.54-64.603 29.891-5.477 4.358-14.463 13.306-17.549 17.51-6.094 8.292-7.289 14.039-4.243 20.364 1.697 3.394 6.981 8.717 11.956 11.995 5.515 3.625 18.822 9.951 21.097 10.028 0.424 0.039 3.818-0.733 7.521-1.697zM319.156 498.834c-18.243-1.581-38.106-8.447-49.677-17.125-5.207-3.895-8.369-7.367-10.375-11.455-1.35-2.7-1.62-3.625-1.774-6.171-0.424-7.251 3.471-17.317 9.411-24.491 1.080-1.311 16.237-18.282 33.671-37.682l31.704-35.252-4.165-0.849c-23.064-4.551-43.004-15.042-59.242-31.164-18.474-18.32-29.891-41.886-32.899-67.958-0.771-6.595-0.54-22.794 0.386-28.927 2.623-17.279 8.717-33.555 16.469-43.853 3.895-5.207 7.367-8.369 11.455-10.375 2.7-1.35 3.625-1.62 6.171-1.774 7.251-0.424 17.317 3.471 24.491 9.411 1.311 1.080 18.282 16.237 37.682 33.671l35.252 31.704 0.849-4.165c3.047-15.273 8.601-29.042 16.507-41.153 18.706-28.541 48.481-47.015 82.229-50.949 5.747-0.656 18.59-0.771 24.491-0.193 18.513 1.851 37.18 8.369 48.674 17.009 5.207 3.895 8.369 7.367 10.375 11.455 1.35 2.7 1.62 3.625 1.774 6.171 0.424 7.251-3.471 17.317-9.411 24.491-1.080 1.311-16.237 18.282-33.671 37.682l-31.704 35.252 4.165 0.849c38.993 7.714 70.388 33.632 84.967 70.079 3.548 8.909 5.978 18.783 7.174 29.042 0.81 6.788 0.579 22.871-0.424 29.081-2.738 17.626-8.678 33.401-16.43 43.698-3.895 5.207-7.367 8.369-11.455 10.375-2.7 1.35-3.625 1.62-6.171 1.774-7.212 0.424-17.395-3.471-24.53-9.411-1.273-1.080-18.243-16.237-37.643-33.671l-35.252-31.704-0.849 4.165c-5.515 27.692-19.014 50.139-40.844 67.997-7.752 6.325-20.441 13.615-30.624 17.549-7.791 3.008-18.050 5.477-27.268 6.557-4.513 0.54-18.822 0.733-23.488 0.309zM408.906 370.67c5.13-0.501 9.449-1.658 13.769-3.703 8.678-4.088 15.929-11.455 20.133-20.403 5.978-12.766 4.435-29.505-3.78-40.999-3.973-5.592-10.529-11.031-16.816-13.962-10.684-5.014-24.028-4.937-34.943 0.231-8.678 4.088-15.929 11.455-20.133 20.403-4.937 10.568-4.86 24.028 0.27 34.866 6.017 12.766 18.822 22.023 32.552 23.527 4.050 0.463 4.744 0.463 8.948 0.039z" />
<glyph unicode="&#xe904;" glyph-name="home5" d="M1024 352l-192 192v288h-128v-160l-192 192-512-512v-32h128v-320h320v192h128v-192h320v320h128z" />
<glyph unicode="&#xe909;" glyph-name="office" d="M0-64h512v1024h-512v-1024zM320 832h128v-128h-128v128zM320 576h128v-128h-128v128zM320 320h128v-128h-128v128zM64 832h128v-128h-128v128zM64 576h128v-128h-128v128zM64 320h128v-128h-128v128zM576 640h448v-64h-448zM576-64h128v256h192v-256h128v576h-448z" />
<glyph unicode="&#xe90e;" glyph-name="pencil" d="M864 960c88.364 0 160-71.634 160-160 0-36.020-11.91-69.258-32-96l-64-64-224 224 64 64c26.742 20.090 59.978 32 96 32zM64 224l-64-288 288 64 592 592-224 224-592-592zM715.578 596.422l-448-448-55.156 55.156 448 448 55.156-55.156z" />
<glyph unicode="&#xe967;" glyph-name="undo2" d="M761.862-64c113.726 206.032 132.888 520.306-313.862 509.824v-253.824l-384 384 384 384v-248.372c534.962 13.942 594.57-472.214 313.862-775.628z" />
<glyph unicode="&#xea4d;" glyph-name="clock" d="M658.744 210.744l-210.744 210.746v282.51h128v-229.49l173.256-173.254zM512 960c-282.77 0-512-229.23-512-512s229.23-512 512-512 512 229.23 512 512-229.23 512-512 512zM512 64c-212.078 0-384 171.922-384 384s171.922 384 384 384c212.078 0 384-171.922 384-384s-171.922-384-384-384z" />
<glyph unicode="&#xea7c;" glyph-name="tv" d="M981.188 671.892c-88.808 12.768-183.382 22.016-282.076 27.22l164.888 164.888-64 64-224.558-224.556c-21.006 0.368-42.156 0.556-63.442 0.556v0l-256 256-64-64 194.196-194.196c-120.922-4.242-236.338-14.524-343.386-29.912-27.532-107.726-42.81-226.752-42.81-351.892s15.278-244.166 42.804-351.89c143.642-20.652 302.34-32.11 469.196-32.11s325.55 11.458 469.188 32.11c27.534 107.724 42.812 226.75 42.812 351.89s-15.278 244.166-42.812 351.892zM863.892 85.406c-107.73-13.766-226.75-21.406-351.892-21.406s-244.166 7.64-351.892 21.406c-20.648 71.816-32.108 151.166-32.108 234.594 0 83.43 11.458 162.78 32.108 234.596 107.726 13.766 226.75 21.404 351.892 21.404 125.136 0 244.162-7.638 351.886-21.404 20.656-71.816 32.114-151.166 32.114-234.596 0-83.428-11.458-162.778-32.108-234.594z" />
<glyph unicode="&#xeb5f;" glyph-name="cog" d="M933.79 349.75c-53.726 93.054-21.416 212.304 72.152 266.488l-100.626 174.292c-28.75-16.854-62.176-26.518-97.846-26.518-107.536 0-194.708 87.746-194.708 195.99h-201.258c0.266-33.41-8.074-67.282-25.958-98.252-53.724-93.056-173.156-124.702-266.862-70.758l-100.624-174.292c28.97-16.472 54.050-40.588 71.886-71.478 53.638-92.908 21.512-211.92-71.708-266.224l100.626-174.292c28.65 16.696 61.916 26.254 97.4 26.254 107.196 0 194.144-87.192 194.7-194.958h201.254c-0.086 33.074 8.272 66.57 25.966 97.218 53.636 92.906 172.776 124.594 266.414 71.012l100.626 174.29c-28.78 16.466-53.692 40.498-71.434 71.228zM512 240.668c-114.508 0-207.336 92.824-207.336 207.334 0 114.508 92.826 207.334 207.336 207.334 114.508 0 207.332-92.826 207.332-207.334-0.002-114.51-92.824-207.334-207.332-207.334z" />
<glyph unicode="&#xeb8a;" glyph-name="stats-bars2" d="M0 128h1024v-128h-1024zM128 384h128v-192h-128zM320 640h128v-448h-128zM512 448h128v-256h-128zM704 832h128v-640h-128z" />
<glyph unicode="&#xebe8;" glyph-name="fire" d="M321.008-64c-68.246 142.008-31.902 223.378 20.55 300.044 57.44 83.956 72.244 167.066 72.244 167.066s45.154-58.7 27.092-150.508c79.772 88.8 94.824 230.28 82.782 284.464 180.314-126.012 257.376-398.856 153.522-601.066 552.372 312.532 137.398 780.172 65.154 832.85 24.082-52.676 28.648-141.85-20-185.126-82.352 312.276-285.972 376.276-285.972 376.276 24.082-161.044-87.296-337.144-194.696-468.73-3.774 64.216-7.782 108.528-41.55 169.98-7.58-116.656-96.732-211.748-120.874-328.628-32.702-158.286 24.496-274.18 241.748-396.622z" />
<glyph unicode="&#xec71;" glyph-name="menu7" d="M64 768h896v-128h-896v128zM64 512h896v-128h-896v128zM64 256h896v-128h-896v128z" />
<glyph unicode="&#xec96;" glyph-name="earth" d="M512 960c-282.77 0-512-229.23-512-512s229.23-512 512-512 512 229.23 512 512-229.23 512-512 512zM512-0.002c-62.958 0-122.872 13.012-177.23 36.452l233.148 262.29c5.206 5.858 8.082 13.422 8.082 21.26v96c0 17.674-14.326 32-32 32-112.99 0-232.204 117.462-233.374 118.626-6 6.002-14.14 9.374-22.626 9.374h-128c-17.672 0-32-14.328-32-32v-192c0-12.122 6.848-23.202 17.69-28.622l110.31-55.156v-187.886c-116.052 80.956-192 215.432-192 367.664 0 68.714 15.49 133.806 43.138 192h116.862c8.488 0 16.626 3.372 22.628 9.372l128 128c6 6.002 9.372 14.14 9.372 22.628v77.412c40.562 12.074 83.518 18.588 128 18.588 70.406 0 137.004-16.26 196.282-45.2-4.144-3.502-8.176-7.164-12.046-11.036-36.266-36.264-56.236-84.478-56.236-135.764s19.97-99.5 56.236-135.764c36.434-36.432 85.218-56.264 135.634-56.26 3.166 0 6.342 0.080 9.518 0.236 13.814-51.802 38.752-186.656-8.404-372.334-0.444-1.744-0.696-3.488-0.842-5.224-81.324-83.080-194.7-134.656-320.142-134.656z" />
<glyph unicode="&#xecae;" glyph-name="eye" d="M512 768c-223.318 0-416.882-130.042-512-320 95.118-189.958 288.682-320 512-320 223.312 0 416.876 130.042 512 320-95.116 189.958-288.688 320-512 320zM764.45 598.296c60.162-38.374 111.142-89.774 149.434-150.296-38.292-60.522-89.274-111.922-149.436-150.296-75.594-48.218-162.89-73.704-252.448-73.704-89.56 0-176.858 25.486-252.452 73.704-60.158 38.372-111.138 89.772-149.432 150.296 38.292 60.524 89.274 111.924 149.434 150.296 3.918 2.5 7.876 4.922 11.86 7.3-9.96-27.328-15.41-56.822-15.41-87.596 0-141.382 114.616-256 256-256 141.382 0 256 114.618 256 256 0 30.774-5.452 60.268-15.408 87.598 3.978-2.378 7.938-4.802 11.858-7.302v0zM512 544c0-53.020-42.98-96-96-96s-96 42.98-96 96 42.98 96 96 96 96-42.982 96-96z" />
<glyph unicode="&#xecb1;" glyph-name="eye-blocked" d="M945.942 945.942c-18.746 18.744-49.136 18.744-67.882 0l-202.164-202.164c-51.938 15.754-106.948 24.222-163.896 24.222-223.318 0-416.882-130.042-512-320 41.122-82.124 100.648-153.040 173.022-207.096l-158.962-158.962c-18.746-18.746-18.746-49.136 0-67.882 9.372-9.374 21.656-14.060 33.94-14.060s24.568 4.686 33.942 14.058l864 864c18.744 18.746 18.744 49.138 0 67.884zM416 640c42.24 0 78.082-27.294 90.92-65.196l-121.724-121.724c-37.902 12.838-65.196 48.68-65.196 90.92 0 53.020 42.98 96 96 96zM110.116 448c38.292 60.524 89.274 111.924 149.434 150.296 3.918 2.5 7.876 4.922 11.862 7.3-9.962-27.328-15.412-56.822-15.412-87.596 0-54.89 17.286-105.738 46.7-147.418l-60.924-60.924c-52.446 36.842-97.202 83.882-131.66 138.342zM768 518c0 27.166-4.256 53.334-12.102 77.898l-321.808-321.808c24.568-7.842 50.742-12.090 77.91-12.090 141.382 0 256 114.618 256 256zM830.026 670.026l-69.362-69.362c1.264-0.786 2.53-1.568 3.786-2.368 60.162-38.374 111.142-89.774 149.434-150.296-38.292-60.522-89.274-111.922-149.436-150.296-75.594-48.218-162.89-73.704-252.448-73.704-38.664 0-76.902 4.76-113.962 14.040l-76.894-76.894c59.718-21.462 123.95-33.146 190.856-33.146 223.31 0 416.876 130.042 512 320-45.022 89.916-112.118 166.396-193.974 222.026z" />
<glyph unicode="&#xecbd;" glyph-name="snowflake" d="M979.846 234.332l-110.52 63.804 95.954 55.218-48.448 84.182-144.712-83.276-162.992 94.106 162.356 93.738 145.348-83.642 48.448 84.184-96.584 55.58 110.832 63.988-48.564 84.116-110.512-63.802 0.154 110.7-97.126 0.136-0.242-166.962-162.992-94.102v187.478l145.112 84.050-48.682 84.046-96.43-55.854v127.98h-97.128v-127.614l-95.794 55.488-48.68-84.046 144.474-83.688v-188.206l-162.358 93.736-0.238 167.694-97.126-0.136 0.158-111.436-110.832 63.99-48.568-84.116 110.516-63.806-95.95-55.214 48.45-84.184 144.708 83.278 162.998-94.106-162.362-93.74-145.344 83.642-48.45-84.182 96.582-55.58-110.83-63.988 48.564-84.118 110.514 63.804-0.154-110.702 97.126-0.136 0.238 166.964 162.994 94.106v-187.482l-145.11-84.046 48.68-84.052 96.43 55.856v-127.98h97.128v127.612l95.794-55.488 48.682 84.052-144.476 83.684v188.202l162.356-93.734 0.242-167.694 97.126 0.136-0.156 111.434 110.834-63.994z" />
<glyph unicode="&#xecbf;" glyph-name="temperature2" d="M800 832h-192c-17.674 0-32 14.328-32 32s14.326 32 32 32h192c17.674 0 32-14.328 32-32s-14.326-32-32-32zM736 704h-128c-17.674 0-32 14.328-32 32s14.326 32 32 32h128c17.674 0 32-14.328 32-32s-14.326-32-32-32zM800 576h-192c-17.674 0-32 14.328-32 32s14.326 32 32 32h192c17.674 0 32-14.328 32-32s-14.326-32-32-32zM736 448h-128c-17.674 0-32 14.328-32 32s14.326 32 32 32h128c17.674 0 32-14.328 32-32s-14.326-32-32-32zM800 320h-192c-17.674 0-32 14.326-32 32s14.326 32 32 32h192c17.674 0 32-14.326 32-32s-14.326-32-32-32zM457.146 326.37c-5.862 5.982-9.144 14.022-9.144 22.396l-0.002 483.234c0 70.58-57.42 128-128 128s-128-57.42-128-128v-483.234c0-8.376-3.284-16.416-9.144-22.396-35.374-36.1-54.856-83.82-54.856-134.37 0-105.87 86.13-192 192-192s192 86.13 192 192c0 50.55-19.48 98.27-54.854 134.37zM320 896c35.29 0 64-28.71 64-64v-192h-128v192c0 35.29 28.71 64 64 64z" />
<glyph unicode="&#xecd4;" glyph-name="fan" d="M920.906 455.398c-50.784 50.782-113.226 82.782-178.71 96.042l205.112 205.112c43.598 43.602 67.838 99.218-14.288 154.328-135.070 80.186-312.242 62.202-428.416-53.974-50.784-50.784-82.782-113.228-96.042-178.71l-205.112 205.112c-43.602 43.596-99.22 67.838-154.328-14.288-80.186-135.070-62.202-312.242 53.972-428.416 50.784-50.784 113.228-82.782 178.712-96.042l-205.112-205.114c-43.598-43.602-67.838-99.218 14.288-154.324 135.070-80.188 312.242-62.204 428.416 53.968 50.784 50.786 82.784 113.228 96.042 178.714l205.112-205.112c43.604-43.598 99.218-67.84 154.328 14.286 80.186 135.070 62.2 312.242-53.974 428.418zM512 320c-70.692 0-128 57.306-128 128 0 70.692 57.308 128 128 128 70.694 0 128-57.308 128-128 0-70.694-57.306-128-128-128z" />
<glyph unicode="&#xecdd;" glyph-name="bed2" d="M0 64h128v-128h128v128h512v-128h128v128h128v64h-1024zM832 640h-640l-192-448h1024zM352 704c88.366 0 160-28.654 160-64 0 35.346 71.634 64 160 64s160-28.654 160-64v256c0 35.346-28.652 64-64 64h-512c-35.346 0-64-28.654-64-64v-256c0 35.346 71.636 64 160 64z" />
<glyph unicode="&#xed4f;" glyph-name="warning" d="M512 867.226l429.102-855.226h-858.206l429.104 855.226zM512 960c-22.070 0-44.14-14.882-60.884-44.648l-437.074-871.112c-33.486-59.532-5-108.24 63.304-108.24h869.308c68.3 0 96.792 48.708 63.3 108.24h0.002l-437.074 871.112c-16.742 29.766-38.812 44.648-60.882 44.648v0zM576 128c0-35.346-28.654-64-64-64s-64 28.654-64 64c0 35.346 28.654 64 64 64s64-28.654 64-64zM512 256c-35.346 0-64 28.654-64 64v192c0 35.346 28.654 64 64 64s64-28.654 64-64v-192c0-35.346-28.654-64-64-64z" />
<glyph unicode="&#xed50;" glyph-name="warning2" d="M1009.956 44.24v0l-437.074 871.112c-16.742 29.766-38.812 44.648-60.882 44.648s-44.14-14.882-60.884-44.648l-437.074-871.112c-33.486-59.532-5-108.24 63.304-108.24h869.308c68.302 0 96.792 48.708 63.302 108.24zM512 64c-35.346 0-64 28.654-64 64s28.654 64 64 64c35.348 0 64-28.652 64-64s-28.652-64-64-64zM576 320c0-35.346-28.654-64-64-64s-64 28.654-64 64v192c0 35.346 28.654 64 64 64s64-28.654 64-64v-192z" />
<glyph unicode="&#xed51;" glyph-name="notification" d="M512 864c-111.118 0-215.584-43.272-294.156-121.844s-121.844-183.038-121.844-294.156c0-111.118 43.272-215.584 121.844-294.156s183.038-121.844 294.156-121.844c111.118 0 215.584 43.272 294.156 121.844s121.844 183.038 121.844 294.156c0 111.118-43.272 215.584-121.844 294.156s-183.038 121.844-294.156 121.844zM512 960v0c282.77 0 512-229.23 512-512s-229.23-512-512-512c-282.77 0-512 229.23-512 512s229.23 512 512 512zM448 256h128v-128h-128zM448 768h128v-384h-128z" />
<glyph unicode="&#xed5f;" glyph-name="plus" d="M512 960c-282.77 0-512-229.23-512-512s229.23-512 512-512 512 229.23 512 512-229.23 512-512 512zM512 64c-212.078 0-384 171.922-384 384s171.922 384 384 384c212.078 0 384-171.922 384-384s-171.922-384-384-384zM768 384h-192v-192h-128v192h-192v128h192v192h128v-192h192z" />
<glyph unicode="&#xed60;" glyph-name="minus" d="M512 960c-282.77 0-512-229.23-512-512s229.23-512 512-512 512 229.23 512 512-229.23 512-512 512zM512 64c-212.078 0-384 171.922-384 384s171.922 384 384 384c212.078 0 384-171.922 384-384s-171.922-384-384-384zM256 512h512v-128h-512z" />
<glyph unicode="&#xed66;" glyph-name="cancel-circle2" d="M512 960c-282.77 0-512-229.23-512-512s229.23-512 512-512 512 229.23 512 512-229.23 512-512 512zM768 288l-96-96-160 160-160-160-96 96 160 160-160 160 96 96 160-160 160 160 96-96-160-160 160-160z" />
<glyph unicode="&#xed67;" glyph-name="blocked" d="M874.040 810.040c-96.706 96.702-225.28 149.96-362.040 149.96s-265.334-53.258-362.040-149.96c-96.702-96.706-149.96-225.28-149.96-362.040s53.258-265.334 149.96-362.040c96.706-96.702 225.28-149.96 362.040-149.96s265.334 53.258 362.040 149.96c96.702 96.706 149.96 225.28 149.96 362.040s-53.258 265.334-149.96 362.040zM896 448c0-82.814-26.354-159.588-71.112-222.38l-535.266 535.268c62.792 44.758 139.564 71.112 222.378 71.112 211.738 0 384-172.262 384-384zM128 448c0 82.814 26.354 159.586 71.112 222.378l535.27-535.268c-62.794-44.756-139.568-71.11-222.382-71.11-211.738 0-384 172.262-384 384z" />
<glyph unicode="&#xed6c;" glyph-name="cross" d="M1014.662 137.34c-0.004 0.004-0.008 0.008-0.012 0.010l-310.644 310.65 310.644 310.65c0.004 0.004 0.008 0.006 0.012 0.010 3.344 3.346 5.762 7.254 7.312 11.416 4.246 11.376 1.824 24.682-7.324 33.83l-146.746 146.746c-9.148 9.146-22.45 11.566-33.828 7.32-4.16-1.55-8.070-3.968-11.418-7.31 0-0.004-0.004-0.006-0.008-0.010l-310.648-310.652-310.648 310.65c-0.004 0.004-0.006 0.006-0.010 0.010-3.346 3.342-7.254 5.76-11.414 7.31-11.38 4.248-24.682 1.826-33.83-7.32l-146.748-146.748c-9.148-9.148-11.568-22.452-7.322-33.828 1.552-4.16 3.97-8.072 7.312-11.416 0.004-0.002 0.006-0.006 0.010-0.010l310.65-310.648-310.65-310.652c-0.002-0.004-0.006-0.006-0.008-0.010-3.342-3.346-5.76-7.254-7.314-11.414-4.248-11.376-1.826-24.682 7.322-33.83l146.748-146.746c9.15-9.148 22.452-11.568 33.83-7.322 4.16 1.552 8.070 3.97 11.416 7.312 0.002 0.004 0.006 0.006 0.010 0.010l310.648 310.65 310.648-310.65c0.004-0.002 0.008-0.006 0.012-0.008 3.348-3.344 7.254-5.762 11.414-7.314 11.378-4.246 24.684-1.826 33.828 7.322l146.746 146.748c9.148 9.148 11.57 22.454 7.324 33.83-1.552 4.16-3.97 8.068-7.314 11.414z" />
<glyph unicode="&#xed6f;" glyph-name="checkmark" d="M864 832l-480-480-224 224-160-160 384-384 640 640z" />
</font>
</defs>
</svg>
