<?xml version="1.0" standalone="no"?>
<!DOCTYPE svg PUBLIC "-//W3C//DTD SVG 1.1//EN" "http://www.w3.org/Graphics/SVG/1.1/DTD/svg11.dtd" >
<svg xmlns="http://www.w3.org/2000/svg" xmlns:xlink="http://www.w3.org/1999/xlink" version="1.1">
<metadata>
Created by FontForge 20161013 at Tue Oct 23 05:49:42 2012
 By ,,,
Copyright (c) 2012, Vernon Adams (vern@newtypography.co.uk), with Reserved Font Names 'Oxygen'
</metadata>
<defs>
<font id="Oxygen-Light" horiz-adv-x="1106" >
  <font-face 
    font-family="Oxygen"
    font-weight="300"
    font-stretch="normal"
    units-per-em="2048"
    panose-1="2 0 3 3 0 0 0 0 0 0"
    ascent="1638"
    descent="-410"
    x-height="1096"
    cap-height="1488"
    bbox="-164 -671 2597 2021"
    underline-thickness="0"
    underline-position="0"
    unicode-range="U+0020-FB02"
  />
<missing-glyph horiz-adv-x="748" 
d="M68 0v1365h544v-1365h-544zM136 68h408v1229h-408v-1229z" />
    <glyph glyph-name="uniFB00" unicode="ff" horiz-adv-x="1171" 
d="M749 0v1005h-409v-1005h-124v1005h-180l8 77l172 14v41q0 216 75.5 314t231.5 98q45 0 153 -15l-9 -82q-96 11 -130 11q-114 0 -155.5 -73.5t-41.5 -258.5v-35h409v41q0 216 75.5 314t231.5 98q45 0 153 -15l-9 -82q-96 11 -130 11q-114 0 -155.5 -73.5t-41.5 -258.5v-35
h267v-91h-267v-1005h-124z" />
    <glyph glyph-name="uniFB01" unicode="fi" horiz-adv-x="1044" 
d="M180 0v1005h-156v93h156q0 25 1 45q2 86 12 149t30.5 105.5t46 69t66 40.5t82.5 19t103 5h76l19 -87h-105q-36 0 -62.5 -3.5t-47.5 -13t-35.5 -21.5t-25 -33.5t-16.5 -43.5t-9.5 -58t-4.5 -70t-1 -86v-8l-1 -9h599v-1098h-129v1005h-470v-1005h-128zM778 1324v181h129
v-181h-129z" />
    <glyph glyph-name="uniFB02" unicode="fl" horiz-adv-x="1165" 
d="M1029 -12q-48 0 -83.5 4t-63 20.5t-45 29.5t-30 51.5t-19 65t-9.5 92.5t-3.5 110.5t-0.5 140.5v900q-268 18 -261 2q-106 0 -152.5 -62.5t-52.5 -226.5v-8l-1 -9h255v-93h-255v-1005h-128v1005h-156v93h156v19q4 116 30 193t74 116t104 53.5t135 14.5q-40 0 -40 5
q1 14 421 -13v-1019v-20q0 -83 0.5 -119t5 -87.5t13.5 -70.5t26 -41.5t43 -29t65 -6.5q30 0 77 4l11 -96q-19 -2 -116 -13z" />
    <glyph glyph-name="f_j.liga" unicode="fj" horiz-adv-x="1033" 
d="M534 -502l-22 151h52q39 0 67.5 4.5t49 11.5t33.5 23t20.5 30.5t11 43.5t4.5 52t1 65v1101h-403v-980h-168v980h-160v118h160q0 108 11.5 181.5t35.5 124.5t67.5 79.5t101 40.5t142.5 12h73l20 -128h-94q-31 0 -55 -3.5t-43 -8.5t-32.5 -17t-23.5 -23t-16.5 -33
t-10 -40.5t-5.5 -52t-2.5 -60t-0.5 -72.5h571v-1237q0 -106 -13.5 -171t-51 -110.5t-101.5 -63.5t-167 -18h-52zM751 1298v198h168v-198h-168z" />
    <glyph glyph-name=".notdef" horiz-adv-x="748" 
d="M68 0v1365h544v-1365h-544zM136 68h408v1229h-408v-1229z" />
    <glyph glyph-name="glyph1" horiz-adv-x="0" 
 />
    <glyph glyph-name="glyph2" horiz-adv-x="682" 
 />
    <glyph glyph-name="space" unicode=" " horiz-adv-x="463" 
 />
    <glyph glyph-name="exclam" unicode="!" horiz-adv-x="650" 
d="M292 419l-59 1006v89h177v-89l-52 -1006h-66zM325 -8q-61 0 -92 35.5t-31 83.5q0 47 31 82t92 35q62 0 93 -35t31 -82q0 -48 -31 -83.5t-93 -35.5z" />
    <glyph glyph-name="quotedbl" unicode="&#x22;" horiz-adv-x="676" 
d="M168 1034l-15 480h118l-32 -480h-71zM427 1034l-15 480h118l-32 -480h-71z" />
    <glyph glyph-name="numbersign" unicode="#" horiz-adv-x="1108" 
d="M180 -28l74 442h-145l10 91h151l78 446h-163l10 90h168l74 423h104l-74 -423h270l74 423h104l-74 -423h143l-15 -89h-143l-79 -447h155l-10 -91h-160l-77 -442h-105l78 442h-270l-77 -442h-101zM374 505h270l77 447h-269z" />
    <glyph glyph-name="dollar" unicode="$" horiz-adv-x="1247" 
d="M679 -23v-190h-87v191q-166 8 -293.5 46t-199.5 81l48 91q185 -100 445 -112v653l-93 19q-201 40 -301.5 126t-100.5 245q0 96 35 168.5t101.5 118t155.5 70t203 29.5v228h87v-227q120 -4 233 -34t186 -67l-33 -98q-55 30 -162 59t-224 33v-569l82 -17q100 -21 169.5 -50
t123 -75t79.5 -114.5t26 -162.5q0 -137 -61.5 -236.5t-168.5 -150.5t-250 -55zM592 856v550q-182 -10 -273 -80.5t-91 -211.5q0 -95 67 -152.5t198 -85.5zM679 720v-638q167 3 256.5 91.5t89.5 248.5q0 60 -11 101t-41 78.5t-87.5 63t-146.5 43.5z" />
    <glyph glyph-name="ampersand" unicode="&#x26;" horiz-adv-x="1496" 
d="M638 -22q-133 0 -231.5 31.5t-155.5 87.5t-83.5 126.5t-26.5 156.5q0 83 23.5 152.5t70.5 126t107.5 101.5t144.5 89q-37 44 -54 65.5t-43.5 57t-38 59t-25.5 55t-19 62.5t-5 65q0 133 98.5 217t277.5 84q152 0 250.5 -82t98.5 -227q0 -62 -26.5 -117.5t-78.5 -102.5
t-114.5 -85.5t-148.5 -78.5l509 -533q70 75 116 183l72 -57q-42 -99 -121 -198l155 -154l-75 -68l-154 153q-106 -80 -232.5 -124.5t-290.5 -44.5zM626 74q132 0 260 39.5t203 105.5l-525 554q-302 -165 -302 -397q0 -78 29.5 -137.5t81 -94.5t115.5 -52.5t138 -17.5z
M601 891q36 18 55.5 28t51.5 28t50 30t43.5 30.5t40 34t31.5 36.5t25.5 41.5t14.5 45.5t6 52q0 94 -66 145.5t-163 51.5q-147 0 -212 -54t-65 -146q0 -75 58 -166.5t130 -156.5z" />
    <glyph glyph-name="quotesingle" unicode="'" horiz-adv-x="415" 
d="M152 1020l-15 494h130l-20 -494h-95z" />
    <glyph glyph-name="parenleft" unicode="(" horiz-adv-x="590" 
d="M379 -239q-127 176 -199 405t-72 461q0 484 268 887h119q-140 -237 -196.5 -444t-56.5 -437q0 -451 253 -872h-116z" />
    <glyph glyph-name="parenright" unicode=")" horiz-adv-x="590" 
d="M95 -239q253 422 253 872q0 229 -57 436.5t-197 444.5h118q270 -410 270 -887q0 -233 -72.5 -460.5t-199.5 -405.5h-115z" />
    <glyph glyph-name="asterisk" unicode="*" 
d="M352 573l-134 82l250 350l-369 87l44 148l363 -163l-38 437h167l-37 -437l364 163l45 -147l-374 -88q19 -29 105.5 -142.5t149.5 -207.5q-35 -25 -67 -41t-65 -40l-208 387z" />
    <glyph glyph-name="plus" unicode="+" horiz-adv-x="1101" 
d="M500 157v443h-392v100h394v435h108v-435h382v-100h-382v-443h-110z" />
    <glyph glyph-name="comma" unicode="," horiz-adv-x="504" 
d="M130 -275l80 510h129v-41q-41 -178 -137 -469h-72z" />
    <glyph glyph-name="hyphen" unicode="-" horiz-adv-x="670" 
d="M93 531v110h484v-110h-484z" />
    <glyph glyph-name="period" unicode="." horiz-adv-x="517" 
d="M290 -8q-53 0 -80 31t-27 73q0 41 27 72t80 31q55 0 82 -31t27 -72q0 -42 -27 -73t-82 -31z" />
    <glyph glyph-name="slash" unicode="/" horiz-adv-x="953" 
d="M49 -174l701 1688h113l-702 -1688h-112z" />
    <glyph glyph-name="zero" unicode="0" horiz-adv-x="1216" 
d="M608 91q153 0 247 183.5t94 493.5q0 304 -94 484.5t-246 180.5q-153 0 -247 -181t-93 -486q0 -310 93.5 -492.5t245.5 -182.5zM609 -24q-126 0 -222 57t-155.5 162.5t-89 247.5t-29.5 320q0 375 127.5 580t368.5 205t366.5 -204.5t125.5 -580.5q0 -178 -29 -320
t-88 -247.5t-154 -162.5t-221 -57z" />
    <glyph glyph-name="one" unicode="1" horiz-adv-x="599" 
d="M274 0v1356q-32 -23 -101.5 -57t-138.5 -58v108q210 97 263 139h105v-1488h-128z" />
    <glyph glyph-name="two" unicode="2" horiz-adv-x="1144" 
d="M132 0l-30 127l519 604q102 121 152 210.5t50 174.5q0 142 -67 217.5t-200 75.5q-95 0 -186.5 -28.5t-149.5 -83.5l-47 97q125 120 388 120q191 0 301.5 -105t110.5 -276q0 -115 -58.5 -226.5t-192.5 -266.5l-450 -517h713l-8 -123h-845z" />
    <glyph glyph-name="three" unicode="3" horiz-adv-x="1115" 
d="M532 -23q-131 0 -234 36t-142 73l47 103q136 -106 317 -106q159 0 252.5 83.5t93.5 237.5q0 79 -23 138.5t-61.5 96t-97 60.5t-120 33.5t-140.5 12.5h-58v112h44q56 2 101.5 7.5t96 17t87.5 32.5t68 51.5t47 76.5t16 105q0 262 -292 262q-100 0 -188 -28.5t-143 -78.5
l-46 104q128 110 412 110q72 0 138.5 -21.5t121 -62.5t87 -110t32.5 -156q0 -283 -261 -362q303 -78 308 -394q3 -193 -125.5 -313t-337.5 -120z" />
    <glyph glyph-name="four" unicode="4" horiz-adv-x="1192" 
d="M798 0v402h-682v136l686 983h120v-1009h186l-15 -110h-171v-402h-124zM253 512h545v802z" />
    <glyph glyph-name="five" unicode="5" horiz-adv-x="1195" 
d="M563 -23q-267 0 -434 134l45 96q156 -125 395 -125q163 0 261 109.5t98 286.5q0 148 -84.5 246.5t-209.5 98.5q-91 0 -154.5 -25t-144.5 -87l-125 9l34 768h761l-13 -111h-639l-30 -545q127 96 287 99q137 2 243 -60.5t160 -164.5t54 -223q0 -230 -136.5 -368
t-367.5 -138z" />
    <glyph glyph-name="six" unicode="6" horiz-adv-x="1196" 
d="M604 -23q-111 0 -204 41.5t-153 111t-93 158.5t-33 185q0 44 5 81t12 69t27.5 73t37 72t56.5 88t70.5 99t93.5 126q51 64 139 165.5t150 171.5l63 70h137l-525 -639q60 35 121 51t138 16q86 0 166 -36.5t140 -98.5t96 -150.5t36 -186.5q0 -193 -136 -330t-344 -137z
M602 88q156 0 254.5 106.5t98.5 248.5q0 99 -40 182t-120.5 135.5t-187.5 52.5q-86 0 -154.5 -29.5t-111.5 -80t-65.5 -116t-22.5 -139.5q0 -67 24.5 -131.5t68 -115.5t110.5 -82t146 -31z" />
    <glyph glyph-name="seven" unicode="7" horiz-adv-x="1059" 
d="M276 0l541 1377h-701l15 111h795l16 -123l-528 -1365h-138z" />
    <glyph glyph-name="eight" unicode="8" horiz-adv-x="1196" 
d="M601 -23q-133 0 -240.5 45.5t-173.5 139.5t-66 222q0 147 91 260.5t254 158.5q-150 41 -231.5 127.5t-81.5 213.5q0 170 124 270t325 100q198 0 319.5 -99.5t121.5 -270.5q0 -127 -78 -213.5t-218 -127.5q153 -45 241 -158.5t88 -260.5q0 -96 -37.5 -174.5t-102 -128.5
t-150.5 -77t-185 -27zM601 82q146 0 243 81t97 215q0 144 -92 238.5t-248 133.5q-156 -40 -250.5 -134.5t-94.5 -236.5q0 -134 99 -215.5t246 -81.5zM601 856q311 61 311 290q0 125 -91 193t-220 68q-130 0 -222.5 -68.5t-92.5 -192.5q0 -227 315 -290z" />
    <glyph glyph-name="nine" unicode="9" horiz-adv-x="1142" 
d="M265 0l559 677q-56 -36 -127.5 -58.5t-139.5 -22.5q-121 0 -226 53.5t-171.5 158t-66.5 238.5q0 95 34 180t96 149t154.5 101.5t203.5 37.5q116 0 208 -39.5t149.5 -107t87.5 -154t30 -183.5q0 -147 -44.5 -248t-187.5 -304l-99 -120q-99 -119 -198 -238.5l-99 -119.5
h-163zM577 704q89 0 158.5 29t111.5 78t63.5 110t21.5 129q0 70 -22.5 133.5t-65 113.5t-110 80t-150.5 30q-110 0 -195 -53t-127.5 -134t-42.5 -173q0 -149 98 -246t260 -97z" />
    <glyph glyph-name="colon" unicode=":" horiz-adv-x="510" 
d="M167 -37v211h179v-211h-179zM167 927v209h179v-209h-179z" />
    <glyph glyph-name="semicolon" unicode=";" horiz-adv-x="550" 
d="M152 -302l56 467h162l-125 -467h-93zM197 928v208h179v-208h-179z" />
    <glyph glyph-name="less" unicode="&#x3c;" horiz-adv-x="1165" 
d="M1052 113l-954 466v79l956 500v-126l-807 -410l805 -382v-127z" />
    <glyph glyph-name="equal" unicode="=" horiz-adv-x="1240" 
d="M150 390v110h940v-110h-940zM149 829v112h942v-112h-942z" />
    <glyph glyph-name="greater" unicode="&#x3e;" horiz-adv-x="1167" 
d="M113 122v128l806 372l-803 420v123l954 -509v-79z" />
    <glyph glyph-name="question" unicode="?" horiz-adv-x="855" 
d="M314 395q-5 54 23.5 130t73 156t89.5 162t77 170.5t32 160.5q-1 107 -63.5 171.5t-163.5 64.5q-74 0 -146 -25.5t-119 -54.5l-34 96q60 42 150 66.5t161 24.5q162 0 255 -98t93 -246q0 -68 -23 -138t-63 -141t-84.5 -140.5t-99 -167t-93.5 -191.5h-65zM363 -1
q-50 0 -75.5 29t-25.5 68q0 38 25.5 67t75.5 29q51 0 76 -28.5t25 -67.5t-25 -68t-76 -29z" />
    <glyph glyph-name="at" unicode="@" horiz-adv-x="1867" 
d="M882 -82q-226 0 -395 89.5t-262.5 263t-93.5 411.5q0 175 62.5 328t172.5 264.5t268.5 175.5t343.5 64q216 0 387 -80.5t270.5 -235t99.5 -359.5q0 -92 -25.5 -174.5t-69.5 -143.5t-101.5 -105.5t-123.5 -67t-134 -22.5q-77 0 -130 47.5t-67 120.5q-39 -71 -115.5 -116.5
t-184.5 -45.5q-70 0 -119.5 36.5t-71.5 95t-22 134.5q0 71 20 147t60.5 147t96 127t132 90t162.5 34q62 0 145.5 -14t144.5 -34q-15 -47 -46 -138t-48 -142t-31.5 -113.5t-14.5 -102.5q0 -77 26 -130t74 -53q56 0 113 30t104.5 83.5t77 137t29.5 181.5q0 173 -81.5 301
t-223 193t-324.5 65q-120 0 -227.5 -27.5t-201 -86.5t-161.5 -144.5t-107 -208t-39 -270.5q0 -304 169 -478.5t465 -174.5q214 0 420 85l26 -97q-88 -39 -208.5 -63t-240.5 -24zM806 423q70 0 119.5 22t83.5 75.5t49 89.5t41 117q5 14 7 21q42 130 87 286q-55 26 -157 26
q-65 0 -122 -28.5t-97 -75.5t-69 -106.5t-43 -121t-14 -118.5q0 -83 29.5 -135t85.5 -52z" />
    <glyph glyph-name="A" unicode="A" horiz-adv-x="1276" 
d="M6 0l581 1488h123l560 -1488h-132l-190 505h-617l-198 -505h-127zM380 599h522q-225 646 -255 760q-12 -44 -79 -234t-128 -358z" />
    <glyph glyph-name="B" unicode="B" horiz-adv-x="1265" 
d="M182 0v1488h406q277 0 404.5 -92t127.5 -280q0 -22 -0.5 -33t-4.5 -43.5t-12.5 -54.5t-26.5 -54.5t-43.5 -56.5t-66.5 -48.5t-93 -40.5q156 -23 239 -125t83 -241q0 -197 -125 -308t-384 -111h-504zM310 100h343q405 0 405 319q0 173 -112 240.5t-351 67.5h-285v-627z
M310 825h341q79 0 136 12t103.5 42.5t70 87t23.5 140.5q0 156 -96.5 216.5t-305.5 60.5h-272v-559z" />
    <glyph glyph-name="C" unicode="C" horiz-adv-x="1286" 
d="M813 -23q-171 0 -305 58.5t-218.5 162.5t-128 244t-43.5 307q0 222 81.5 393.5t243.5 271.5t383 100q243 0 414 -102l-61 -99q-156 94 -352 94q-137 0 -246 -51.5t-178.5 -142.5t-106 -211t-36.5 -260q0 -137 33.5 -253.5t101 -208t179.5 -144t258 -52.5q157 0 350 87
l26 -103q-146 -91 -395 -91z" />
    <glyph glyph-name="D" unicode="D" horiz-adv-x="1498" 
d="M310 107h292q310 0 472.5 158.5t162.5 472.5q0 172 -45.5 297t-133.5 200.5t-208 111t-277 35.5h-263v-1275zM182 0v1488h403q182 0 325.5 -43t249.5 -131.5t163 -233t57 -337.5q0 -365 -201 -554t-563 -189h-434z" />
    <glyph glyph-name="E" unicode="E" horiz-adv-x="1142" 
d="M182 0v1488h829l-5 -106h-696v-560h662v-109h-662v-606h718l-11 -107h-835z" />
    <glyph glyph-name="F" unicode="F" horiz-adv-x="1025" 
d="M182 0v1488h800l-6 -111h-665v-588h635v-103h-635v-686h-129z" />
    <glyph glyph-name="G" unicode="G" horiz-adv-x="1469" 
d="M821 -23q-136 0 -250.5 38.5t-197.5 107.5t-140.5 164.5t-86 210t-28.5 242.5q0 225 84 398.5t250.5 274.5t394.5 101q250 0 444 -115l-57 -103q-82 50 -185.5 80.5t-200.5 30.5q-146 0 -260.5 -52t-185.5 -143.5t-107.5 -210.5t-36.5 -259q0 -149 37 -269t111 -207.5
t190 -135t268 -47.5q157 0 346 75v476h-369l8 111h480v-656q-122 -63 -236.5 -87.5t-271.5 -24.5z" />
    <glyph glyph-name="H" unicode="H" horiz-adv-x="1474" 
d="M182 0v1488h128v-658h854v658h128v-1488h-128v718h-854v-718h-128z" />
    <glyph glyph-name="I" unicode="I" horiz-adv-x="514" 
d="M193 0v1488h128v-1488h-128z" />
    <glyph glyph-name="J" unicode="J" horiz-adv-x="512" 
d="M1 -138l-21 92l60 3q32 0 58 5t45 11.5t33.5 20.5t24 25t16.5 32.5t10 35.5t5 41t2 42.5v45.5v1298h133v-1211q0 -63 -0.5 -94t-3.5 -80.5t-9.5 -72.5t-18 -58t-29.5 -50.5t-44.5 -36t-61.5 -29t-81.5 -14.5t-105.5 -6h-12z" />
    <glyph glyph-name="K" unicode="K" horiz-adv-x="1224" 
d="M182 0v1488h129v-769q44 49 116 128.5t224.5 248t253.5 280.5l101 112h169l-621 -671l672 -817h-163l-607 739l-145 -136v-603h-129z" />
    <glyph glyph-name="L" unicode="L" horiz-adv-x="998" 
d="M182 0v1488h129v-1375h669l-6 -113h-792z" />
    <glyph glyph-name="M" unicode="M" horiz-adv-x="1804" 
d="M182 0v1488h180l551 -1257l536 1257h173v-1488h-127v1001l7 338l-37 -120l-489 -1134h-140l-495 1137l-39 120l7 -346v-996h-127z" />
    <glyph glyph-name="N" unicode="N" horiz-adv-x="1499" 
d="M182 0v1488h149l819 -1255l53 -73q-7 308 -7 383v945h121v-1488h-152l-817 1253l-51 73q8 -225 8 -388v-938h-123z" />
    <glyph glyph-name="O" unicode="O" horiz-adv-x="1627" 
d="M815 82q184 0 309.5 84t184 230.5t58.5 348.5q0 316 -140 489t-411 173q-273 0 -415.5 -172.5t-142.5 -489.5q0 -307 141.5 -485t415.5 -178zM815 -23q-170 0 -303.5 56.5t-219 159t-130 242.5t-44.5 309q0 354 182.5 562t515.5 208q327 0 510 -209.5t183 -561.5
q0 -165 -45 -304.5t-130.5 -242.5t-218.5 -161t-300 -58z" />
    <glyph glyph-name="P" unicode="P" horiz-adv-x="1167" 
d="M182 0v1488h455q96 0 175 -20.5t142.5 -63.5t98.5 -116.5t35 -171.5q0 -57 -5.5 -102.5t-20.5 -93.5t-40.5 -84t-67 -69t-98 -54t-135.5 -33t-178 -12q-106 0 -232 13v-681h-129zM556 779q116 0 197 23t121 52t61 82t23.5 85t2.5 90v6q0 131 -89 195t-230 64h-331v-585
q88 -12 245 -12z" />
    <glyph glyph-name="Q" unicode="Q" horiz-adv-x="1612" 
d="M1253 -470q-1 2 -24.5 32t-60 79t-76.5 106t-80.5 122.5t-64.5 118.5q-69 -11 -140 -11q-172 0 -304.5 56.5t-216 159.5t-126 242.5t-42.5 310.5q0 357 177.5 562.5t513.5 205.5q329 0 507 -207.5t178 -561.5q0 -263 -106 -455t-319 -273q18 -32 48.5 -82t105.5 -159
t128 -162zM807 91q270 0 405 173t135 483q0 319 -136 486t-403 167q-268 0 -407 -167t-139 -486q0 -309 137.5 -482.5t407.5 -173.5z" />
    <glyph glyph-name="R" unicode="R" horiz-adv-x="1333" 
d="M182 0v1488h424q81 0 140.5 -3t121.5 -13t105.5 -26.5t83 -44.5t63.5 -67.5t37.5 -94.5t13.5 -125q0 -137 -67 -235t-205 -133q60 -123 90 -187l244 -559h-149l-210 509q-21 50 -94 216q-20 -3 -148 -3l-322 6v-728h-128zM687 828q199 0 278 69.5t79 214.5
q0 130 -71.5 199.5t-243.5 69.5h-419v-550q235 -3 377 -3z" />
    <glyph glyph-name="S" unicode="S" horiz-adv-x="1247" 
d="M658 -23q-189 0 -334 40t-225 88l48 91q211 -114 522 -114q171 0 263.5 89t92.5 251q0 60 -11 101t-41 78.5t-87.5 63t-146.5 43.5l-240 48q-201 40 -301.5 126t-100.5 245q0 103 40 178.5t115.5 120.5t175 66.5t226.5 21.5q126 0 246.5 -31t197.5 -70l-33 -98
q-59 33 -174.5 62.5t-239.5 29.5q-211 0 -317 -70.5t-106 -222.5q0 -95 67 -152.5t198 -85.5l268 -55q100 -21 169.5 -50t123 -75t79.5 -114.5t26 -162.5q0 -210 -137.5 -326t-363.5 -116z" />
    <glyph glyph-name="T" unicode="T" horiz-adv-x="1082" 
d="M476 0v1378h-468v110h1066v-110h-468v-1378h-130z" />
    <glyph glyph-name="U" unicode="U" horiz-adv-x="1408" 
d="M699 -23q-144 0 -250 39t-169 112t-93 169.5t-30 219.5v971h128v-991q0 -213 105 -315.5t317 -102.5q416 0 416 419v990h128v-973q0 -98 -19.5 -179t-61.5 -148t-106 -113.5t-156.5 -72t-208.5 -25.5z" />
    <glyph glyph-name="V" unicode="V" horiz-adv-x="1206" 
d="M531 0l-536 1488h142l338 -959q20 -65 44.5 -134.5t42.5 -125.5t37 -132q7 36 20.5 78t45 134.5t61.5 185.5q73 232 174 490t167 463h144l-543 -1488h-137z" />
    <glyph glyph-name="W" unicode="W" horiz-adv-x="1995" 
d="M464 0l-462 1488h141l396 -1346l380 1306h168l371 -1305l395 1345h140l-461 -1488h-143l-383 1321l-400 -1321h-142z" />
    <glyph glyph-name="X" unicode="X" horiz-adv-x="1196" 
d="M18 0l503 786l-472 702h153l401 -637l418 637h137l-472 -694l492 -794h-146l-432 706l-444 -706h-138z" />
    <glyph glyph-name="Y" unicode="Y" horiz-adv-x="1166" 
d="M501 0v589l-496 899h139l431 -785l445 785h141l-529 -895v-593h-131z" />
    <glyph glyph-name="Z" unicode="Z" horiz-adv-x="1173" 
d="M97 0v111l826 1265h-796v112h964v-104l-832 -1271h840l-8 -113h-994z" />
    <glyph glyph-name="bracketleft" unicode="[" horiz-adv-x="688" 
d="M147 -264v1778h448v-100h-312v-1578h312v-100h-448z" />
    <glyph glyph-name="backslash" unicode="\" horiz-adv-x="816" 
d="M652 -11l-590 1525h122l590 -1525h-122z" />
    <glyph glyph-name="bracketright" unicode="]" horiz-adv-x="688" 
d="M93 -264v100h312v1578h-312v100h448v-1778h-448z" />
    <glyph glyph-name="asciicircum" unicode="^" horiz-adv-x="1158" 
d="M84 558l437 930h90l460 -930h-113l-393 798l-365 -798h-116z" />
    <glyph glyph-name="underscore" unicode="_" horiz-adv-x="1053" 
d="M73 -108v108h905v-108h-905z" />
    <glyph glyph-name="grave" unicode="`" horiz-adv-x="702" 
d="M460 1287l-276 387h158l191 -387h-73z" />
    <glyph glyph-name="a" unicode="a" horiz-adv-x="1077" 
d="M440 -24q-155 0 -248 78t-93 223q0 86 37 149.5t107.5 103t161 61.5t210.5 31q128 8 190 13v122q0 126 -57.5 189.5t-184.5 63.5q-174 0 -325 -83q-4 10 -18.5 43.5t-20.5 51.5q62 40 162 67t196 27q197 0 283 -84.5t86 -299.5v-732h-97q-5 23 -14.5 91t-9.5 70
q-129 -185 -365 -185zM444 75q128 0 227.5 75.5t130.5 209.5v187q-144 -12 -145 -12q-244 -22 -339 -80t-95 -180q0 -100 60.5 -150t160.5 -50z" />
    <glyph glyph-name="b" unicode="b" horiz-adv-x="1187" 
d="M619 -24q-223 0 -355 183l-13 -159h-104v1521l123 11v-369q0 -169 -3 -233q61 94 155.5 140t196.5 46q222 0 346.5 -158.5t124.5 -408.5q0 -168 -51.5 -295.5t-159.5 -202.5t-260 -75zM625 75q92 0 159.5 39.5t104 108t53 148t16.5 172.5q0 74 -9.5 139.5t-34 128
t-61 106.5t-95 71t-133.5 27q-173 0 -264.5 -124.5t-90.5 -353.5q0 -105 19.5 -187.5t61 -145t110.5 -96t164 -33.5z" />
    <glyph glyph-name="c" unicode="c" horiz-adv-x="965" 
d="M604 -24q-159 0 -276 78t-174 203.5t-57 279.5q0 118 34 222t96.5 184t161 126.5t219.5 46.5q79 0 157.5 -21t116.5 -50l-39 -93q-103 58 -244 58q-171 0 -271 -129.5t-100 -343.5q0 -205 99.5 -331.5t271.5 -126.5q120 0 258 60l19 -89q-47 -35 -122 -54.5t-150 -19.5z
" />
    <glyph glyph-name="d" unicode="d" horiz-adv-x="1183" 
d="M561 -23q-219 0 -341.5 152t-122.5 420q0 252 126.5 409.5t333.5 157.5q102 0 204 -44t155 -137v33v553l120 11v-1532h-103l-18 165q-57 -93 -154.5 -140.5t-199.5 -47.5zM558 75q93 0 163 34t112 96t62.5 142.5t20.5 178.5q0 489 -360 489q-85 0 -150 -40.5t-102.5 -109
t-55.5 -149t-18 -169.5q0 -77 11 -144.5t36 -128.5t62 -104.5t93 -69t126 -25.5z" />
    <glyph glyph-name="e" unicode="e" horiz-adv-x="1093" 
d="M591 -24q-227 0 -360.5 152t-133.5 412q0 251 130.5 411t337.5 165q193 0 310 -138t117 -370q0 -9 -0.5 -36.5t-0.5 -38.5h-763q2 -211 102 -334.5t264 -123.5q107 0 186 25t165 71l21 -93q-166 -102 -375 -102zM233 633h624q0 183 -79 280.5t-217 97.5q-140 0 -226 -104
t-102 -274z" />
    <glyph glyph-name="f" unicode="f" horiz-adv-x="638" 
d="M216 0v1005h-180l8 77l172 14v41q0 216 75.5 314t231.5 98q45 0 153 -15l-9 -82q-96 11 -130 11q-114 0 -155.5 -73.5t-41.5 -258.5v-35h267v-91h-267v-1005h-124z" />
    <glyph glyph-name="g" unicode="g" horiz-adv-x="1173" 
d="M316 -509l-15 111h232q77 0 136 13.5t99.5 35t69 60t44.5 76.5t24.5 98.5t10.5 111t2 127.5q0 -11 -2 5l-5 69q-63 -95 -149 -146.5t-210 -51.5q-98 0 -178.5 35t-132 91t-86.5 128t-50 143.5t-15 141.5q0 88 14.5 167.5t50.5 155.5t90 131.5t139 89t192 33.5
q105 0 185.5 -41.5t149.5 -132.5l12 154h110v-1016q0 -66 -1.5 -106.5t-12 -110t-29 -114t-56.5 -98.5t-91.5 -85t-137 -53t-189.5 -22h-201zM569 101q73 0 132 23.5t97.5 62t65 90.5t37.5 107.5t11 114.5v114q0 78 -19 147t-58.5 127.5t-108.5 92.5t-160 34
q-74 0 -133.5 -28.5t-97.5 -75.5t-64 -110t-36.5 -128.5t-10.5 -134.5q0 -61 9.5 -118.5t34 -116.5t62.5 -102.5t99.5 -71t139.5 -27.5z" />
    <glyph glyph-name="h" unicode="h" horiz-adv-x="1149" 
d="M147 0v1521l124 11v-523v-29t-0.5 -9t-1 -11l-1.5 -30q134 186 384 186q357 0 357 -431v-685h-123v661q0 185 -57 267.5t-201 82.5q-143 0 -238 -75.5t-117 -194.5q-2 -40 -2 -119v-622h-124z" />
    <glyph glyph-name="i" unicode="i" horiz-adv-x="445" 
d="M160 0v1096h125v-1096h-125zM160 1320v168h124v-168h-124z" />
    <glyph glyph-name="j" unicode="j" horiz-adv-x="408" 
d="M-58 -550l-19 100h49q70 0 109 10.5t56.5 45t20.5 66t3 106.5v3v1315h125v-1343q0 -94 -12.5 -150t-47 -91.5t-89 -48.5t-146.5 -13h-49zM161 1321v167h125v-167h-125z" />
    <glyph glyph-name="k" unicode="k" horiz-adv-x="986" 
d="M149 0v1522l123 10v-869v-95q9 11 64 71t62 68l379 389h167l-459 -458l491 -638h-157l-419 568l-128 -118v-450h-123z" />
    <glyph glyph-name="l" unicode="l" horiz-adv-x="581" 
d="M423 -23q-138 0 -202 62.5t-64 203.5v1279l122 10v-1282q0 -100 36.5 -138t110.5 -38q60 0 150 23l5 -96q-98 -24 -158 -24z" />
    <glyph glyph-name="m" unicode="m" horiz-adv-x="1805" 
d="M150 0q-3 994 -3 1096h108l16 -168q48 82 143.5 135t202.5 53q263 0 330 -207q117 207 369 207q180 0 264.5 -102.5t84.5 -305.5v-708h-124v536q0 76 -2 127t-9.5 111t-23 98t-40.5 72t-64 50t-92 16q-126 0 -213.5 -74.5t-121.5 -209.5q2 -102 5 -158v-568h-123v558
q0 85 -5 147.5t-20 122.5t-40.5 98t-68 61t-101.5 23q-136 0 -227.5 -72.5t-118.5 -197.5q-2 -41 -2 -117v-623h-124z" />
    <glyph glyph-name="n" unicode="n" horiz-adv-x="1152" 
d="M147 0v1096h108l17 -169q59 88 158.5 138.5t214.5 50.5q189 0 278 -104t89 -332v-680h-125v736q-5 146 -62 210t-187 64q-149 0 -243.5 -75t-118.5 -194q-4 -47 -4 -98v-643h-125z" />
    <glyph glyph-name="o" unicode="o" horiz-adv-x="1190" 
d="M601 75q120 0 202.5 63.5t120 167.5t37.5 239q0 212 -90 341t-274 129q-120 0 -204.5 -64.5t-123.5 -169t-39 -239.5q0 -205 95.5 -336t275.5 -131zM592 -24q-149 0 -262.5 75t-173 203.5t-59.5 290.5q0 122 34.5 226.5t98.5 181t159 120t211 43.5q154 0 267 -75.5
t169.5 -203t56.5 -290.5q0 -164 -58 -292t-173 -203.5t-270 -75.5z" />
    <glyph glyph-name="p" unicode="p" horiz-adv-x="1175" 
d="M147 -488v1584h111l11 -156q77 88 156.5 132t185.5 44q234 0 350.5 -155.5t116.5 -425.5q0 -246 -123 -402.5t-333 -156.5q-108 0 -204 51t-152 134q5 -123 5 -242v-398zM614 78q85 0 151 41t105 109t58.5 148.5t19.5 167.5q0 88 -19 168t-57.5 148.5t-105.5 109.5
t-153 41q-93 0 -160.5 -33.5t-107 -95.5t-57.5 -141t-18 -178q0 -114 17 -199t55.5 -151.5t106.5 -100.5t165 -34z" />
    <glyph glyph-name="q" unicode="q" horiz-adv-x="1179" 
d="M908 -488v501q0 84 5 152q-58 -93 -158.5 -141t-200.5 -48q-144 0 -249 73t-156.5 197.5t-51.5 285.5q0 173 51.5 303t158 205.5t255.5 75.5q205 0 351 -185l8 165h111v-1577zM554 84q346 0 351 441q0 112 -18.5 198t-58.5 151.5t-109 100t-166 34.5q-71 0 -127.5 -27
t-92.5 -72t-60.5 -106t-34.5 -125.5t-10 -134.5q0 -93 17 -172t53.5 -145.5t102 -104.5t153.5 -38z" />
    <glyph glyph-name="r" unicode="r" horiz-adv-x="715" 
d="M149 0q-2 965 -2 1096h102l8 -216q59 98 150 160t190 62q41 0 88 -7l-9 -103q-36 6 -76 6q-139 0 -233.5 -109.5t-94.5 -259.5v-629h-123z" />
    <glyph glyph-name="s" unicode="s" horiz-adv-x="944" 
d="M467 -25q-106 0 -199 26t-147 62l18 104q165 -86 316 -86q271 0 281 201q0 84 -54.5 132t-218.5 100q-86 30 -95 33q-257 78 -259 277q0 115 101.5 203.5t274.5 88.5t325 -68l-42 -92q-154 58 -286 58q-116 0 -182.5 -52t-66.5 -140q0 -74 43.5 -113.5t172.5 -75.5
q14 -4 51.5 -18t41.5 -15q173 -53 241.5 -125.5t68.5 -197.5q-3 -144 -107.5 -223t-277.5 -79z" />
    <glyph glyph-name="t" unicode="t" horiz-adv-x="676" 
d="M456 -23q-138 0 -202 62.5t-64 203.5v762h-155l9 75l148 14l33 251l87 6v-255h320v-91h-320v-736q0 -116 38 -155.5t134 -39.5q62 0 154 23l5 -96q-121 -24 -187 -24z" />
    <glyph glyph-name="u" unicode="u" 
d="M555 -27q-86 0 -159.5 19.5t-136.5 61t-99.5 117.5t-36.5 179v746h124v-749q0 -78 24 -132t69 -81.5t96 -38.5t119 -11q67 0 118 11.5t95 39.5t67.5 81.5t23.5 130.5v749h124v-746q0 -84 -24 -150t-64 -108t-96.5 -69.5t-116 -38.5t-127.5 -11z" />
    <glyph glyph-name="v" unicode="v" horiz-adv-x="989" 
d="M419 0l-418 1096h133l254 -691q20 -65 47.5 -138.5t44.5 -114.5l17 -41q19 64 49.5 137.5t55.5 153.5q27 86 98 259.5t155 434.5h133l-425 -1096h-144z" />
    <glyph glyph-name="w" unicode="w" horiz-adv-x="1557" 
d="M328 0l-306 1096h130l253 -979q273 878 305 979h152q299 -976 302 -976l242 976h129l-301 -1096h-144q-3 -1 -141 461t-160 543q-12 -54 -91 -304.5t-152 -475.5t-74 -224h-144z" />
    <glyph glyph-name="x" unicode="x" horiz-adv-x="1012" 
d="M37 0l409 555l-396 541h138l320 -452l318 452h141l-395 -545l403 -551h-133l-333 465l-332 -465h-140z" />
    <glyph glyph-name="y" unicode="y" horiz-adv-x="981" 
d="M98 -520q-42 0 -85 8l-9 102q3 0 29.5 -1.5t39.5 -1.5q126 0 189 43t112 168q6 17 31.5 86t39.5 109l-438 1103h130l373 -986l45 138q275 859 282 858q1 0 -1 -10h130q-438 -1231 -458 -1288q-69 -166 -162 -247t-248 -81z" />
    <glyph glyph-name="z" unicode="z" horiz-adv-x="882" 
d="M89 0v104l579 893h-569v99h699v-117l-581 -886h599v-93h-727z" />
    <glyph glyph-name="braceleft" unicode="{" horiz-adv-x="709" 
d="M613 -277q-170 1 -244.5 96t-74.5 276v160q0 62 -3.5 105t-15.5 90t-34 75t-61 46.5t-94 18.5v99q35 1 62.5 5.5t48 13t36.5 20.5t26.5 27.5t17.5 34.5t10 41t5 47.5t2 53.5v59v34v211q0 148 84 234.5t235 86.5v-96q-110 -1 -151.5 -60.5t-41.5 -203.5v-263
q0 -165 -173 -297q47 -19 82 -53t54 -75.5t28 -82.5t9 -84v-260q0 -147 41.5 -204.5t151.5 -58.5v-96z" />
    <glyph glyph-name="bar" unicode="|" horiz-adv-x="817" 
d="M349 -413v2019h119v-2019h-119z" />
    <glyph glyph-name="braceright" unicode="}" horiz-adv-x="716" 
d="M99 -277v96q109 1 151.5 59t42.5 204v260q0 89 33.5 149t137.5 155q-46 14 -81 46.5t-54 73.5t-27.5 83.5t-8.5 84.5v263q0 143 -42.5 203t-151.5 61v96q319 0 319 -373v-159q0 -53 2 -88.5t8.5 -78t20.5 -69.5t36.5 -51t58.5 -36t84 -13v-99q-56 0 -95.5 -18.5
t-61.5 -47t-34 -75.5t-15.5 -89.5t-3.5 -104.5v-213q0 -146 -82.5 -232t-236.5 -87z" />
    <glyph glyph-name="asciitilde" unicode="~" horiz-adv-x="1236" 
d="M156 524l-40 79q35 90 103 145t160 55q57 0 106.5 -14.5t132.5 -53.5q19 -8 56.5 -26t56.5 -26t46 -18.5t47 -15t37 -4.5q59 0 115.5 51.5t80.5 117.5l49 -70q-38 -106 -96 -156.5t-149 -50.5q-84 0 -221 61q-76 36 -107.5 50.5t-77 29t-78.5 14.5q-64 0 -124 -47.5
t-97 -120.5z" />
    <glyph glyph-name="uni00A0" unicode="&#xa0;" horiz-adv-x="463" 
 />
    <glyph glyph-name="exclamdown" unicode="&#xa1;" horiz-adv-x="650" 
d="M235 -402v90l50 1006h66l61 -1006v-90h-177zM325 892q-62 0 -92.5 35t-30.5 82t30.5 82.5t92.5 35.5q61 0 92.5 -35.5t31.5 -82.5t-31.5 -82t-92.5 -35z" />
    <glyph glyph-name="cent" unicode="&#xa2;" horiz-adv-x="985" 
d="M567 -162v134q-91 9 -169.5 46.5t-132.5 94t-92.5 127.5t-57 146.5t-18.5 150.5q1 76 19.5 154t57.5 152t93.5 133.5t132 100t167.5 49.5v155h77v-154q85 -4 156.5 -29t110.5 -65l-41 -83q-96 64 -226 73v-948q121 12 226 81l38 -83q-43 -43 -115.5 -69t-148.5 -32v-134
h-77zM567 77v945q-95 -14 -172 -84.5t-119.5 -177t-42.5 -225.5q0 -113 40.5 -211.5t117.5 -165t176 -81.5z" />
    <glyph glyph-name="sterling" unicode="&#xa3;" horiz-adv-x="1124" 
d="M101 0l-9 105q185 64 185 331v260h-186v104h186v90q0 71 3.5 129.5t14.5 125t29 118t50 100.5t74.5 81t105 51.5t139.5 19.5q196 0 344 -125l-66 -87q-130 104 -281 104q-157 0 -221 -110.5t-64 -319.5v-177h427v-105h-427v-169q0 -65 -2.5 -110t-11 -96.5t-24 -88
t-43 -72.5t-67.5 -63q50 3 119.5 10.5t139.5 7.5h525l14 -114h-954z" />
    <glyph glyph-name="currency" unicode="&#xa4;" horiz-adv-x="1146" 
d="M1027 234l-187 178q-117 -98 -266 -98q-155 0 -268 98l-185 -177l-63 59l185 180q-86 116 -86 258q0 140 86 257l-186 182l64 59l185 -177q113 98 268 98q151 0 266 -98l187 177l61 -62l-184 -179q86 -124 86 -257q0 -147 -85 -258l182 -179zM574 402q133 0 227.5 97
t94.5 233t-94.5 233.5t-227.5 97.5q-134 0 -228 -97t-94 -234t94 -233.5t228 -96.5z" />
    <glyph glyph-name="yen" unicode="&#xa5;" horiz-adv-x="1166" 
d="M501 0v338h-405v110h405v181h-406v112h335l-425 747h139l431 -783l445 783h141l-442 -747h318v-112h-405v-181h404v-110h-404v-338h-131z" />
    <glyph glyph-name="brokenbar" unicode="&#xa6;" horiz-adv-x="775" 
d="M329 -200v702h120v-702h-120zM329 850v699h120v-699h-120z" />
    <glyph glyph-name="dieresis" unicode="&#xa8;" horiz-adv-x="769" 
d="M136 1266v177h136v-177h-136zM512 1266v177h137v-177h-137z" />
    <glyph glyph-name="copyright" unicode="&#xa9;" horiz-adv-x="1886" 
d="M930 174q-137 0 -247.5 69.5t-171.5 191t-61 272.5q0 154 60.5 274t173.5 188t262 68q174 0 308 -95l-24 -110q-44 41 -127 69.5t-163 28.5q-71 0 -131 -22.5t-101.5 -61.5t-70.5 -92.5t-42 -113.5t-13 -126q0 -93 23 -171t68 -137.5t118.5 -92.5t168.5 -33
q68 0 145.5 25t116.5 54l36 -102q-53 -32 -146 -57.5t-182 -25.5zM927 -24q105 0 204 28.5t187 87.5t154 142.5t104 202t38 257.5q0 140 -39.5 260.5t-107 205.5t-156.5 145.5t-190 89.5t-206 29q-103 0 -200 -28t-183.5 -87t-151 -142.5t-102 -203.5t-37.5 -262
q0 -118 27 -221.5t75 -182t112.5 -140.5t141.5 -101t160 -59.5t170 -20.5zM924 -116q-121 0 -235.5 32t-216.5 98.5t-178 161t-120.5 229.5t-44.5 293q0 160 44 295t119.5 229.5t176.5 161.5t214.5 98.5t234.5 31.5q122 0 238.5 -32.5t220 -100t181 -162.5t123 -229.5
t45.5 -291.5q0 -158 -45 -292t-122 -229t-179.5 -162t-218 -99t-237.5 -32z" />
    <glyph glyph-name="ordfeminine" unicode="&#xaa;" horiz-adv-x="830" 
d="M358 892q-53 0 -102.5 20t-86 66t-36.5 110q0 53 22.5 92t57.5 63t94 41.5t115 26t138 15.5v23q0 100 -30.5 149t-105.5 49q-60 0 -133 -19t-113 -47l-37 73q118 70 287 70q101 0 164.5 -60t63.5 -193v-344v-125h-61l-23 108q-28 -59 -85.5 -88.5t-128.5 -29.5zM363 968
h6q90 2 142 68.5t52 180.5v39q-34 -2 -52 -3.5t-58 -6.5t-65 -11.5t-58 -18.5t-51.5 -27t-32.5 -37.5t-14 -50.5v-3q3 -130 131 -130zM144 720v78h538v-78h-538z" />
    <glyph glyph-name="guillemotleft" unicode="&#xab;" horiz-adv-x="962" 
d="M391 157l-250 346l-34 50l287 406l114 -24l-271 -374l266 -379zM752 157l-292 416l294 386l95 -24l-252 -374l249 -379z" />
    <glyph glyph-name="logicalnot" unicode="&#xac;" horiz-adv-x="1197" 
d="M967 268v439h-868v110h977v-549h-109z" />
    <glyph glyph-name="uni00AD" unicode="&#xad;" horiz-adv-x="1038" 
d="M123 140v115h799v-115h-799z" />
    <glyph glyph-name="registered" unicode="&#xae;" horiz-adv-x="1865" 
d="M623 212v990h343q172 0 254 -69.5t82 -196.5q0 -45 -12.5 -85.5t-39 -78.5t-76 -63t-116.5 -31q19 -26 38 -55t48.5 -76t50.5 -81.5t71 -117t83 -136.5h-135q-193 332 -273 446h-206v-446h-112zM736 754h205q130 0 189.5 36.5t59.5 133.5q0 110 -56 146.5t-203 36.5h-195
v-353zM927 -24q105 0 204 28.5t187 87.5t154 142.5t104 202t38 257.5q0 140 -39.5 260.5t-107 205.5t-156.5 145.5t-190 89.5t-206 29q-103 0 -200 -28t-183.5 -87t-151 -142.5t-102 -203.5t-37.5 -262q0 -118 27 -221.5t75 -182t112.5 -140.5t141.5 -101t160 -59.5
t170 -20.5zM924 -116q-121 0 -235.5 32t-216.5 98.5t-178 161t-120.5 229.5t-44.5 293q0 160 44 295t119.5 229.5t176.5 161.5t214.5 98.5t234.5 31.5q122 0 238.5 -32.5t220 -100t181 -162.5t123 -229.5t45.5 -291.5q0 -158 -45 -292t-122 -229t-179.5 -162t-218 -99
t-237.5 -32z" />
    <glyph glyph-name="macron" unicode="&#xaf;" horiz-adv-x="1131" 
d="M256 1270v106h618v-106h-618z" />
    <glyph glyph-name="degree" unicode="&#xb0;" horiz-adv-x="844" 
d="M422.5 1011q52.5 0 98 23.5t76 75t30.5 121.5q0 71 -30.5 123t-76 76t-98.5 24t-98 -24t-75 -76t-30 -123q0 -70 30 -121.5t75.5 -75t98 -23.5zM418 932q-59 0 -113 19t-97.5 55t-69.5 94t-26 131t26.5 132t71 95t99 55.5t114 19.5t114 -19t98.5 -55.5t70.5 -95.5
t26.5 -132q0 -71 -27 -129.5t-71.5 -94.5t-100 -55.5t-115.5 -19.5z" />
    <glyph glyph-name="plusminus" unicode="&#xb1;" horiz-adv-x="1163" 
d="M526 215v439h-431v111h430v448h107v-448h435v-111h-432v-439h-109zM95 0v121h975v-121h-975z" />
    <glyph glyph-name="acute" unicode="&#xb4;" horiz-adv-x="648" 
d="M126 1287l194 387h154l-273 -387h-75z" />
    <glyph glyph-name="paragraph" unicode="&#xb6;" horiz-adv-x="1007" 
d="M494 0q-2 863 -3 863q-97 0 -176.5 29t-130 77.5t-77.5 108t-27 123.5q0 61 25 116t73.5 99.5t128.5 71t180 26.5h438v-97h-72v-1417h-92v1417h-173v-1417h-94z" />
    <glyph glyph-name="periodcentered" unicode="&#xb7;" horiz-adv-x="489" 
d="M169 610v162h150v-162h-150z" />
    <glyph glyph-name="cedilla" unicode="&#xb8;" horiz-adv-x="599" 
d="M138 -410l107 421h59l-37 -421h-129z" />
    <glyph glyph-name="uni00B9" unicode="&#xb9;" horiz-adv-x="656" 
d="M181 681v66h104v669q-29 -22 -114 -72v81q94 54 122 89h85v-767h107v-66h-304z" />
    <glyph glyph-name="guillemotright" unicode="&#xbb;" horiz-adv-x="941" 
d="M192 157l-95 25l252 380l-250 373l93 24l294 -412zM564 157l-109 25l266 380l-261 373l107 24l277 -412z" />
    <glyph glyph-name="onequarter" unicode="&#xbc;" horiz-adv-x="1553" 
d="M149 681v66h104v669q-29 -22 -114 -72v81q94 54 122 89h85v-767h107v-66h-304zM1270 0v218h-375v71l375 572h93v-561h92l8 -82h-100v-218h-93zM281 0l888 1514h93l-881 -1514h-100zM995 300h275q-1 385 0 427z" />
    <glyph glyph-name="onehalf" unicode="&#xbd;" horiz-adv-x="1493" 
d="M149 681v66h104v669q-29 -22 -114 -72v81q94 54 122 89h85v-767h107v-66h-304zM892 0v77q283 303 370 415t87 187q0 70 -47.5 111.5t-109.5 41.5q-58 0 -107 -28t-94 -100l-82 31q37 89 113.5 137t166.5 48q109 0 186 -67t77 -182q0 -44 -16.5 -89.5t-38 -82.5t-69 -92
t-83 -92.5t-107.5 -111t-117 -121.5h414l8 -82h-551zM270 0l888 1514h93l-881 -1514h-100z" />
    <glyph glyph-name="threequarters" unicode="&#xbe;" horiz-adv-x="1606" 
d="M359 625q-66 0 -129 20t-101 58l38 68q56 -43 98 -55.5t90 -12.5q64 0 113.5 45.5t49.5 114.5q0 172 -193 172h-89v74h80q80 0 127.5 38t43.5 124q-3 60 -44 98.5t-107 38.5q-44 0 -91.5 -15t-70.5 -35l-41 71q32 23 88.5 39t113.5 16q49 0 92.5 -11.5t79.5 -35.5t57 -66
t21 -98q0 -36 -9 -66t-19 -47.5t-32 -36t-34 -25.5t-39 -22q153 -43 153 -206q0 -116 -69.5 -180.5t-176.5 -64.5zM1340 0v218h-375v71l375 572h93v-561h92l8 -82h-100v-218h-93zM351 0l888 1514h93l-881 -1514h-100zM1065 300h275q-1 385 0 427z" />
    <glyph glyph-name="questiondown" unicode="&#xbf;" horiz-adv-x="794" 
d="M527 731q5 -54 -23.5 -130t-73 -156t-89.5 -162t-77 -170.5t-32 -160.5q1 -107 63.5 -171.5t163.5 -64.5q74 0 146 25.5t119 54.5l34 -96q-60 -42 -150 -66.5t-161 -24.5q-162 0 -255 98t-93 246q0 68 23 138t63 141t84.5 140.5t99 167t93.5 191.5h65zM478 1127
q50 0 75.5 -29t25.5 -68q0 -38 -25.5 -67t-75.5 -29q-51 0 -76 28.5t-25 67.5t25 68t76 29z" />
    <glyph glyph-name="Agrave" unicode="&#xc0;" horiz-adv-x="1276" 
d="M602 1616l-276 387h158l191 -387h-73zM6 0l581 1488h123l560 -1488h-132l-190 505h-617l-198 -505h-127zM380 599h522q-225 646 -255 760q-12 -44 -79 -234t-128 -358z" />
    <glyph glyph-name="Aacute" unicode="&#xc1;" horiz-adv-x="1276" 
d="M600 1616l194 387h154l-273 -387h-75zM6 0l581 1488h123l560 -1488h-132l-190 505h-617l-198 -505h-127zM380 599h522q-225 646 -255 760q-12 -44 -79 -234t-128 -358z" />
    <glyph glyph-name="Acircumflex" unicode="&#xc2;" horiz-adv-x="1276" 
d="M372 1616l168 359h192l171 -359h-91l-175 295l-176 -295h-89zM6 0l581 1488h123l560 -1488h-132l-190 505h-617l-198 -505h-127zM380 599h522q-225 646 -255 760q-12 -44 -79 -234t-128 -358z" />
    <glyph glyph-name="Atilde" unicode="&#xc3;" horiz-adv-x="1276" 
d="M353 1616q3 107 44.5 146.5t114.5 39.5q46 0 143 -48t121 -48q16 0 27 9t17 27t8 29t4 31h91q-4 -101 -39.5 -143.5t-101.5 -42.5q-44 0 -149.5 51.5t-128.5 51.5q-53 0 -61 -103h-90zM6 0l581 1488h123l560 -1488h-132l-190 505h-617l-198 -505h-127zM380 599h522
q-225 646 -255 760q-12 -44 -79 -234t-128 -358z" />
    <glyph glyph-name="Adieresis" unicode="&#xc4;" horiz-adv-x="1276" 
d="M382 1616v177h136v-177h-136zM758 1616v177h137v-177h-137zM6 0l581 1488h123l560 -1488h-132l-190 505h-617l-198 -505h-127zM380 599h522q-225 646 -255 760q-12 -44 -79 -234t-128 -358z" />
    <glyph glyph-name="Aring" unicode="&#xc5;" horiz-adv-x="1276" 
d="M640 1573q38 0 65.5 28t27.5 79q-1 50 -28.5 78.5t-65.5 28.5t-65.5 -28.5t-27.5 -79.5q0 -50 28 -78t66 -28zM641 1502q-75 0 -130.5 47.5t-55.5 130.5q0 84 54 131t129 47q74 0 128.5 -47.5t54.5 -130.5q0 -85 -53.5 -131.5t-126.5 -46.5zM6 0l581 1488h123l560 -1488
h-132l-190 505h-617l-198 -505h-127zM380 599h522q-225 646 -255 760q-12 -44 -79 -234t-128 -358z" />
    <glyph glyph-name="AE" unicode="&#xc6;" horiz-adv-x="1915" 
d="M6 0l886 1488h894l-7 -111h-719l41 -555h643v-109h-635l49 -602h643l-11 -111h-737l-39 505h-573l-293 -505h-142zM495 600h511l-56 778z" />
    <glyph glyph-name="Ccedilla" unicode="&#xc7;" horiz-adv-x="1286" 
d="M542 -430l107 421h59l-37 -421h-129zM813 -23q-171 0 -305 58.5t-218.5 162.5t-128 244t-43.5 307q0 222 81.5 393.5t243.5 271.5t383 100q243 0 414 -102l-61 -99q-156 94 -352 94q-137 0 -246 -51.5t-178.5 -142.5t-106 -211t-36.5 -260q0 -137 33.5 -253.5t101 -208
t179.5 -144t258 -52.5q157 0 350 87l26 -103q-146 -91 -395 -91z" />
    <glyph glyph-name="Egrave" unicode="&#xc8;" horiz-adv-x="1142" 
d="M568 1616l-276 387h158l191 -387h-73zM182 0v1488h829l-5 -106h-696v-560h662v-109h-662v-606h718l-11 -107h-835z" />
    <glyph glyph-name="Eacute" unicode="&#xc9;" horiz-adv-x="1142" 
d="M568 1616l194 387h154l-273 -387h-75zM182 0v1488h829l-5 -106h-696v-560h662v-109h-662v-606h718l-11 -107h-835z" />
    <glyph glyph-name="Ecircumflex" unicode="&#xca;" horiz-adv-x="1142" 
d="M340 1616l168 359h192l171 -359h-91l-175 295l-176 -295h-89zM182 0v1488h829l-5 -106h-696v-560h662v-109h-662v-606h718l-11 -107h-835z" />
    <glyph glyph-name="Edieresis" unicode="&#xcb;" horiz-adv-x="1142" 
d="M348 1616v177h136v-177h-136zM724 1616v177h137v-177h-137zM182 0v1488h829l-5 -106h-696v-560h662v-109h-662v-606h718l-11 -107h-835z" />
    <glyph glyph-name="Igrave" unicode="&#xcc;" horiz-adv-x="514" 
d="M220 1616l-276 387h158l191 -387h-73zM193 0v1488h128v-1488h-128z" />
    <glyph glyph-name="Iacute" unicode="&#xcd;" horiz-adv-x="514" 
d="M220 1616l194 387h154l-273 -387h-75zM193 0v1488h128v-1488h-128z" />
    <glyph glyph-name="Icircumflex" unicode="&#xce;" horiz-adv-x="514" 
d="M-8 1616l168 359h192l171 -359h-91l-175 295l-176 -295h-89zM193 0v1488h128v-1488h-128z" />
    <glyph glyph-name="Idieresis" unicode="&#xcf;" horiz-adv-x="514" 
d="M0 1616v177h136v-177h-136zM376 1616v177h137v-177h-137zM193 0v1488h128v-1488h-128z" />
    <glyph glyph-name="Eth" unicode="&#xd0;" horiz-adv-x="1498" 
d="M310 107h292q310 0 472.5 158.5t162.5 472.5q0 172 -45.5 297t-133.5 200.5t-208 111t-277 35.5h-263v-549h242v-96h-242v-630zM182 0v737h-142v96h142v655h403q182 0 325.5 -43t249.5 -131.5t163 -233t57 -337.5q0 -365 -201 -554t-563 -189h-434z" />
    <glyph glyph-name="Eth" unicode="&#x110;" horiz-adv-x="1498" 
d="M310 107h292q310 0 472.5 158.5t162.5 472.5q0 172 -45.5 297t-133.5 200.5t-208 111t-277 35.5h-263v-549h242v-96h-242v-630zM182 0v737h-142v96h142v655h403q182 0 325.5 -43t249.5 -131.5t163 -233t57 -337.5q0 -365 -201 -554t-563 -189h-434z" />
    <glyph glyph-name="Ntilde" unicode="&#xd1;" horiz-adv-x="1499" 
d="M464 1616q3 107 44.5 146.5t114.5 39.5q46 0 143 -48t121 -48q16 0 27 9t17 27t8 29t4 31h91q-4 -101 -39.5 -143.5t-101.5 -42.5q-44 0 -149.5 51.5t-128.5 51.5q-53 0 -61 -103h-90zM182 0v1488h149l819 -1255l53 -73q-7 308 -7 383v945h121v-1488h-152l-817 1253
l-51 73q8 -225 8 -388v-938h-123z" />
    <glyph glyph-name="Ograve" unicode="&#xd2;" horiz-adv-x="1627" 
d="M777 1616l-276 387h158l191 -387h-73zM815 82q184 0 309.5 84t184 230.5t58.5 348.5q0 316 -140 489t-411 173q-273 0 -415.5 -172.5t-142.5 -489.5q0 -307 141.5 -485t415.5 -178zM815 -23q-170 0 -303.5 56.5t-219 159t-130 242.5t-44.5 309q0 354 182.5 562t515.5 208
q327 0 510 -209.5t183 -561.5q0 -165 -45 -304.5t-130.5 -242.5t-218.5 -161t-300 -58z" />
    <glyph glyph-name="Oacute" unicode="&#xd3;" horiz-adv-x="1627" 
d="M776 1616l194 387h154l-273 -387h-75zM815 82q184 0 309.5 84t184 230.5t58.5 348.5q0 316 -140 489t-411 173q-273 0 -415.5 -172.5t-142.5 -489.5q0 -307 141.5 -485t415.5 -178zM815 -23q-170 0 -303.5 56.5t-219 159t-130 242.5t-44.5 309q0 354 182.5 562t515.5 208
q327 0 510 -209.5t183 -561.5q0 -165 -45 -304.5t-130.5 -242.5t-218.5 -161t-300 -58z" />
    <glyph glyph-name="Ocircumflex" unicode="&#xd4;" horiz-adv-x="1627" 
d="M548 1616l168 359h192l171 -359h-91l-175 295l-176 -295h-89zM815 82q184 0 309.5 84t184 230.5t58.5 348.5q0 316 -140 489t-411 173q-273 0 -415.5 -172.5t-142.5 -489.5q0 -307 141.5 -485t415.5 -178zM815 -23q-170 0 -303.5 56.5t-219 159t-130 242.5t-44.5 309
q0 354 182.5 562t515.5 208q327 0 510 -209.5t183 -561.5q0 -165 -45 -304.5t-130.5 -242.5t-218.5 -161t-300 -58z" />
    <glyph glyph-name="Otilde" unicode="&#xd5;" horiz-adv-x="1627" 
d="M528 1616q3 107 44.5 146.5t114.5 39.5q46 0 143 -48t121 -48q16 0 27 9t17 27t8 29t4 31h91q-4 -101 -39.5 -143.5t-101.5 -42.5q-44 0 -149.5 51.5t-128.5 51.5q-53 0 -61 -103h-90zM815 82q184 0 309.5 84t184 230.5t58.5 348.5q0 316 -140 489t-411 173
q-273 0 -415.5 -172.5t-142.5 -489.5q0 -307 141.5 -485t415.5 -178zM815 -23q-170 0 -303.5 56.5t-219 159t-130 242.5t-44.5 309q0 354 182.5 562t515.5 208q327 0 510 -209.5t183 -561.5q0 -165 -45 -304.5t-130.5 -242.5t-218.5 -161t-300 -58z" />
    <glyph glyph-name="Odieresis" unicode="&#xd6;" horiz-adv-x="1627" 
d="M557 1616v177h136v-177h-136zM933 1616v177h137v-177h-137zM815 82q184 0 309.5 84t184 230.5t58.5 348.5q0 316 -140 489t-411 173q-273 0 -415.5 -172.5t-142.5 -489.5q0 -307 141.5 -485t415.5 -178zM815 -23q-170 0 -303.5 56.5t-219 159t-130 242.5t-44.5 309
q0 354 182.5 562t515.5 208q327 0 510 -209.5t183 -561.5q0 -165 -45 -304.5t-130.5 -242.5t-218.5 -161t-300 -58z" />
    <glyph glyph-name="multiply" unicode="&#xd7;" horiz-adv-x="1101" 
d="M864 261l-307 308l-308 -307l-77 77l308 307l-307 308l77 77l307 -308l308 307l77 -77l-308 -307l307 -308z" />
    <glyph glyph-name="Oslash" unicode="&#xd8;" horiz-adv-x="1627" 
d="M480 -229l-89 37l96 236q-181 86 -275 268.5t-94 431.5q0 233 79.5 406t238 270t380.5 97q137 0 254 -40l93 229l94 -33l-96 -236q168 -90 258 -270t90 -424q0 -165 -45 -304.5t-130.5 -242.5t-218.5 -161t-300 -58q-131 0 -237 33zM530 150l499 1226q-97 34 -213 34
q-272 0 -415 -174t-143 -491q0 -212 68.5 -365.5t203.5 -229.5zM815 82q184 0 309.5 84t184 230.5t58.5 348.5q0 431 -249 587l-499 -1221q89 -29 196 -29z" />
    <glyph glyph-name="Ugrave" unicode="&#xd9;" horiz-adv-x="1408" 
d="M668 1616l-276 387h158l191 -387h-73zM699 -23q-144 0 -250 39t-169 112t-93 169.5t-30 219.5v971h128v-991q0 -213 105 -315.5t317 -102.5q416 0 416 419v990h128v-973q0 -98 -19.5 -179t-61.5 -148t-106 -113.5t-156.5 -72t-208.5 -25.5z" />
    <glyph glyph-name="Uacute" unicode="&#xda;" horiz-adv-x="1408" 
d="M666 1616l194 387h154l-273 -387h-75zM699 -23q-144 0 -250 39t-169 112t-93 169.5t-30 219.5v971h128v-991q0 -213 105 -315.5t317 -102.5q416 0 416 419v990h128v-973q0 -98 -19.5 -179t-61.5 -148t-106 -113.5t-156.5 -72t-208.5 -25.5z" />
    <glyph glyph-name="Ucircumflex" unicode="&#xdb;" horiz-adv-x="1408" 
d="M438 1616l168 359h192l171 -359h-91l-175 295l-176 -295h-89zM699 -23q-144 0 -250 39t-169 112t-93 169.5t-30 219.5v971h128v-991q0 -213 105 -315.5t317 -102.5q416 0 416 419v990h128v-973q0 -98 -19.5 -179t-61.5 -148t-106 -113.5t-156.5 -72t-208.5 -25.5z" />
    <glyph glyph-name="Udieresis" unicode="&#xdc;" horiz-adv-x="1408" 
d="M448 1616v177h136v-177h-136zM824 1616v177h137v-177h-137zM699 -23q-144 0 -250 39t-169 112t-93 169.5t-30 219.5v971h128v-991q0 -213 105 -315.5t317 -102.5q416 0 416 419v990h128v-973q0 -98 -19.5 -179t-61.5 -148t-106 -113.5t-156.5 -72t-208.5 -25.5z" />
    <glyph glyph-name="Yacute" unicode="&#xdd;" horiz-adv-x="1166" 
d="M546 1616l194 387h154l-273 -387h-75zM501 0v589l-496 899h139l431 -785l445 785h141l-529 -895v-593h-131z" />
    <glyph glyph-name="Thorn" unicode="&#xde;" horiz-adv-x="1275" 
d="M182 0v1488h128v-297h369q281 0 409 -95.5t128 -330.5q0 -71 -13.5 -130t-47.5 -112t-87 -89t-137 -57t-193 -21h-428v-356h-128zM310 458h434q79 0 139 16.5t98 44.5t61.5 69.5t33 86.5t9.5 100q0 109 -34.5 174.5t-121 100.5t-234.5 35h-385v-627z" />
    <glyph glyph-name="germandbls" unicode="&#xdf;" horiz-adv-x="1205" 
d="M123 0v1060q0 233 107 360.5t331 127.5q187 0 291 -93t104 -250q0 -48 -12.5 -87t-29.5 -65t-50.5 -53.5t-60 -43.5t-75 -44.5t-78.5 -47.5q41 -34 103 -74t112.5 -70.5t105.5 -72t92.5 -81.5t62 -96t24.5 -119q0 -351 -367 -351h-367l12 108h379q102 0 160.5 67.5
t58.5 171.5q0 49 -31 99t-87 96t-105.5 80t-116.5 75t-91 58q-9 6 -23.5 16.5t-21 15t-15.5 13t-13 14.5t-7 14t-3 18q0 59 64 99q25 16 67.5 40.5t64 37.5t50.5 35.5t43 43t24.5 50.5t10.5 66q0 105 -69 168t-200 63q-86 0 -148.5 -28.5t-98.5 -80t-52.5 -115.5t-16.5 -143
v-1082h-128z" />
    <glyph glyph-name="agrave" unicode="&#xe0;" horiz-adv-x="1077" 
d="M476 1218l-276 387h158l191 -387h-73zM440 -24q-155 0 -248 78t-93 223q0 86 37 149.5t107.5 103t161 61.5t210.5 31q128 8 190 13v122q0 126 -57.5 189.5t-184.5 63.5q-174 0 -325 -83q-4 10 -18.5 43.5t-20.5 51.5q62 40 162 67t196 27q197 0 283 -84.5t86 -299.5v-732
h-97q-5 23 -14.5 91t-9.5 70q-129 -185 -365 -185zM444 75q128 0 227.5 75.5t130.5 209.5v187q-144 -12 -145 -12q-244 -22 -339 -80t-95 -180q0 -100 60.5 -150t160.5 -50z" />
    <glyph glyph-name="aacute" unicode="&#xe1;" horiz-adv-x="1077" 
d="M475 1218l194 387h154l-273 -387h-75zM440 -24q-155 0 -248 78t-93 223q0 86 37 149.5t107.5 103t161 61.5t210.5 31q128 8 190 13v122q0 126 -57.5 189.5t-184.5 63.5q-174 0 -325 -83q-4 10 -18.5 43.5t-20.5 51.5q62 40 162 67t196 27q197 0 283 -84.5t86 -299.5v-732
h-97q-5 23 -14.5 91t-9.5 70q-129 -185 -365 -185zM444 75q128 0 227.5 75.5t130.5 209.5v187q-144 -12 -145 -12q-244 -22 -339 -80t-95 -180q0 -100 60.5 -150t160.5 -50z" />
    <glyph glyph-name="acircumflex" unicode="&#xe2;" horiz-adv-x="1077" 
d="M247 1218l168 359h192l171 -359h-91l-175 295l-176 -295h-89zM440 -24q-155 0 -248 78t-93 223q0 86 37 149.5t107.5 103t161 61.5t210.5 31q128 8 190 13v122q0 126 -57.5 189.5t-184.5 63.5q-174 0 -325 -83q-4 10 -18.5 43.5t-20.5 51.5q62 40 162 67t196 27
q197 0 283 -84.5t86 -299.5v-732h-97q-5 23 -14.5 91t-9.5 70q-129 -185 -365 -185zM444 75q128 0 227.5 75.5t130.5 209.5v187q-144 -12 -145 -12q-244 -22 -339 -80t-95 -180q0 -100 60.5 -150t160.5 -50z" />
    <glyph glyph-name="atilde" unicode="&#xe3;" horiz-adv-x="1077" 
d="M228 1218q3 107 44.5 146.5t114.5 39.5q46 0 143 -48t121 -48q16 0 27 9t17 27t8 29t4 31h91q-4 -101 -39.5 -143.5t-101.5 -42.5q-44 0 -149.5 51.5t-128.5 51.5q-53 0 -61 -103h-90zM440 -24q-155 0 -248 78t-93 223q0 86 37 149.5t107.5 103t161 61.5t210.5 31
q128 8 190 13v122q0 126 -57.5 189.5t-184.5 63.5q-174 0 -325 -83q-4 10 -18.5 43.5t-20.5 51.5q62 40 162 67t196 27q197 0 283 -84.5t86 -299.5v-732h-97q-5 23 -14.5 91t-9.5 70q-129 -185 -365 -185zM444 75q128 0 227.5 75.5t130.5 209.5v187q-144 -12 -145 -12
q-244 -22 -339 -80t-95 -180q0 -100 60.5 -150t160.5 -50z" />
    <glyph glyph-name="adieresis" unicode="&#xe4;" horiz-adv-x="1077" 
d="M256 1218v177h136v-177h-136zM632 1218v177h137v-177h-137zM440 -24q-155 0 -248 78t-93 223q0 86 37 149.5t107.5 103t161 61.5t210.5 31q128 8 190 13v122q0 126 -57.5 189.5t-184.5 63.5q-174 0 -325 -83q-4 10 -18.5 43.5t-20.5 51.5q62 40 162 67t196 27
q197 0 283 -84.5t86 -299.5v-732h-97q-5 23 -14.5 91t-9.5 70q-129 -185 -365 -185zM444 75q128 0 227.5 75.5t130.5 209.5v187q-144 -12 -145 -12q-244 -22 -339 -80t-95 -180q0 -100 60.5 -150t160.5 -50z" />
    <glyph glyph-name="aring" unicode="&#xe5;" horiz-adv-x="1077" 
d="M514 1289q38 0 65.5 28t27.5 79q-1 50 -28.5 78.5t-65.5 28.5t-65.5 -28.5t-27.5 -79.5q0 -50 28 -78t66 -28zM515 1218q-75 0 -130.5 47.5t-55.5 130.5q0 84 54 131t129 47q74 0 128.5 -47.5t54.5 -130.5q0 -85 -53.5 -131.5t-126.5 -46.5zM440 -24q-155 0 -248 78
t-93 223q0 86 37 149.5t107.5 103t161 61.5t210.5 31q128 8 190 13v122q0 126 -57.5 189.5t-184.5 63.5q-174 0 -325 -83q-4 10 -18.5 43.5t-20.5 51.5q62 40 162 67t196 27q197 0 283 -84.5t86 -299.5v-732h-97q-5 23 -14.5 91t-9.5 70q-129 -185 -365 -185zM444 75
q128 0 227.5 75.5t130.5 209.5v187q-144 -12 -145 -12q-244 -22 -339 -80t-95 -180q0 -100 60.5 -150t160.5 -50z" />
    <glyph glyph-name="ae" unicode="&#xe6;" horiz-adv-x="1650" 
d="M436 -24q-64 0 -120.5 15.5t-107 49t-80 97.5t-29.5 151q0 58 18 105t47.5 79t75 56t93 38t110.5 23t118 12.5t125 4.5h53v196q0 206 -189 206q-203 0 -361 -96l-43 106q57 37 169.5 67.5t211.5 30.5q47 0 96.5 -13t97 -39t79.5 -72t37 -104q36 82 97 134.5t126 73
t139 20.5q78 0 140 -27t100 -69.5t63 -98t34.5 -108.5t9.5 -106q0 -88 -57.5 -132.5t-195.5 -45.5q-369 -17 -424 -17h-4q7 -204 86.5 -321t239.5 -117q102 0 176 24.5t168 75.5l21 -100q-137 -99 -373 -99q-187 0 -303 119q-103 -52 -223.5 -85.5t-220.5 -33.5zM446 75
q150 0 376 90q-45 89 -64.5 167t-25.5 183q-131 0 -224.5 -12t-148.5 -31t-86 -50.5t-40.5 -63t-9.5 -76.5q0 -109 62 -158t161 -49zM868 607q405 12 425 14q83 6 107.5 25.5t24.5 66.5q0 139 -60 218.5t-169 79.5q-69 0 -125 -24t-92 -63t-61 -93t-36 -109t-14 -115z" />
    <glyph glyph-name="ccedilla" unicode="&#xe7;" horiz-adv-x="965" 
d="M353 -431l107 421h59l-37 -421h-129zM604 -24q-159 0 -276 78t-174 203.5t-57 279.5q0 118 34 222t96.5 184t161 126.5t219.5 46.5q79 0 157.5 -21t116.5 -50l-39 -93q-103 58 -244 58q-171 0 -271 -129.5t-100 -343.5q0 -205 99.5 -331.5t271.5 -126.5q120 0 258 60
l19 -89q-47 -35 -122 -54.5t-150 -19.5z" />
    <glyph glyph-name="egrave" unicode="&#xe8;" horiz-adv-x="1093" 
d="M508 1218l-276 387h158l191 -387h-73zM591 -24q-227 0 -360.5 152t-133.5 412q0 251 130.5 411t337.5 165q193 0 310 -138t117 -370q0 -9 -0.5 -36.5t-0.5 -38.5h-763q2 -211 102 -334.5t264 -123.5q107 0 186 25t165 71l21 -93q-166 -102 -375 -102zM233 633h624
q0 183 -79 280.5t-217 97.5q-140 0 -226 -104t-102 -274z" />
    <glyph glyph-name="eacute" unicode="&#xe9;" horiz-adv-x="1093" 
d="M507 1218l194 387h154l-273 -387h-75zM591 -24q-227 0 -360.5 152t-133.5 412q0 251 130.5 411t337.5 165q193 0 310 -138t117 -370q0 -9 -0.5 -36.5t-0.5 -38.5h-763q2 -211 102 -334.5t264 -123.5q107 0 186 25t165 71l21 -93q-166 -102 -375 -102zM233 633h624
q0 183 -79 280.5t-217 97.5q-140 0 -226 -104t-102 -274z" />
    <glyph glyph-name="ecircumflex" unicode="&#xea;" horiz-adv-x="1093" 
d="M279 1218l168 359h192l171 -359h-91l-175 295l-176 -295h-89zM591 -24q-227 0 -360.5 152t-133.5 412q0 251 130.5 411t337.5 165q193 0 310 -138t117 -370q0 -9 -0.5 -36.5t-0.5 -38.5h-763q2 -211 102 -334.5t264 -123.5q107 0 186 25t165 71l21 -93
q-166 -102 -375 -102zM233 633h624q0 183 -79 280.5t-217 97.5q-140 0 -226 -104t-102 -274z" />
    <glyph glyph-name="edieresis" unicode="&#xeb;" horiz-adv-x="1093" 
d="M288 1218v177h136v-177h-136zM664 1218v177h137v-177h-137zM591 -24q-227 0 -360.5 152t-133.5 412q0 251 130.5 411t337.5 165q193 0 310 -138t117 -370q0 -9 -0.5 -36.5t-0.5 -38.5h-763q2 -211 102 -334.5t264 -123.5q107 0 186 25t165 71l21 -93q-166 -102 -375 -102
zM233 633h624q0 183 -79 280.5t-217 97.5q-140 0 -226 -104t-102 -274z" />
    <glyph glyph-name="igrave" unicode="&#xec;" horiz-adv-x="376" 
d="M164 1218l-276 387h158l191 -387h-73zM138 0v1096h125v-1096h-125z" />
    <glyph glyph-name="iacute" unicode="&#xed;" horiz-adv-x="376" 
d="M163 1218l194 387h154l-273 -387h-75zM138 0v1096h125v-1096h-125z" />
    <glyph glyph-name="icircumflex" unicode="&#xee;" horiz-adv-x="376" 
d="M-65 1218l168 359h192l171 -359h-91l-175 295l-176 -295h-89zM138 0v1096h125v-1096h-125z" />
    <glyph glyph-name="idieresis" unicode="&#xef;" horiz-adv-x="376" 
d="M-56 1218v177h136v-177h-136zM320 1218v177h137v-177h-137zM138 0v1096h125v-1096h-125z" />
    <glyph glyph-name="eth" unicode="&#xf0;" horiz-adv-x="1194" 
d="M593 -28q-95 0 -176.5 28.5t-138.5 78t-97.5 115.5t-60 140t-19.5 153q0 216 133.5 349.5t351.5 133.5q50 0 95.5 -10t76 -22.5t67 -37t53.5 -39.5l51 -45q-46 84 -157.5 210.5t-217.5 225.5l-282 -119l-26 96l237 95l-251 222h158l189 -172l289 126l29 -92l-248 -109
q25 -26 66 -68.5t66 -68.5t62 -66t60 -69t52.5 -70.5t47.5 -77t38 -81.5t30.5 -90.5t17.5 -98t7 -110.5v-7q0 -106 -31 -198.5t-91 -165t-158 -114.5t-223 -42zM598 72q175 0 275 114.5t100 285.5q0 71 -25 140.5t-71.5 128t-120.5 95t-164 36.5q-110 0 -193.5 -55
t-125 -141t-41.5 -186q0 -78 22.5 -151t66 -133.5t115.5 -97t162 -36.5z" />
    <glyph glyph-name="ntilde" unicode="&#xf1;" horiz-adv-x="1152" 
d="M294 1218q3 107 44.5 146.5t114.5 39.5q46 0 143 -48t121 -48q16 0 27 9t17 27t8 29t4 31h91q-4 -101 -39.5 -143.5t-101.5 -42.5q-44 0 -149.5 51.5t-128.5 51.5q-53 0 -61 -103h-90zM147 0v1096h108l17 -169q59 88 158.5 138.5t214.5 50.5q189 0 278 -104t89 -332v-680
h-125v736q-5 146 -62 210t-187 64q-149 0 -243.5 -75t-118.5 -194q-4 -47 -4 -98v-643h-125z" />
    <glyph glyph-name="ograve" unicode="&#xf2;" horiz-adv-x="1190" 
d="M558 1218l-276 387h158l191 -387h-73zM601 75q120 0 202.5 63.5t120 167.5t37.5 239q0 212 -90 341t-274 129q-120 0 -204.5 -64.5t-123.5 -169t-39 -239.5q0 -205 95.5 -336t275.5 -131zM592 -24q-149 0 -262.5 75t-173 203.5t-59.5 290.5q0 122 34.5 226.5t98.5 181
t159 120t211 43.5q154 0 267 -75.5t169.5 -203t56.5 -290.5q0 -164 -58 -292t-173 -203.5t-270 -75.5z" />
    <glyph glyph-name="oacute" unicode="&#xf3;" horiz-adv-x="1190" 
d="M558 1218l194 387h154l-273 -387h-75zM601 75q120 0 202.5 63.5t120 167.5t37.5 239q0 212 -90 341t-274 129q-120 0 -204.5 -64.5t-123.5 -169t-39 -239.5q0 -205 95.5 -336t275.5 -131zM592 -24q-149 0 -262.5 75t-173 203.5t-59.5 290.5q0 122 34.5 226.5t98.5 181
t159 120t211 43.5q154 0 267 -75.5t169.5 -203t56.5 -290.5q0 -164 -58 -292t-173 -203.5t-270 -75.5z" />
    <glyph glyph-name="ocircumflex" unicode="&#xf4;" horiz-adv-x="1190" 
d="M330 1218l168 359h192l171 -359h-91l-175 295l-176 -295h-89zM601 75q120 0 202.5 63.5t120 167.5t37.5 239q0 212 -90 341t-274 129q-120 0 -204.5 -64.5t-123.5 -169t-39 -239.5q0 -205 95.5 -336t275.5 -131zM592 -24q-149 0 -262.5 75t-173 203.5t-59.5 290.5
q0 122 34.5 226.5t98.5 181t159 120t211 43.5q154 0 267 -75.5t169.5 -203t56.5 -290.5q0 -164 -58 -292t-173 -203.5t-270 -75.5z" />
    <glyph glyph-name="otilde" unicode="&#xf5;" horiz-adv-x="1190" 
d="M310 1218q3 107 44.5 146.5t114.5 39.5q46 0 143 -48t121 -48q16 0 27 9t17 27t8 29t4 31h91q-4 -101 -39.5 -143.5t-101.5 -42.5q-44 0 -149.5 51.5t-128.5 51.5q-53 0 -61 -103h-90zM601 75q120 0 202.5 63.5t120 167.5t37.5 239q0 212 -90 341t-274 129
q-120 0 -204.5 -64.5t-123.5 -169t-39 -239.5q0 -205 95.5 -336t275.5 -131zM592 -24q-149 0 -262.5 75t-173 203.5t-59.5 290.5q0 122 34.5 226.5t98.5 181t159 120t211 43.5q154 0 267 -75.5t169.5 -203t56.5 -290.5q0 -164 -58 -292t-173 -203.5t-270 -75.5z" />
    <glyph glyph-name="odieresis" unicode="&#xf6;" horiz-adv-x="1190" 
d="M338 1218v177h136v-177h-136zM714 1218v177h137v-177h-137zM601 75q120 0 202.5 63.5t120 167.5t37.5 239q0 212 -90 341t-274 129q-120 0 -204.5 -64.5t-123.5 -169t-39 -239.5q0 -205 95.5 -336t275.5 -131zM592 -24q-149 0 -262.5 75t-173 203.5t-59.5 290.5
q0 122 34.5 226.5t98.5 181t159 120t211 43.5q154 0 267 -75.5t169.5 -203t56.5 -290.5q0 -164 -58 -292t-173 -203.5t-270 -75.5z" />
    <glyph glyph-name="divide" unicode="&#xf7;" horiz-adv-x="1099" 
d="M446 82v202h191v-202h-191zM60 554v121h957v-121h-957zM446 913v202h191v-202h-191z" />
    <glyph glyph-name="oslash" unicode="&#xf8;" horiz-adv-x="1190" 
d="M284 -311l-64 28l131 321q-120 69 -187 203t-67 304q0 122 34.5 226.5t98.5 181t159 120t211 43.5q94 0 178 -30l132 324l69 -24l-135 -331q119 -68 184 -202.5t65 -305.5q0 -164 -58 -292t-173 -203.5t-270 -75.5q-94 0 -178 31zM392 139l347 851q-64 25 -142 25
q-120 0 -204.5 -64.5t-123.5 -169t-39 -239.5q0 -132 41 -238t121 -165zM601 75q120 0 202.5 63.5t120 167.5t37.5 239q0 295 -159 410l-348 -851q66 -29 147 -29z" />
    <glyph glyph-name="ugrave" unicode="&#xf9;" 
d="M512 1218l-276 387h158l191 -387h-73zM555 -27q-86 0 -159.5 19.5t-136.5 61t-99.5 117.5t-36.5 179v746h124v-749q0 -78 24 -132t69 -81.5t96 -38.5t119 -11q67 0 118 11.5t95 39.5t67.5 81.5t23.5 130.5v749h124v-746q0 -84 -24 -150t-64 -108t-96.5 -69.5t-116 -38.5
t-127.5 -11z" />
    <glyph glyph-name="uacute" unicode="&#xfa;" 
d="M510 1218l194 387h154l-273 -387h-75zM555 -27q-86 0 -159.5 19.5t-136.5 61t-99.5 117.5t-36.5 179v746h124v-749q0 -78 24 -132t69 -81.5t96 -38.5t119 -11q67 0 118 11.5t95 39.5t67.5 81.5t23.5 130.5v749h124v-746q0 -84 -24 -150t-64 -108t-96.5 -69.5t-116 -38.5
t-127.5 -11z" />
    <glyph glyph-name="ucircumflex" unicode="&#xfb;" 
d="M282 1218l168 359h192l171 -359h-91l-175 295l-176 -295h-89zM555 -27q-86 0 -159.5 19.5t-136.5 61t-99.5 117.5t-36.5 179v746h124v-749q0 -78 24 -132t69 -81.5t96 -38.5t119 -11q67 0 118 11.5t95 39.5t67.5 81.5t23.5 130.5v749h124v-746q0 -84 -24 -150t-64 -108
t-96.5 -69.5t-116 -38.5t-127.5 -11z" />
    <glyph glyph-name="udieresis" unicode="&#xfc;" 
d="M292 1218v177h136v-177h-136zM668 1218v177h137v-177h-137zM555 -27q-86 0 -159.5 19.5t-136.5 61t-99.5 117.5t-36.5 179v746h124v-749q0 -78 24 -132t69 -81.5t96 -38.5t119 -11q67 0 118 11.5t95 39.5t67.5 81.5t23.5 130.5v749h124v-746q0 -84 -24 -150t-64 -108
t-96.5 -69.5t-116 -38.5t-127.5 -11z" />
    <glyph glyph-name="yacute" unicode="&#xfd;" horiz-adv-x="981" 
d="M448 1218l194 387h154l-273 -387h-75zM98 -520q-42 0 -85 8l-9 102q3 0 29.5 -1.5t39.5 -1.5q126 0 189 43t112 168q6 17 31.5 86t39.5 109l-438 1103h130l373 -986l45 138q275 859 282 858q1 0 -1 -10h130q-438 -1231 -458 -1288q-69 -166 -162 -247t-248 -81z" />
    <glyph glyph-name="thorn" unicode="&#xfe;" horiz-adv-x="1175" 
d="M147 -488v2002h124v-607q40 79 129 143.5t211 65.5q222 0 344.5 -150t122.5 -406q0 -165 -49 -294.5t-153 -209t-251 -79.5q-67 0 -131.5 20t-126 68t-96.5 118v-662zM621 78q62 0 113.5 22.5t86.5 61.5t60.5 87.5t39.5 104.5t20.5 107.5t6.5 102.5q0 58 -9.5 115.5
t-34 119t-62.5 107.5t-100.5 75.5t-142.5 29.5q-86 0 -151.5 -37.5t-103 -102t-56 -141.5t-18.5 -166q0 -77 10.5 -145t36 -131.5t64.5 -109t100.5 -73t139.5 -27.5z" />
    <glyph glyph-name="ydieresis" unicode="&#xff;" horiz-adv-x="981" 
d="M228 1218v177h136v-177h-136zM604 1218v177h137v-177h-137zM98 -520q-42 0 -85 8l-9 102q3 0 29.5 -1.5t39.5 -1.5q126 0 189 43t112 168q6 17 31.5 86t39.5 109l-438 1103h130l373 -986l45 138q275 859 282 858q1 0 -1 -10h130q-438 -1231 -458 -1288
q-69 -166 -162 -247t-248 -81z" />
    <glyph glyph-name="Amacron" unicode="&#x100;" horiz-adv-x="1276" 
d="M328 1616v106h618v-106h-618zM6 0l581 1488h123l560 -1488h-132l-190 505h-617l-198 -505h-127zM380 599h522q-225 646 -255 760q-12 -44 -79 -234t-128 -358z" />
    <glyph glyph-name="amacron" unicode="&#x101;" horiz-adv-x="1077" 
d="M203 1218v106h618v-106h-618zM440 -24q-155 0 -248 78t-93 223q0 86 37 149.5t107.5 103t161 61.5t210.5 31q128 8 190 13v122q0 126 -57.5 189.5t-184.5 63.5q-174 0 -325 -83q-4 10 -18.5 43.5t-20.5 51.5q62 40 162 67t196 27q197 0 283 -84.5t86 -299.5v-732h-97
q-5 23 -14.5 91t-9.5 70q-129 -185 -365 -185zM444 75q128 0 227.5 75.5t130.5 209.5v187q-144 -12 -145 -12q-244 -22 -339 -80t-95 -180q0 -100 60.5 -150t160.5 -50z" />
    <glyph glyph-name="Abreve" unicode="&#x102;" horiz-adv-x="1276" 
d="M635 1616q-97 0 -163.5 66.5t-66.5 185.5h92q0 -87 35.5 -130.5t102.5 -43.5q66 0 103.5 44t37.5 130h94q0 -118 -68 -185t-167 -67zM6 0l581 1488h123l560 -1488h-132l-190 505h-617l-198 -505h-127zM380 599h522q-225 646 -255 760q-12 -44 -79 -234t-128 -358z" />
    <glyph glyph-name="abreve" unicode="&#x103;" horiz-adv-x="1077" 
d="M510 1218q-97 0 -163.5 66.5t-66.5 185.5h92q0 -87 35.5 -130.5t102.5 -43.5q66 0 103.5 44t37.5 130h94q0 -118 -68 -185t-167 -67zM440 -24q-155 0 -248 78t-93 223q0 86 37 149.5t107.5 103t161 61.5t210.5 31q128 8 190 13v122q0 126 -57.5 189.5t-184.5 63.5
q-174 0 -325 -83q-4 10 -18.5 43.5t-20.5 51.5q62 40 162 67t196 27q197 0 283 -84.5t86 -299.5v-732h-97q-5 23 -14.5 91t-9.5 70q-129 -185 -365 -185zM444 75q128 0 227.5 75.5t130.5 209.5v187q-144 -12 -145 -12q-244 -22 -339 -80t-95 -180q0 -100 60.5 -150
t160.5 -50z" />
    <glyph glyph-name="Aogonek" unicode="&#x104;" horiz-adv-x="1276" 
d="M634 -409q-82 0 -134.5 48.5t-52.5 130.5q0 127 191 244h117q-104 -79 -155 -131.5t-51 -100.5q0 -42 29.5 -66.5t61.5 -24.5q31 0 43.5 1t35 7.5t55.5 21.5v-101q-74 -29 -140 -29zM6 0l581 1488h123l560 -1488h-132l-190 505h-617l-198 -505h-127zM380 599h522
q-225 646 -255 760q-12 -44 -79 -234t-128 -358z" />
    <glyph glyph-name="aogonek" unicode="&#x105;" horiz-adv-x="1077" 
d="M509 -433q-82 0 -134.5 48.5t-52.5 130.5q0 127 191 244h117q-104 -79 -155 -131.5t-51 -100.5q0 -42 29.5 -66.5t61.5 -24.5q31 0 43.5 1t35 7.5t55.5 21.5v-101q-74 -29 -140 -29zM440 -24q-155 0 -248 78t-93 223q0 86 37 149.5t107.5 103t161 61.5t210.5 31
q128 8 190 13v122q0 126 -57.5 189.5t-184.5 63.5q-174 0 -325 -83q-4 10 -18.5 43.5t-20.5 51.5q62 40 162 67t196 27q197 0 283 -84.5t86 -299.5v-732h-97q-5 23 -14.5 91t-9.5 70q-129 -185 -365 -185zM444 75q128 0 227.5 75.5t130.5 209.5v187q-144 -12 -145 -12
q-244 -22 -339 -80t-95 -180q0 -100 60.5 -150t160.5 -50z" />
    <glyph glyph-name="Cacute" unicode="&#x106;" horiz-adv-x="1286" 
d="M642 1616l194 387h154l-273 -387h-75zM813 -23q-171 0 -305 58.5t-218.5 162.5t-128 244t-43.5 307q0 222 81.5 393.5t243.5 271.5t383 100q243 0 414 -102l-61 -99q-156 94 -352 94q-137 0 -246 -51.5t-178.5 -142.5t-106 -211t-36.5 -260q0 -137 33.5 -253.5t101 -208
t179.5 -144t258 -52.5q157 0 350 87l26 -103q-146 -91 -395 -91z" />
    <glyph glyph-name="cacute" unicode="&#x107;" horiz-adv-x="965" 
d="M452 1218l194 387h154l-273 -387h-75zM604 -24q-159 0 -276 78t-174 203.5t-57 279.5q0 118 34 222t96.5 184t161 126.5t219.5 46.5q79 0 157.5 -21t116.5 -50l-39 -93q-103 58 -244 58q-171 0 -271 -129.5t-100 -343.5q0 -205 99.5 -331.5t271.5 -126.5q120 0 258 60
l19 -89q-47 -35 -122 -54.5t-150 -19.5z" />
    <glyph glyph-name="Ccircumflex" unicode="&#x108;" horiz-adv-x="1286" 
d="M414 1616l168 359h192l171 -359h-91l-175 295l-176 -295h-89zM813 -23q-171 0 -305 58.5t-218.5 162.5t-128 244t-43.5 307q0 222 81.5 393.5t243.5 271.5t383 100q243 0 414 -102l-61 -99q-156 94 -352 94q-137 0 -246 -51.5t-178.5 -142.5t-106 -211t-36.5 -260
q0 -137 33.5 -253.5t101 -208t179.5 -144t258 -52.5q157 0 350 87l26 -103q-146 -91 -395 -91z" />
    <glyph glyph-name="ccircumflex" unicode="&#x109;" horiz-adv-x="965" 
d="M224 1218l168 359h192l171 -359h-91l-175 295l-176 -295h-89zM604 -24q-159 0 -276 78t-174 203.5t-57 279.5q0 118 34 222t96.5 184t161 126.5t219.5 46.5q79 0 157.5 -21t116.5 -50l-39 -93q-103 58 -244 58q-171 0 -271 -129.5t-100 -343.5q0 -205 99.5 -331.5
t271.5 -126.5q120 0 258 60l19 -89q-47 -35 -122 -54.5t-150 -19.5z" />
    <glyph glyph-name="Cdotaccent" unicode="&#x10a;" horiz-adv-x="1286" 
d="M602 1616v185h153v-185h-153zM813 -23q-171 0 -305 58.5t-218.5 162.5t-128 244t-43.5 307q0 222 81.5 393.5t243.5 271.5t383 100q243 0 414 -102l-61 -99q-156 94 -352 94q-137 0 -246 -51.5t-178.5 -142.5t-106 -211t-36.5 -260q0 -137 33.5 -253.5t101 -208
t179.5 -144t258 -52.5q157 0 350 87l26 -103q-146 -91 -395 -91z" />
    <glyph glyph-name="cdotaccent" unicode="&#x10b;" horiz-adv-x="965" 
d="M413 1218v185h153v-185h-153zM604 -24q-159 0 -276 78t-174 203.5t-57 279.5q0 118 34 222t96.5 184t161 126.5t219.5 46.5q79 0 157.5 -21t116.5 -50l-39 -93q-103 58 -244 58q-171 0 -271 -129.5t-100 -343.5q0 -205 99.5 -331.5t271.5 -126.5q120 0 258 60l19 -89
q-47 -35 -122 -54.5t-150 -19.5z" />
    <glyph glyph-name="Ccaron" unicode="&#x10c;" horiz-adv-x="1286" 
d="M585 1616l-171 359h91l175 -295l176 295h89l-168 -359h-192zM813 -23q-171 0 -305 58.5t-218.5 162.5t-128 244t-43.5 307q0 222 81.5 393.5t243.5 271.5t383 100q243 0 414 -102l-61 -99q-156 94 -352 94q-137 0 -246 -51.5t-178.5 -142.5t-106 -211t-36.5 -260
q0 -137 33.5 -253.5t101 -208t179.5 -144t258 -52.5q157 0 350 87l26 -103q-146 -91 -395 -91z" />
    <glyph glyph-name="ccaron" unicode="&#x10d;" horiz-adv-x="965" 
d="M395 1218l-171 359h91l175 -295l176 295h89l-168 -359h-192zM604 -24q-159 0 -276 78t-174 203.5t-57 279.5q0 118 34 222t96.5 184t161 126.5t219.5 46.5q79 0 157.5 -21t116.5 -50l-39 -93q-103 58 -244 58q-171 0 -271 -129.5t-100 -343.5q0 -205 99.5 -331.5
t271.5 -126.5q120 0 258 60l19 -89q-47 -35 -122 -54.5t-150 -19.5z" />
    <glyph glyph-name="Dcaron" unicode="&#x10e;" horiz-adv-x="1498" 
d="M687 1616l-171 359h91l175 -295l176 295h89l-168 -359h-192zM310 107h292q310 0 472.5 158.5t162.5 472.5q0 172 -45.5 297t-133.5 200.5t-208 111t-277 35.5h-263v-1275zM182 0v1488h403q182 0 325.5 -43t249.5 -131.5t163 -233t57 -337.5q0 -365 -201 -554t-563 -189
h-434z" />
    <glyph glyph-name="dcaron" unicode="&#x10f;" horiz-adv-x="1183" 
d="M1189 1082l138 450h136l-170 -450h-104zM561 -23q-219 0 -341.5 152t-122.5 420q0 252 126.5 409.5t333.5 157.5q102 0 204 -44t155 -137v33v553l120 11v-1532h-103l-18 165q-57 -93 -154.5 -140.5t-199.5 -47.5zM558 75q93 0 163 34t112 96t62.5 142.5t20.5 178.5
q0 489 -360 489q-85 0 -150 -40.5t-102.5 -109t-55.5 -149t-18 -169.5q0 -77 11 -144.5t36 -128.5t62 -104.5t93 -69t126 -25.5z" />
    <glyph glyph-name="dcroat" unicode="&#x111;" horiz-adv-x="1183" 
d="M659 1254v81h479v-81h-479zM561 -23q-219 0 -341.5 152t-122.5 420q0 252 126.5 409.5t333.5 157.5q102 0 204 -44t155 -137v33v553l120 11v-1532h-103l-18 165q-57 -93 -154.5 -140.5t-199.5 -47.5zM558 75q93 0 163 34t112 96t62.5 142.5t20.5 178.5q0 489 -360 489
q-85 0 -150 -40.5t-102.5 -109t-55.5 -149t-18 -169.5q0 -77 11 -144.5t36 -128.5t62 -104.5t93 -69t126 -25.5z" />
    <glyph glyph-name="Emacron" unicode="&#x112;" horiz-adv-x="1142" 
d="M296 1616v106h618v-106h-618zM182 0v1488h829l-5 -106h-696v-560h662v-109h-662v-606h718l-11 -107h-835z" />
    <glyph glyph-name="emacron" unicode="&#x113;" horiz-adv-x="1093" 
d="M235 1218v106h618v-106h-618zM591 -24q-227 0 -360.5 152t-133.5 412q0 251 130.5 411t337.5 165q193 0 310 -138t117 -370q0 -9 -0.5 -36.5t-0.5 -38.5h-763q2 -211 102 -334.5t264 -123.5q107 0 186 25t165 71l21 -93q-166 -102 -375 -102zM233 633h624
q0 183 -79 280.5t-217 97.5q-140 0 -226 -104t-102 -274z" />
    <glyph glyph-name="ebreve" unicode="&#x115;" horiz-adv-x="1093" 
d="M542 1218q-97 0 -163.5 66.5t-66.5 185.5h92q0 -87 35.5 -130.5t102.5 -43.5q66 0 103.5 44t37.5 130h94q0 -118 -68 -185t-167 -67zM591 -24q-227 0 -360.5 152t-133.5 412q0 251 130.5 411t337.5 165q193 0 310 -138t117 -370q0 -9 -0.5 -36.5t-0.5 -38.5h-763
q2 -211 102 -334.5t264 -123.5q107 0 186 25t165 71l21 -93q-166 -102 -375 -102zM233 633h624q0 183 -79 280.5t-217 97.5q-140 0 -226 -104t-102 -274z" />
    <glyph glyph-name="Edotaccent" unicode="&#x116;" horiz-adv-x="1142" 
d="M528 1616v185h153v-185h-153zM182 0v1488h829l-5 -106h-696v-560h662v-109h-662v-606h718l-11 -107h-835z" />
    <glyph glyph-name="edotaccent" unicode="&#x117;" horiz-adv-x="1093" 
d="M468 1218v185h153v-185h-153zM591 -24q-227 0 -360.5 152t-133.5 412q0 251 130.5 411t337.5 165q193 0 310 -138t117 -370q0 -9 -0.5 -36.5t-0.5 -38.5h-763q2 -211 102 -334.5t264 -123.5q107 0 186 25t165 71l21 -93q-166 -102 -375 -102zM233 633h624
q0 183 -79 280.5t-217 97.5q-140 0 -226 -104t-102 -274z" />
    <glyph glyph-name="Eogonek" unicode="&#x118;" horiz-adv-x="1142" 
d="M601 -409q-82 0 -134.5 48.5t-52.5 130.5q0 127 191 244h117q-104 -79 -155 -131.5t-51 -100.5q0 -42 29.5 -66.5t61.5 -24.5q31 0 43.5 1t35 7.5t55.5 21.5v-101q-74 -29 -140 -29zM182 0v1488h829l-5 -106h-696v-560h662v-109h-662v-606h718l-11 -107h-835z" />
    <glyph glyph-name="eogonek" unicode="&#x119;" horiz-adv-x="1093" 
d="M482 -433q-82 0 -134.5 48.5t-52.5 130.5q0 127 191 244h117q-104 -79 -155 -131.5t-51 -100.5q0 -42 29.5 -66.5t61.5 -24.5q31 0 43.5 1t35 7.5t55.5 21.5v-101q-74 -29 -140 -29zM591 -24q-227 0 -360.5 152t-133.5 412q0 251 130.5 411t337.5 165q193 0 310 -138
t117 -370q0 -9 -0.5 -36.5t-0.5 -38.5h-763q2 -211 102 -334.5t264 -123.5q107 0 186 25t165 71l21 -93q-166 -102 -375 -102zM233 633h624q0 183 -79 280.5t-217 97.5q-140 0 -226 -104t-102 -274z" />
    <glyph glyph-name="Ecaron" unicode="&#x11a;" horiz-adv-x="1142" 
d="M511 1616l-171 359h91l175 -295l176 295h89l-168 -359h-192zM182 0v1488h829l-5 -106h-696v-560h662v-109h-662v-606h718l-11 -107h-835z" />
    <glyph glyph-name="ecaron" unicode="&#x11b;" horiz-adv-x="1093" 
d="M450 1218l-171 359h91l175 -295l176 295h89l-168 -359h-192zM591 -24q-227 0 -360.5 152t-133.5 412q0 251 130.5 411t337.5 165q193 0 310 -138t117 -370q0 -9 -0.5 -36.5t-0.5 -38.5h-763q2 -211 102 -334.5t264 -123.5q107 0 186 25t165 71l21 -93
q-166 -102 -375 -102zM233 633h624q0 183 -79 280.5t-217 97.5q-140 0 -226 -104t-102 -274z" />
    <glyph glyph-name="Gcircumflex" unicode="&#x11c;" horiz-adv-x="1469" 
d="M458 1616l168 359h192l171 -359h-91l-175 295l-176 -295h-89zM821 -23q-136 0 -250.5 38.5t-197.5 107.5t-140.5 164.5t-86 210t-28.5 242.5q0 225 84 398.5t250.5 274.5t394.5 101q250 0 444 -115l-57 -103q-82 50 -185.5 80.5t-200.5 30.5q-146 0 -260.5 -52
t-185.5 -143.5t-107.5 -210.5t-36.5 -259q0 -149 37 -269t111 -207.5t190 -135t268 -47.5q157 0 346 75v476h-369l8 111h480v-656q-122 -63 -236.5 -87.5t-271.5 -24.5z" />
    <glyph glyph-name="gcircumflex" unicode="&#x11d;" horiz-adv-x="1173" 
d="M297 1218l168 359h192l171 -359h-91l-175 295l-176 -295h-89zM316 -509l-15 111h232q77 0 136 13.5t99.5 35t69 60t44.5 76.5t24.5 98.5t10.5 111t2 127.5q0 -11 -2 5l-5 69q-63 -95 -149 -146.5t-210 -51.5q-98 0 -178.5 35t-132 91t-86.5 128t-50 143.5t-15 141.5
q0 88 14.5 167.5t50.5 155.5t90 131.5t139 89t192 33.5q105 0 185.5 -41.5t149.5 -132.5l12 154h110v-1016q0 -66 -1.5 -106.5t-12 -110t-29 -114t-56.5 -98.5t-91.5 -85t-137 -53t-189.5 -22h-201zM569 101q73 0 132 23.5t97.5 62t65 90.5t37.5 107.5t11 114.5v114
q0 78 -19 147t-58.5 127.5t-108.5 92.5t-160 34q-74 0 -133.5 -28.5t-97.5 -75.5t-64 -110t-36.5 -128.5t-10.5 -134.5q0 -61 9.5 -118.5t34 -116.5t62.5 -102.5t99.5 -71t139.5 -27.5z" />
    <glyph glyph-name="Gbreve" unicode="&#x11e;" horiz-adv-x="1469" 
d="M721 1616q-97 0 -163.5 66.5t-66.5 185.5h92q0 -87 35.5 -130.5t102.5 -43.5q66 0 103.5 44t37.5 130h94q0 -118 -68 -185t-167 -67zM821 -23q-136 0 -250.5 38.5t-197.5 107.5t-140.5 164.5t-86 210t-28.5 242.5q0 225 84 398.5t250.5 274.5t394.5 101q250 0 444 -115
l-57 -103q-82 50 -185.5 80.5t-200.5 30.5q-146 0 -260.5 -52t-185.5 -143.5t-107.5 -210.5t-36.5 -259q0 -149 37 -269t111 -207.5t190 -135t268 -47.5q157 0 346 75v476h-369l8 111h480v-656q-122 -63 -236.5 -87.5t-271.5 -24.5z" />
    <glyph glyph-name="gbreve" unicode="&#x11f;" horiz-adv-x="1173" 
d="M560 1218q-97 0 -163.5 66.5t-66.5 185.5h92q0 -87 35.5 -130.5t102.5 -43.5q66 0 103.5 44t37.5 130h94q0 -118 -68 -185t-167 -67zM316 -509l-15 111h232q77 0 136 13.5t99.5 35t69 60t44.5 76.5t24.5 98.5t10.5 111t2 127.5q0 -11 -2 5l-5 69q-63 -95 -149 -146.5
t-210 -51.5q-98 0 -178.5 35t-132 91t-86.5 128t-50 143.5t-15 141.5q0 88 14.5 167.5t50.5 155.5t90 131.5t139 89t192 33.5q105 0 185.5 -41.5t149.5 -132.5l12 154h110v-1016q0 -66 -1.5 -106.5t-12 -110t-29 -114t-56.5 -98.5t-91.5 -85t-137 -53t-189.5 -22h-201z
M569 101q73 0 132 23.5t97.5 62t65 90.5t37.5 107.5t11 114.5v114q0 78 -19 147t-58.5 127.5t-108.5 92.5t-160 34q-74 0 -133.5 -28.5t-97.5 -75.5t-64 -110t-36.5 -128.5t-10.5 -134.5q0 -61 9.5 -118.5t34 -116.5t62.5 -102.5t99.5 -71t139.5 -27.5z" />
    <glyph glyph-name="Gdotaccent" unicode="&#x120;" horiz-adv-x="1469" 
d="M647 1616v185h153v-185h-153zM821 -23q-136 0 -250.5 38.5t-197.5 107.5t-140.5 164.5t-86 210t-28.5 242.5q0 225 84 398.5t250.5 274.5t394.5 101q250 0 444 -115l-57 -103q-82 50 -185.5 80.5t-200.5 30.5q-146 0 -260.5 -52t-185.5 -143.5t-107.5 -210.5t-36.5 -259
q0 -149 37 -269t111 -207.5t190 -135t268 -47.5q157 0 346 75v476h-369l8 111h480v-656q-122 -63 -236.5 -87.5t-271.5 -24.5z" />
    <glyph glyph-name="gdotaccent" unicode="&#x121;" horiz-adv-x="1173" 
d="M486 1218v185h153v-185h-153zM316 -509l-15 111h232q77 0 136 13.5t99.5 35t69 60t44.5 76.5t24.5 98.5t10.5 111t2 127.5q0 -11 -2 5l-5 69q-63 -95 -149 -146.5t-210 -51.5q-98 0 -178.5 35t-132 91t-86.5 128t-50 143.5t-15 141.5q0 88 14.5 167.5t50.5 155.5
t90 131.5t139 89t192 33.5q105 0 185.5 -41.5t149.5 -132.5l12 154h110v-1016q0 -66 -1.5 -106.5t-12 -110t-29 -114t-56.5 -98.5t-91.5 -85t-137 -53t-189.5 -22h-201zM569 101q73 0 132 23.5t97.5 62t65 90.5t37.5 107.5t11 114.5v114q0 78 -19 147t-58.5 127.5
t-108.5 92.5t-160 34q-74 0 -133.5 -28.5t-97.5 -75.5t-64 -110t-36.5 -128.5t-10.5 -134.5q0 -61 9.5 -118.5t34 -116.5t62.5 -102.5t99.5 -71t139.5 -27.5z" />
    <glyph glyph-name="uni0122" unicode="&#x122;" horiz-adv-x="1469" 
d="M604 -628h77l163 503h-141zM821 -23q-136 0 -250.5 38.5t-197.5 107.5t-140.5 164.5t-86 210t-28.5 242.5q0 225 84 398.5t250.5 274.5t394.5 101q250 0 444 -115l-57 -103q-82 50 -185.5 80.5t-200.5 30.5q-146 0 -260.5 -52t-185.5 -143.5t-107.5 -210.5t-36.5 -259
q0 -149 37 -269t111 -207.5t190 -135t268 -47.5q157 0 346 75v476h-369l8 111h480v-656q-122 -63 -236.5 -87.5t-271.5 -24.5z" />
    <glyph glyph-name="uni0123" unicode="&#x123;" horiz-adv-x="1150" 
d="M508 1275l165 487h98l-110 -487h-153zM316 -509l-15 111h232q77 0 136 13.5t99.5 35t69 60t44.5 76.5t24.5 98.5t10.5 111t2 127.5q0 -11 -2 5l-5 69q-63 -95 -149 -146.5t-210 -51.5q-98 0 -178.5 35t-132 91t-86.5 128t-50 143.5t-15 141.5q0 88 14.5 167.5t50.5 155.5
t90 131.5t139 89t192 33.5q105 0 185.5 -41.5t149.5 -132.5l12 154h110v-1016q0 -66 -1.5 -106.5t-12 -110t-29 -114t-56.5 -98.5t-91.5 -85t-137 -53t-189.5 -22h-201zM569 101q73 0 132 23.5t97.5 62t65 90.5t37.5 107.5t11 114.5v114q0 78 -19 147t-58.5 127.5
t-108.5 92.5t-160 34q-74 0 -133.5 -28.5t-97.5 -75.5t-64 -110t-36.5 -128.5t-10.5 -134.5q0 -61 9.5 -118.5t34 -116.5t62.5 -102.5t99.5 -71t139.5 -27.5z" />
    <glyph glyph-name="Hcircumflex" unicode="&#x124;" horiz-adv-x="1474" 
d="M472 1616l168 359h192l171 -359h-91l-175 295l-176 -295h-89zM182 0v1488h128v-658h854v658h128v-1488h-128v718h-854v-718h-128z" />
    <glyph glyph-name="hcircumflex" unicode="&#x125;" horiz-adv-x="1149" 
d="M312 1634l168 359h192l171 -359h-91l-175 295l-176 -295h-89zM147 0v1521l124 11v-523v-29t-0.5 -9t-1 -11l-1.5 -30q134 186 384 186q357 0 357 -431v-685h-123v661q0 185 -57 267.5t-201 82.5q-143 0 -238 -75.5t-117 -194.5q-2 -40 -2 -119v-622h-124z" />
    <glyph glyph-name="Hbar" unicode="&#x126;" horiz-adv-x="1450" 
d="M155 0v1125h-93v87h93v309h135v-309h872v309h135v-309h92v-87h-92v-1125h-135v721h-872v-721h-135zM290 845h872v280h-872v-280z" />
    <glyph glyph-name="hbar" unicode="&#x127;" horiz-adv-x="1077" 
d="M117 0v1300h-89v103h89v83l129 21v-104h266v-103h-266v-367q148 194 406 194q86 0 149 -35.5t98.5 -101t51.5 -146.5t16 -182v-662h-128v593q0 93 -5 156t-20 117t-41.5 84.5t-69 47.5t-103.5 17q-67 0 -131.5 -26t-110 -65.5t-76 -86t-36.5 -87.5v-750h-129z" />
    <glyph glyph-name="Itilde" unicode="&#x128;" horiz-adv-x="514" 
d="M-28 1616q3 107 44.5 146.5t114.5 39.5q46 0 143 -48t121 -48q16 0 27 9t17 27t8 29t4 31h91q-4 -101 -39.5 -143.5t-101.5 -42.5q-44 0 -149.5 51.5t-128.5 51.5q-53 0 -61 -103h-90zM193 0v1488h128v-1488h-128z" />
    <glyph glyph-name="itilde" unicode="&#x129;" horiz-adv-x="376" 
d="M-84 1218q3 107 44.5 146.5t114.5 39.5q46 0 143 -48t121 -48q16 0 27 9t17 27t8 29t4 31h91q-4 -101 -39.5 -143.5t-101.5 -42.5q-44 0 -149.5 51.5t-128.5 51.5q-53 0 -61 -103h-90zM138 0v1096h125v-1096h-125z" />
    <glyph glyph-name="Imacron" unicode="&#x12a;" horiz-adv-x="514" 
d="M-52 1616v106h618v-106h-618zM193 0v1488h128v-1488h-128z" />
    <glyph glyph-name="imacron" unicode="&#x12b;" horiz-adv-x="376" 
d="M-109 1218v106h618v-106h-618zM138 0v1096h125v-1096h-125z" />
    <glyph glyph-name="Ibreve" unicode="&#x12c;" horiz-adv-x="514" 
d="M255 1616q-97 0 -163.5 66.5t-66.5 185.5h92q0 -87 35.5 -130.5t102.5 -43.5q66 0 103.5 44t37.5 130h94q0 -118 -68 -185t-167 -67zM193 0v1488h128v-1488h-128z" />
    <glyph glyph-name="ibreve" unicode="&#x12d;" horiz-adv-x="376" 
d="M198 1218q-97 0 -163.5 66.5t-66.5 185.5h92q0 -87 35.5 -130.5t102.5 -43.5q66 0 103.5 44t37.5 130h94q0 -118 -68 -185t-167 -67zM138 0v1096h125v-1096h-125z" />
    <glyph glyph-name="Iogonek" unicode="&#x12e;" horiz-adv-x="514" 
d="M195 -409q-82 0 -134.5 48.5t-52.5 130.5q0 127 191 244h117q-104 -79 -155 -131.5t-51 -100.5q0 -42 29.5 -66.5t61.5 -24.5q31 0 43.5 1t35 7.5t55.5 21.5v-101q-74 -29 -140 -29zM193 0v1488h128v-1488h-128z" />
    <glyph glyph-name="iogonek" unicode="&#x12f;" horiz-adv-x="445" 
d="M169 -409q-82 0 -134.5 48.5t-52.5 130.5q0 127 191 244h117q-104 -79 -155 -131.5t-51 -100.5q0 -42 29.5 -66.5t61.5 -24.5q31 0 43.5 1t35 7.5t55.5 21.5v-101q-74 -29 -140 -29zM160 0v1096h125v-1096h-125zM160 1320v168h124v-168h-124z" />
    <glyph glyph-name="Idotaccent" unicode="&#x130;" horiz-adv-x="514" 
d="M180 1616v185h153v-185h-153zM193 0v1488h128v-1488h-128z" />
    <glyph glyph-name="dotlessi" unicode="&#x131;" horiz-adv-x="376" 
d="M138 0v1096h125v-1096h-125z" />
    <glyph glyph-name="IJ" unicode="&#x132;" horiz-adv-x="1026" 
d="M193 0v1488h128v-1488h-128zM515 -138l-21 92l60 3q32 0 58 5t45 11.5t33.5 20.5t24 25t16.5 32.5t10 35.5t5 41t2 42.5v45.5v1298h133v-1211q0 -63 -0.5 -94t-3.5 -80.5t-9.5 -72.5t-18 -58t-29.5 -50.5t-44.5 -36t-61.5 -29t-81.5 -14.5t-105.5 -6h-12z" />
    <glyph glyph-name="ij" unicode="&#x133;" horiz-adv-x="853" 
d="M160 0v1096h125v-1096h-125zM160 1320v168h124v-168h-124zM387 -550l-19 100h49q70 0 109 10.5t56.5 45t20.5 66t3 106.5v3v1315h125v-1343q0 -94 -12.5 -150t-47 -91.5t-89 -48.5t-146.5 -13h-49zM606 1321v167h125v-167h-125z" />
    <glyph glyph-name="Jcircumflex" unicode="&#x134;" horiz-adv-x="512" 
d="M-92 1616l168 359h192l171 -359h-91l-175 295l-176 -295h-89zM1 -138l-21 92l60 3q32 0 58 5t45 11.5t33.5 20.5t24 25t16.5 32.5t10 35.5t5 41t2 42.5v45.5v1298h133v-1211q0 -63 -0.5 -94t-3.5 -80.5t-9.5 -72.5t-18 -58t-29.5 -50.5t-44.5 -36t-61.5 -29t-81.5 -14.5
t-105.5 -6h-12z" />
    <glyph glyph-name="jcircumflex" unicode="&#x135;" horiz-adv-x="406" 
d="M-164 1218l168 359h192l171 -359h-91l-175 295l-176 -295h-89zM-63 -594l-29 121h59q32 0 56.5 3t44 7.5t33.5 15t23.5 18.5t16 27t9.5 31t4.5 39t2 43.5t0.5 51.5v1341h137v-1400q0 -93 -12 -147.5t-46.5 -90t-90 -48t-150.5 -12.5h-58z" />
    <glyph glyph-name="uni0136" unicode="&#x136;" horiz-adv-x="1224" 
d="M584 -605h77l163 503h-141zM182 0v1488h129v-769q44 49 116 128.5t224.5 248t253.5 280.5l101 112h169l-621 -671l672 -817h-163l-607 739l-145 -136v-603h-129z" />
    <glyph glyph-name="uni0137" unicode="&#x137;" horiz-adv-x="986" 
d="M442 -605h77l163 503h-141zM149 0v1522l123 10v-869v-95q9 11 64 71t62 68l379 389h167l-459 -458l491 -638h-157l-419 568l-128 -118v-450h-123z" />
    <glyph glyph-name="kgreenlandic" unicode="&#x138;" horiz-adv-x="986" 
d="M149 0v1096h123v-555q9 11 64 71t62 68l379 416h167l-459 -485l491 -611h-157l-419 541l-128 -118v-423h-123z" />
    <glyph glyph-name="Lacute" unicode="&#x139;" horiz-adv-x="998" 
d="M544 1616l194 387h154l-273 -387h-75zM182 0v1488h129v-1375h669l-6 -113h-792z" />
    <glyph glyph-name="lacute" unicode="&#x13a;" horiz-adv-x="581" 
d="M332 1634l194 387h154l-273 -387h-75zM423 -23q-138 0 -202 62.5t-64 203.5v1279l122 10v-1282q0 -100 36.5 -138t110.5 -38q60 0 150 23l5 -96q-98 -24 -158 -24z" />
    <glyph glyph-name="uni013B" unicode="&#x13b;" horiz-adv-x="998" 
d="M461 -605h77l163 503h-141zM182 0v1488h129v-1375h669l-6 -113h-792z" />
    <glyph glyph-name="uni013C" unicode="&#x13c;" horiz-adv-x="581" 
d="M249 -628h77l163 503h-141zM423 -23q-138 0 -202 62.5t-64 203.5v1279l122 10v-1282q0 -100 36.5 -138t110.5 -38q60 0 150 23l5 -96q-98 -24 -158 -24z" />
    <glyph glyph-name="Lcaron" unicode="&#x13d;" horiz-adv-x="998" 
d="M1133 1064l138 450h136l-170 -450h-104zM182 0v1488h129v-1375h669l-6 -113h-792z" />
    <glyph glyph-name="lcaron" unicode="&#x13e;" horiz-adv-x="581" 
d="M734 1082l138 450h136l-170 -450h-104zM423 -23q-138 0 -202 62.5t-64 203.5v1279l122 10v-1282q0 -100 36.5 -138t110.5 -38q60 0 150 23l5 -96q-98 -24 -158 -24z" />
    <glyph glyph-name="Ldot" unicode="&#x13f;" horiz-adv-x="998" 
d="M497 658h168v198h-168v-198zM182 0v1488h129v-1375h669l-6 -113h-792z" />
    <glyph glyph-name="ldot" unicode="&#x140;" horiz-adv-x="1045" 
d="M727 561h168v198h-168v-198zM423 -23q-138 0 -202 62.5t-64 203.5v1279l122 10v-1282q0 -100 36.5 -138t110.5 -38q60 0 150 23l5 -96q-98 -24 -158 -24z" />
    <glyph glyph-name="Lslash" unicode="&#x141;" horiz-adv-x="936" 
d="M156 0v618l-147 -73v124l147 75v774h135v-717l362 197v-136l-362 -190v-548h675l-11 -124h-799z" />
    <glyph glyph-name="lslash" unicode="&#x142;" horiz-adv-x="548" 
d="M395 -25q-37 0 -66.5 3t-53.5 12.5t-42 19t-32 30.5t-23.5 39t-16 53t-10 63t-5.5 79t-2.5 91.5t-0.5 108.5v19l-112 -99v120l112 99v874l129 20v-778l184 163v-122l-184 -162v-181v-75.5t1 -63.5t3 -55.5t5.5 -44.5t8.5 -37.5t13 -27.5t17.5 -22.5t23 -13.5t30 -9
t37.5 -2q23 0 153 12l15 -100q-109 -13 -184 -13z" />
    <glyph glyph-name="Nacute" unicode="&#x143;" horiz-adv-x="1499" 
d="M712 1616l194 387h154l-273 -387h-75zM182 0v1488h149l819 -1255l53 -73q-7 308 -7 383v945h121v-1488h-152l-817 1253l-51 73q8 -225 8 -388v-938h-123z" />
    <glyph glyph-name="nacute" unicode="&#x144;" horiz-adv-x="1152" 
d="M542 1218l194 387h154l-273 -387h-75zM147 0v1096h108l17 -169q59 88 158.5 138.5t214.5 50.5q189 0 278 -104t89 -332v-680h-125v736q-5 146 -62 210t-187 64q-149 0 -243.5 -75t-118.5 -194q-4 -47 -4 -98v-643h-125z" />
    <glyph glyph-name="uni0145" unicode="&#x145;" horiz-adv-x="1499" 
d="M630 -605h77l163 503h-141zM182 0v1488h149l819 -1255l53 -73q-7 308 -7 383v945h121v-1488h-152l-817 1253l-51 73q8 -225 8 -388v-938h-123z" />
    <glyph glyph-name="uni0146" unicode="&#x146;" horiz-adv-x="1152" 
d="M460 -605h77l163 503h-141zM147 0v1096h108l17 -169q59 88 158.5 138.5t214.5 50.5q189 0 278 -104t89 -332v-680h-125v736q-5 146 -62 210t-187 64q-149 0 -243.5 -75t-118.5 -194q-4 -47 -4 -98v-643h-125z" />
    <glyph glyph-name="Ncaron" unicode="&#x147;" horiz-adv-x="1499" 
d="M655 1616l-171 359h91l175 -295l176 295h89l-168 -359h-192zM182 0v1488h149l819 -1255l53 -73q-7 308 -7 383v945h121v-1488h-152l-817 1253l-51 73q8 -225 8 -388v-938h-123z" />
    <glyph glyph-name="ncaron" unicode="&#x148;" horiz-adv-x="1152" 
d="M485 1218l-171 359h91l175 -295l176 295h89l-168 -359h-192zM147 0v1096h108l17 -169q59 88 158.5 138.5t214.5 50.5q189 0 278 -104t89 -332v-680h-125v736q-5 146 -62 210t-187 64q-149 0 -243.5 -75t-118.5 -194q-4 -47 -4 -98v-643h-125z" />
    <glyph glyph-name="Omacron" unicode="&#x14c;" horiz-adv-x="1627" 
d="M504 1616v106h618v-106h-618zM815 82q184 0 309.5 84t184 230.5t58.5 348.5q0 316 -140 489t-411 173q-273 0 -415.5 -172.5t-142.5 -489.5q0 -307 141.5 -485t415.5 -178zM815 -23q-170 0 -303.5 56.5t-219 159t-130 242.5t-44.5 309q0 354 182.5 562t515.5 208
q327 0 510 -209.5t183 -561.5q0 -165 -45 -304.5t-130.5 -242.5t-218.5 -161t-300 -58z" />
    <glyph glyph-name="omacron" unicode="&#x14d;" horiz-adv-x="1190" 
d="M286 1218v106h618v-106h-618zM601 75q120 0 202.5 63.5t120 167.5t37.5 239q0 212 -90 341t-274 129q-120 0 -204.5 -64.5t-123.5 -169t-39 -239.5q0 -205 95.5 -336t275.5 -131zM592 -24q-149 0 -262.5 75t-173 203.5t-59.5 290.5q0 122 34.5 226.5t98.5 181t159 120
t211 43.5q154 0 267 -75.5t169.5 -203t56.5 -290.5q0 -164 -58 -292t-173 -203.5t-270 -75.5z" />
    <glyph glyph-name="Obreve" unicode="&#x14e;" horiz-adv-x="1627" 
d="M811 1616q-97 0 -163.5 66.5t-66.5 185.5h92q0 -87 35.5 -130.5t102.5 -43.5q66 0 103.5 44t37.5 130h94q0 -118 -68 -185t-167 -67zM815 82q184 0 309.5 84t184 230.5t58.5 348.5q0 316 -140 489t-411 173q-273 0 -415.5 -172.5t-142.5 -489.5q0 -307 141.5 -485
t415.5 -178zM815 -23q-170 0 -303.5 56.5t-219 159t-130 242.5t-44.5 309q0 354 182.5 562t515.5 208q327 0 510 -209.5t183 -561.5q0 -165 -45 -304.5t-130.5 -242.5t-218.5 -161t-300 -58z" />
    <glyph glyph-name="obreve" unicode="&#x14f;" horiz-adv-x="1190" 
d="M593 1218q-97 0 -163.5 66.5t-66.5 185.5h92q0 -87 35.5 -130.5t102.5 -43.5q66 0 103.5 44t37.5 130h94q0 -118 -68 -185t-167 -67zM601 75q120 0 202.5 63.5t120 167.5t37.5 239q0 212 -90 341t-274 129q-120 0 -204.5 -64.5t-123.5 -169t-39 -239.5q0 -205 95.5 -336
t275.5 -131zM592 -24q-149 0 -262.5 75t-173 203.5t-59.5 290.5q0 122 34.5 226.5t98.5 181t159 120t211 43.5q154 0 267 -75.5t169.5 -203t56.5 -290.5q0 -164 -58 -292t-173 -203.5t-270 -75.5z" />
    <glyph glyph-name="Ohungarumlaut" unicode="&#x150;" horiz-adv-x="1627" 
d="M671 1616l176 318h120l-213 -318h-83zM868 1616l182 318h115l-209 -318h-88zM815 82q184 0 309.5 84t184 230.5t58.5 348.5q0 316 -140 489t-411 173q-273 0 -415.5 -172.5t-142.5 -489.5q0 -307 141.5 -485t415.5 -178zM815 -23q-170 0 -303.5 56.5t-219 159t-130 242.5
t-44.5 309q0 354 182.5 562t515.5 208q327 0 510 -209.5t183 -561.5q0 -165 -45 -304.5t-130.5 -242.5t-218.5 -161t-300 -58z" />
    <glyph glyph-name="ohungarumlaut" unicode="&#x151;" horiz-adv-x="1190" 
d="M452 1218l176 318h120l-213 -318h-83zM649 1218l182 318h115l-209 -318h-88zM601 75q120 0 202.5 63.5t120 167.5t37.5 239q0 212 -90 341t-274 129q-120 0 -204.5 -64.5t-123.5 -169t-39 -239.5q0 -205 95.5 -336t275.5 -131zM592 -24q-149 0 -262.5 75t-173 203.5
t-59.5 290.5q0 122 34.5 226.5t98.5 181t159 120t211 43.5q154 0 267 -75.5t169.5 -203t56.5 -290.5q0 -164 -58 -292t-173 -203.5t-270 -75.5z" />
    <glyph glyph-name="OE" unicode="&#x152;" horiz-adv-x="1949" 
d="M817 -23q-177 0 -311.5 57t-219 164t-126.5 254.5t-42 332.5q0 164 51.5 301t141.5 230.5t216 145.5t272 52q108 0 198.5 -22t141.5 -57v53h674l-16 -106h-530v-560h491v-109h-491v-606h568l-14 -107h-682v60q-19 -23 -130.5 -53t-191.5 -30zM819 82q53 0 102.5 8.5
t79 16.5t64.5 25.5t43 22.5t31 20v1143q-136 89 -332 89q-254 0 -401.5 -165t-147.5 -471q0 -116 16 -213.5t56 -187t102.5 -152t161 -99.5t225.5 -37z" />
    <glyph glyph-name="oe" unicode="&#x153;" horiz-adv-x="1930" 
d="M586 -24q-149 0 -261 75t-170 203.5t-58 290.5q0 164 57.5 292t171.5 203.5t268 75.5q156 0 264 -76.5t162 -211.5q53 134 156 209.5t243 78.5q192 0 304.5 -137.5t112.5 -370.5q0 -9 -0.5 -36.5t-0.5 -38.5h-753q2 -211 102 -334.5t264 -123.5q48 0 88 5t79 19t58 21.5
t62 30t54 28.5l21 -101q-85 -52 -168.5 -77t-196.5 -25q-155 0 -264 75t-162 213q-55 -135 -165.5 -211.5t-267.5 -76.5zM595 75q90 0 159.5 36t112 100.5t63.5 148.5t21 185q0 103 -20.5 186.5t-62.5 148t-112.5 100t-164.5 35.5q-120 0 -203 -64.5t-120.5 -168.5
t-37.5 -240q0 -99 22 -182.5t66 -148t114.5 -100.5t162.5 -36zM1087 633h614v11q-2 179 -77 273t-209 94q-140 0 -226 -104t-102 -274z" />
    <glyph glyph-name="Racute" unicode="&#x154;" horiz-adv-x="1333" 
d="M670 1616l194 387h154l-273 -387h-75zM182 0v1488h424q81 0 140.5 -3t121.5 -13t105.5 -26.5t83 -44.5t63.5 -67.5t37.5 -94.5t13.5 -125q0 -137 -67 -235t-205 -133q60 -123 90 -187l244 -559h-149l-210 509q-21 50 -94 216q-20 -3 -148 -3l-322 6v-728h-128zM687 828
q199 0 278 69.5t79 214.5q0 130 -71.5 199.5t-243.5 69.5h-419v-550q235 -3 377 -3z" />
    <glyph glyph-name="racute" unicode="&#x155;" horiz-adv-x="715" 
d="M378 1218l194 387h154l-273 -387h-75zM149 0q-2 965 -2 1096h102l8 -216q59 98 150 160t190 62q41 0 88 -7l-9 -103q-36 6 -76 6q-139 0 -233.5 -109.5t-94.5 -259.5v-629h-123z" />
    <glyph glyph-name="uni0156" unicode="&#x156;" horiz-adv-x="1333" 
d="M588 -605h77l163 503h-141zM182 0v1488h424q81 0 140.5 -3t121.5 -13t105.5 -26.5t83 -44.5t63.5 -67.5t37.5 -94.5t13.5 -125q0 -137 -67 -235t-205 -133q60 -123 90 -187l244 -559h-149l-210 509q-21 50 -94 216q-20 -3 -148 -3l-322 6v-728h-128zM687 828
q199 0 278 69.5t79 214.5q0 130 -71.5 199.5t-243.5 69.5h-419v-550q235 -3 377 -3z" />
    <glyph glyph-name="uni0157" unicode="&#x157;" horiz-adv-x="715" 
d="M296 -605h77l163 503h-141zM149 0q-2 965 -2 1096h102l8 -216q59 98 150 160t190 62q41 0 88 -7l-9 -103q-36 6 -76 6q-139 0 -233.5 -109.5t-94.5 -259.5v-629h-123z" />
    <glyph glyph-name="Rcaron" unicode="&#x158;" horiz-adv-x="1333" 
d="M613 1616l-171 359h91l175 -295l176 295h89l-168 -359h-192zM182 0v1488h424q81 0 140.5 -3t121.5 -13t105.5 -26.5t83 -44.5t63.5 -67.5t37.5 -94.5t13.5 -125q0 -137 -67 -235t-205 -133q60 -123 90 -187l244 -559h-149l-210 509q-21 50 -94 216q-20 -3 -148 -3l-322 6
v-728h-128zM687 828q199 0 278 69.5t79 214.5q0 130 -71.5 199.5t-243.5 69.5h-419v-550q235 -3 377 -3z" />
    <glyph glyph-name="rcaron" unicode="&#x159;" horiz-adv-x="715" 
d="M321 1218l-171 359h91l175 -295l176 295h89l-168 -359h-192zM149 0q-2 965 -2 1096h102l8 -216q59 98 150 160t190 62q41 0 88 -7l-9 -103q-36 6 -76 6q-139 0 -233.5 -109.5t-94.5 -259.5v-629h-123z" />
    <glyph glyph-name="Sacute" unicode="&#x15a;" horiz-adv-x="1247" 
d="M590 1616l194 387h154l-273 -387h-75zM658 -23q-189 0 -334 40t-225 88l48 91q211 -114 522 -114q171 0 263.5 89t92.5 251q0 60 -11 101t-41 78.5t-87.5 63t-146.5 43.5l-240 48q-201 40 -301.5 126t-100.5 245q0 103 40 178.5t115.5 120.5t175 66.5t226.5 21.5
q126 0 246.5 -31t197.5 -70l-33 -98q-59 33 -174.5 62.5t-239.5 29.5q-211 0 -317 -70.5t-106 -222.5q0 -95 67 -152.5t198 -85.5l268 -55q100 -21 169.5 -50t123 -75t79.5 -114.5t26 -162.5q0 -210 -137.5 -326t-363.5 -116z" />
    <glyph glyph-name="sacute" unicode="&#x15b;" horiz-adv-x="944" 
d="M443 1218l194 387h154l-273 -387h-75zM467 -25q-106 0 -199 26t-147 62l18 104q165 -86 316 -86q271 0 281 201q0 84 -54.5 132t-218.5 100q-86 30 -95 33q-257 78 -259 277q0 115 101.5 203.5t274.5 88.5t325 -68l-42 -92q-154 58 -286 58q-116 0 -182.5 -52t-66.5 -140
q0 -74 43.5 -113.5t172.5 -75.5q14 -4 51.5 -18t41.5 -15q173 -53 241.5 -125.5t68.5 -197.5q-3 -144 -107.5 -223t-277.5 -79z" />
    <glyph glyph-name="scircumflex" unicode="&#x15d;" horiz-adv-x="944" 
d="M215 1218l168 359h192l171 -359h-91l-175 295l-176 -295h-89zM467 -25q-106 0 -199 26t-147 62l18 104q165 -86 316 -86q271 0 281 201q0 84 -54.5 132t-218.5 100q-86 30 -95 33q-257 78 -259 277q0 115 101.5 203.5t274.5 88.5t325 -68l-42 -92q-154 58 -286 58
q-116 0 -182.5 -52t-66.5 -140q0 -74 43.5 -113.5t172.5 -75.5q14 -4 51.5 -18t41.5 -15q173 -53 241.5 -125.5t68.5 -197.5q-3 -144 -107.5 -223t-277.5 -79z" />
    <glyph glyph-name="Scedilla" unicode="&#x15e;" horiz-adv-x="1247" 
d="M492 -430l107 421h59l-37 -421h-129zM658 -23q-189 0 -334 40t-225 88l48 91q211 -114 522 -114q171 0 263.5 89t92.5 251q0 60 -11 101t-41 78.5t-87.5 63t-146.5 43.5l-240 48q-201 40 -301.5 126t-100.5 245q0 103 40 178.5t115.5 120.5t175 66.5t226.5 21.5
q126 0 246.5 -31t197.5 -70l-33 -98q-59 33 -174.5 62.5t-239.5 29.5q-211 0 -317 -70.5t-106 -222.5q0 -95 67 -152.5t198 -85.5l268 -55q100 -21 169.5 -50t123 -75t79.5 -114.5t26 -162.5q0 -210 -137.5 -326t-363.5 -116z" />
    <glyph glyph-name="scedilla" unicode="&#x15f;" horiz-adv-x="944" 
d="M344 -432l107 421h59l-37 -421h-129zM467 -25q-106 0 -199 26t-147 62l18 104q165 -86 316 -86q271 0 281 201q0 84 -54.5 132t-218.5 100q-86 30 -95 33q-257 78 -259 277q0 115 101.5 203.5t274.5 88.5t325 -68l-42 -92q-154 58 -286 58q-116 0 -182.5 -52t-66.5 -140
q0 -74 43.5 -113.5t172.5 -75.5q14 -4 51.5 -18t41.5 -15q173 -53 241.5 -125.5t68.5 -197.5q-3 -144 -107.5 -223t-277.5 -79z" />
    <glyph glyph-name="Scaron" unicode="&#x160;" horiz-adv-x="1247" 
d="M533 1616l-171 359h91l175 -295l176 295h89l-168 -359h-192zM658 -23q-189 0 -334 40t-225 88l48 91q211 -114 522 -114q171 0 263.5 89t92.5 251q0 60 -11 101t-41 78.5t-87.5 63t-146.5 43.5l-240 48q-201 40 -301.5 126t-100.5 245q0 103 40 178.5t115.5 120.5
t175 66.5t226.5 21.5q126 0 246.5 -31t197.5 -70l-33 -98q-59 33 -174.5 62.5t-239.5 29.5q-211 0 -317 -70.5t-106 -222.5q0 -95 67 -152.5t198 -85.5l268 -55q100 -21 169.5 -50t123 -75t79.5 -114.5t26 -162.5q0 -210 -137.5 -326t-363.5 -116z" />
    <glyph glyph-name="scaron" unicode="&#x161;" horiz-adv-x="944" 
d="M386 1218l-171 359h91l175 -295l176 295h89l-168 -359h-192zM467 -25q-106 0 -199 26t-147 62l18 104q165 -86 316 -86q271 0 281 201q0 84 -54.5 132t-218.5 100q-86 30 -95 33q-257 78 -259 277q0 115 101.5 203.5t274.5 88.5t325 -68l-42 -92q-154 58 -286 58
q-116 0 -182.5 -52t-66.5 -140q0 -74 43.5 -113.5t172.5 -75.5q14 -4 51.5 -18t41.5 -15q173 -53 241.5 -125.5t68.5 -197.5q-3 -144 -107.5 -223t-277.5 -79z" />
    <glyph glyph-name="Tcaron" unicode="&#x164;" horiz-adv-x="1082" 
d="M447 1616l-171 359h91l175 -295l176 295h89l-168 -359h-192zM476 0v1378h-468v110h1066v-110h-468v-1378h-130z" />
    <glyph glyph-name="tcaron" unicode="&#x165;" horiz-adv-x="676" 
d="M796 901l138 450h136l-170 -450h-104zM456 -23q-138 0 -202 62.5t-64 203.5v762h-155l9 75l148 14l33 251l87 6v-255h320v-91h-320v-736q0 -116 38 -155.5t134 -39.5q62 0 154 23l5 -96q-121 -24 -187 -24z" />
    <glyph glyph-name="Utilde" unicode="&#x168;" horiz-adv-x="1408" 
d="M419 1616q3 107 44.5 146.5t114.5 39.5q46 0 143 -48t121 -48q16 0 27 9t17 27t8 29t4 31h91q-4 -101 -39.5 -143.5t-101.5 -42.5q-44 0 -149.5 51.5t-128.5 51.5q-53 0 -61 -103h-90zM699 -23q-144 0 -250 39t-169 112t-93 169.5t-30 219.5v971h128v-991
q0 -213 105 -315.5t317 -102.5q416 0 416 419v990h128v-973q0 -98 -19.5 -179t-61.5 -148t-106 -113.5t-156.5 -72t-208.5 -25.5z" />
    <glyph glyph-name="utilde" unicode="&#x169;" 
d="M263 1218q3 107 44.5 146.5t114.5 39.5q46 0 143 -48t121 -48q16 0 27 9t17 27t8 29t4 31h91q-4 -101 -39.5 -143.5t-101.5 -42.5q-44 0 -149.5 51.5t-128.5 51.5q-53 0 -61 -103h-90zM555 -27q-86 0 -159.5 19.5t-136.5 61t-99.5 117.5t-36.5 179v746h124v-749
q0 -78 24 -132t69 -81.5t96 -38.5t119 -11q67 0 118 11.5t95 39.5t67.5 81.5t23.5 130.5v749h124v-746q0 -84 -24 -150t-64 -108t-96.5 -69.5t-116 -38.5t-127.5 -11z" />
    <glyph glyph-name="Umacron" unicode="&#x16a;" horiz-adv-x="1408" 
d="M394 1616v106h618v-106h-618zM699 -23q-144 0 -250 39t-169 112t-93 169.5t-30 219.5v971h128v-991q0 -213 105 -315.5t317 -102.5q416 0 416 419v990h128v-973q0 -98 -19.5 -179t-61.5 -148t-106 -113.5t-156.5 -72t-208.5 -25.5z" />
    <glyph glyph-name="umacron" unicode="&#x16b;" 
d="M238 1218v106h618v-106h-618zM555 -27q-86 0 -159.5 19.5t-136.5 61t-99.5 117.5t-36.5 179v746h124v-749q0 -78 24 -132t69 -81.5t96 -38.5t119 -11q67 0 118 11.5t95 39.5t67.5 81.5t23.5 130.5v749h124v-746q0 -84 -24 -150t-64 -108t-96.5 -69.5t-116 -38.5
t-127.5 -11z" />
    <glyph glyph-name="Ubreve" unicode="&#x16c;" horiz-adv-x="1408" 
d="M701 1616q-97 0 -163.5 66.5t-66.5 185.5h92q0 -87 35.5 -130.5t102.5 -43.5q66 0 103.5 44t37.5 130h94q0 -118 -68 -185t-167 -67zM699 -23q-144 0 -250 39t-169 112t-93 169.5t-30 219.5v971h128v-991q0 -213 105 -315.5t317 -102.5q416 0 416 419v990h128v-973
q0 -98 -19.5 -179t-61.5 -148t-106 -113.5t-156.5 -72t-208.5 -25.5z" />
    <glyph glyph-name="ubreve" unicode="&#x16d;" 
d="M545 1218q-97 0 -163.5 66.5t-66.5 185.5h92q0 -87 35.5 -130.5t102.5 -43.5q66 0 103.5 44t37.5 130h94q0 -118 -68 -185t-167 -67zM555 -27q-86 0 -159.5 19.5t-136.5 61t-99.5 117.5t-36.5 179v746h124v-749q0 -78 24 -132t69 -81.5t96 -38.5t119 -11q67 0 118 11.5
t95 39.5t67.5 81.5t23.5 130.5v749h124v-746q0 -84 -24 -150t-64 -108t-96.5 -69.5t-116 -38.5t-127.5 -11z" />
    <glyph glyph-name="Uring" unicode="&#x16e;" horiz-adv-x="1408" 
d="M706 1687q38 0 65.5 28t27.5 79q-1 50 -28.5 78.5t-65.5 28.5t-65.5 -28.5t-27.5 -79.5q0 -50 28 -78t66 -28zM707 1616q-75 0 -130.5 47.5t-55.5 130.5q0 84 54 131t129 47q74 0 128.5 -47.5t54.5 -130.5q0 -85 -53.5 -131.5t-126.5 -46.5zM699 -23q-144 0 -250 39
t-169 112t-93 169.5t-30 219.5v971h128v-991q0 -213 105 -315.5t317 -102.5q416 0 416 419v990h128v-973q0 -98 -19.5 -179t-61.5 -148t-106 -113.5t-156.5 -72t-208.5 -25.5z" />
    <glyph glyph-name="uring" unicode="&#x16f;" 
d="M550 1289q38 0 65.5 28t27.5 79q-1 50 -28.5 78.5t-65.5 28.5t-65.5 -28.5t-27.5 -79.5q0 -50 28 -78t66 -28zM551 1218q-75 0 -130.5 47.5t-55.5 130.5q0 84 54 131t129 47q74 0 128.5 -47.5t54.5 -130.5q0 -85 -53.5 -131.5t-126.5 -46.5zM555 -27q-86 0 -159.5 19.5
t-136.5 61t-99.5 117.5t-36.5 179v746h124v-749q0 -78 24 -132t69 -81.5t96 -38.5t119 -11q67 0 118 11.5t95 39.5t67.5 81.5t23.5 130.5v749h124v-746q0 -84 -24 -150t-64 -108t-96.5 -69.5t-116 -38.5t-127.5 -11z" />
    <glyph glyph-name="Uhungarumlaut" unicode="&#x170;" horiz-adv-x="1408" 
d="M562 1616l176 318h120l-213 -318h-83zM759 1616l182 318h115l-209 -318h-88zM699 -23q-144 0 -250 39t-169 112t-93 169.5t-30 219.5v971h128v-991q0 -213 105 -315.5t317 -102.5q416 0 416 419v990h128v-973q0 -98 -19.5 -179t-61.5 -148t-106 -113.5t-156.5 -72
t-208.5 -25.5z" />
    <glyph glyph-name="uhungarumlaut" unicode="&#x171;" 
d="M406 1218l176 318h120l-213 -318h-83zM603 1218l182 318h115l-209 -318h-88zM555 -27q-86 0 -159.5 19.5t-136.5 61t-99.5 117.5t-36.5 179v746h124v-749q0 -78 24 -132t69 -81.5t96 -38.5t119 -11q67 0 118 11.5t95 39.5t67.5 81.5t23.5 130.5v749h124v-746
q0 -84 -24 -150t-64 -108t-96.5 -69.5t-116 -38.5t-127.5 -11z" />
    <glyph glyph-name="Uogonek" unicode="&#x172;" horiz-adv-x="1408" 
d="M641 -432q-82 0 -134.5 48.5t-52.5 130.5q0 127 191 244h117q-104 -79 -155 -131.5t-51 -100.5q0 -42 29.5 -66.5t61.5 -24.5q31 0 43.5 1t35 7.5t55.5 21.5v-101q-74 -29 -140 -29zM699 -23q-144 0 -250 39t-169 112t-93 169.5t-30 219.5v971h128v-991
q0 -213 105 -315.5t317 -102.5q416 0 416 419v990h128v-973q0 -98 -19.5 -179t-61.5 -148t-106 -113.5t-156.5 -72t-208.5 -25.5z" />
    <glyph glyph-name="uogonek" unicode="&#x173;" 
d="M544 -436q-82 0 -134.5 48.5t-52.5 130.5q0 127 191 244h117q-104 -79 -155 -131.5t-51 -100.5q0 -42 29.5 -66.5t61.5 -24.5q31 0 43.5 1t35 7.5t55.5 21.5v-101q-74 -29 -140 -29zM555 -27q-86 0 -159.5 19.5t-136.5 61t-99.5 117.5t-36.5 179v746h124v-749
q0 -78 24 -132t69 -81.5t96 -38.5t119 -11q67 0 118 11.5t95 39.5t67.5 81.5t23.5 130.5v749h124v-746q0 -84 -24 -150t-64 -108t-96.5 -69.5t-116 -38.5t-127.5 -11z" />
    <glyph glyph-name="Ydieresis" unicode="&#x178;" horiz-adv-x="1166" 
d="M326 1616v177h136v-177h-136zM702 1616v177h137v-177h-137zM501 0v589l-496 899h139l431 -785l445 785h141l-529 -895v-593h-131z" />
    <glyph glyph-name="Zacute" unicode="&#x179;" horiz-adv-x="1173" 
d="M560 1616l194 387h154l-273 -387h-75zM97 0v111l826 1265h-796v112h964v-104l-832 -1271h840l-8 -113h-994z" />
    <glyph glyph-name="zacute" unicode="&#x17a;" horiz-adv-x="882" 
d="M415 1218l194 387h154l-273 -387h-75zM89 0v104l579 893h-569v99h699v-117l-581 -886h599v-93h-727z" />
    <glyph glyph-name="Zdotaccent" unicode="&#x17b;" horiz-adv-x="1173" 
d="M522 1616v185h153v-185h-153zM97 0v111l826 1265h-796v112h964v-104l-832 -1271h840l-8 -113h-994z" />
    <glyph glyph-name="zdotaccent" unicode="&#x17c;" horiz-adv-x="882" 
d="M376 1218v185h153v-185h-153zM89 0v104l579 893h-569v99h699v-117l-581 -886h599v-93h-727z" />
    <glyph glyph-name="Zcaron" unicode="&#x17d;" horiz-adv-x="1173" 
d="M503 1616l-171 359h91l175 -295l176 295h89l-168 -359h-192zM97 0v111l826 1265h-796v112h964v-104l-832 -1271h840l-8 -113h-994z" />
    <glyph glyph-name="zcaron" unicode="&#x17e;" horiz-adv-x="882" 
d="M358 1218l-171 359h91l175 -295l176 295h89l-168 -359h-192zM89 0v104l579 893h-569v99h699v-117l-581 -886h599v-93h-727z" />
    <glyph glyph-name="florin" unicode="&#x192;" horiz-adv-x="943" 
d="M101 -359q-49 0 -90 24l23 88q29 -13 62 -13q106 0 154 249q3 16 43 257.5t78.5 475l38.5 233.5h-168l9 91h181l28 185q12 79 29 135t49 110.5t85.5 83t128.5 28.5q49 0 113 -20l-7 -97q-51 20 -94 20q-71 0 -114 -56t-57 -148l-37 -241h203l-10 -90h-211l-145 -872
q-10 -60 -17.5 -99.5t-18.5 -86.5t-22.5 -77t-27.5 -62.5t-35 -51.5t-44.5 -35.5t-57 -23.5t-69.5 -7z" />
    <glyph glyph-name="uni01C4" unicode="&#x1c4;" horiz-adv-x="2671" 
d="M310 107h292q310 0 472.5 158.5t162.5 472.5q0 172 -45.5 297t-133.5 200.5t-208 111t-277 35.5h-263v-1275zM182 0v1488h403q182 0 325.5 -43t249.5 -131.5t163 -233t57 -337.5q0 -365 -201 -554t-563 -189h-434zM2001 1616l-171 359h91l175 -295l176 295h89l-168 -359
h-192zM1595 0v111l826 1265h-796v112h964v-104l-832 -1271h840l-8 -113h-994z" />
    <glyph glyph-name="uni01C5" unicode="&#x1c5;" horiz-adv-x="2380" 
d="M310 107h292q310 0 472.5 158.5t162.5 472.5q0 172 -45.5 297t-133.5 200.5t-208 111t-277 35.5h-263v-1275zM182 0v1488h403q182 0 325.5 -43t249.5 -131.5t163 -233t57 -337.5q0 -365 -201 -554t-563 -189h-434zM1856 1218l-171 359h91l175 -295l176 295h89l-168 -359
h-192zM1587 0v104l579 893h-569v99h699v-117l-581 -886h599v-93h-727z" />
    <glyph glyph-name="uni01C6" unicode="&#x1c6;" horiz-adv-x="2065" 
d="M561 -23q-219 0 -341.5 152t-122.5 420q0 252 126.5 409.5t333.5 157.5q102 0 204 -44t155 -137v33v553l120 11v-1532h-103l-18 165q-57 -93 -154.5 -140.5t-199.5 -47.5zM558 75q93 0 163 34t112 96t62.5 142.5t20.5 178.5q0 489 -360 489q-85 0 -150 -40.5t-102.5 -109
t-55.5 -149t-18 -169.5q0 -77 11 -144.5t36 -128.5t62 -104.5t93 -69t126 -25.5zM1541 1218l-171 359h91l175 -295l176 295h89l-168 -359h-192zM1272 0v104l579 893h-569v99h699v-117l-581 -886h599v-93h-727z" />
    <glyph glyph-name="uni01C7" unicode="&#x1c7;" horiz-adv-x="1510" 
d="M182 0v1488h129v-1375h669l-6 -113h-792zM999 -138l-21 92l60 3q32 0 58 5t45 11.5t33.5 20.5t24 25t16.5 32.5t10 35.5t5 41t2 42.5v45.5v1298h133v-1211q0 -63 -0.5 -94t-3.5 -80.5t-9.5 -72.5t-18 -58t-29.5 -50.5t-44.5 -36t-61.5 -29t-81.5 -14.5t-105.5 -6h-12z
" />
    <glyph glyph-name="uni01C8" unicode="&#x1c8;" horiz-adv-x="1406" 
d="M182 0v1488h129v-1375h669l-6 -113h-792zM940 -550l-19 100h49q70 0 109 10.5t56.5 45t20.5 66t3 106.5v3v1315h125v-1343q0 -94 -12.5 -150t-47 -91.5t-89 -48.5t-146.5 -13h-49zM1159 1321v167h125v-167h-125z" />
    <glyph glyph-name="uni01C9" unicode="&#x1c9;" horiz-adv-x="936" 
d="M423 -23q-138 0 -202 62.5t-64 203.5v1279l122 10v-1282q0 -100 36.5 -138t110.5 -38q60 0 150 23l5 -96q-98 -24 -158 -24zM470 -550l-19 100h49q70 0 109 10.5t56.5 45t20.5 66t3 106.5v3v1315h125v-1343q0 -94 -12.5 -150t-47 -91.5t-89 -48.5t-146.5 -13h-49z
M689 1321v167h125v-167h-125z" />
    <glyph glyph-name="uni01CA" unicode="&#x1ca;" horiz-adv-x="2011" 
d="M182 0v1488h149l819 -1255l53 -73q-7 308 -7 383v945h121v-1488h-152l-817 1253l-51 73q8 -225 8 -388v-938h-123zM1500 -138l-21 92l60 3q32 0 58 5t45 11.5t33.5 20.5t24 25t16.5 32.5t10 35.5t5 41t2 42.5v45.5v1298h133v-1211q0 -63 -0.5 -94t-3.5 -80.5t-9.5 -72.5
t-18 -58t-29.5 -50.5t-44.5 -36t-61.5 -29t-81.5 -14.5t-105.5 -6h-12z" />
    <glyph glyph-name="uni01CB" unicode="&#x1cb;" horiz-adv-x="1907" 
d="M182 0v1488h149l819 -1255l53 -73q-7 308 -7 383v945h121v-1488h-152l-817 1253l-51 73q8 -225 8 -388v-938h-123zM1441 -550l-19 100h49q70 0 109 10.5t56.5 45t20.5 66t3 106.5v3v1315h125v-1343q0 -94 -12.5 -150t-47 -91.5t-89 -48.5t-146.5 -13h-49zM1660 1321v167
h125v-167h-125z" />
    <glyph glyph-name="uni01CC" unicode="&#x1cc;" horiz-adv-x="1560" 
d="M147 0v1096h108l17 -169q59 88 158.5 138.5t214.5 50.5q189 0 278 -104t89 -332v-680h-125v736q-5 146 -62 210t-187 64q-149 0 -243.5 -75t-118.5 -194q-4 -47 -4 -98v-643h-125zM1094 -550l-19 100h49q70 0 109 10.5t56.5 45t20.5 66t3 106.5v3v1315h125v-1343
q0 -94 -12.5 -150t-47 -91.5t-89 -48.5t-146.5 -13h-49zM1313 1321v167h125v-167h-125z" />
    <glyph glyph-name="uni01F1" unicode="&#x1f1;" horiz-adv-x="2671" 
d="M310 107h292q310 0 472.5 158.5t162.5 472.5q0 172 -45.5 297t-133.5 200.5t-208 111t-277 35.5h-263v-1275zM182 0v1488h403q182 0 325.5 -43t249.5 -131.5t163 -233t57 -337.5q0 -365 -201 -554t-563 -189h-434zM1595 0v111l826 1265h-796v112h964v-104l-832 -1271h840
l-8 -113h-994z" />
    <glyph glyph-name="uni01F2" unicode="&#x1f2;" horiz-adv-x="2380" 
d="M310 107h292q310 0 472.5 158.5t162.5 472.5q0 172 -45.5 297t-133.5 200.5t-208 111t-277 35.5h-263v-1275zM182 0v1488h403q182 0 325.5 -43t249.5 -131.5t163 -233t57 -337.5q0 -365 -201 -554t-563 -189h-434zM1587 0v104l579 893h-569v99h699v-117l-581 -886h599
v-93h-727z" />
    <glyph glyph-name="uni01F3" unicode="&#x1f3;" horiz-adv-x="2065" 
d="M561 -23q-219 0 -341.5 152t-122.5 420q0 252 126.5 409.5t333.5 157.5q102 0 204 -44t155 -137v33v553l120 11v-1532h-103l-18 165q-57 -93 -154.5 -140.5t-199.5 -47.5zM558 75q93 0 163 34t112 96t62.5 142.5t20.5 178.5q0 489 -360 489q-85 0 -150 -40.5t-102.5 -109
t-55.5 -149t-18 -169.5q0 -77 11 -144.5t36 -128.5t62 -104.5t93 -69t126 -25.5zM1272 0v104l579 893h-569v99h699v-117l-581 -886h599v-93h-727z" />
    <glyph glyph-name="uni01F4" unicode="&#x1f4;" horiz-adv-x="1469" 
d="M686 1616l194 387h154l-273 -387h-75zM821 -23q-136 0 -250.5 38.5t-197.5 107.5t-140.5 164.5t-86 210t-28.5 242.5q0 225 84 398.5t250.5 274.5t394.5 101q250 0 444 -115l-57 -103q-82 50 -185.5 80.5t-200.5 30.5q-146 0 -260.5 -52t-185.5 -143.5t-107.5 -210.5
t-36.5 -259q0 -149 37 -269t111 -207.5t190 -135t268 -47.5q157 0 346 75v476h-369l8 111h480v-656q-122 -63 -236.5 -87.5t-271.5 -24.5z" />
    <glyph glyph-name="uni01F5" unicode="&#x1f5;" horiz-adv-x="1173" 
d="M525 1218l194 387h154l-273 -387h-75zM316 -509l-15 111h232q77 0 136 13.5t99.5 35t69 60t44.5 76.5t24.5 98.5t10.5 111t2 127.5q0 -11 -2 5l-5 69q-63 -95 -149 -146.5t-210 -51.5q-98 0 -178.5 35t-132 91t-86.5 128t-50 143.5t-15 141.5q0 88 14.5 167.5t50.5 155.5
t90 131.5t139 89t192 33.5q105 0 185.5 -41.5t149.5 -132.5l12 154h110v-1016q0 -66 -1.5 -106.5t-12 -110t-29 -114t-56.5 -98.5t-91.5 -85t-137 -53t-189.5 -22h-201zM569 101q73 0 132 23.5t97.5 62t65 90.5t37.5 107.5t11 114.5v114q0 78 -19 147t-58.5 127.5
t-108.5 92.5t-160 34q-74 0 -133.5 -28.5t-97.5 -75.5t-64 -110t-36.5 -128.5t-10.5 -134.5q0 -61 9.5 -118.5t34 -116.5t62.5 -102.5t99.5 -71t139.5 -27.5z" />
    <glyph glyph-name="uni0200" unicode="&#x200;" horiz-adv-x="1276" 
d="M495 1616l-221 333h93l198 -333h-70zM719 1616l-224 333h102l184 -333h-62zM6 0l581 1488h123l560 -1488h-132l-190 505h-617l-198 -505h-127zM380 599h522q-225 646 -255 760q-12 -44 -79 -234t-128 -358z" />
    <glyph glyph-name="uni0201" unicode="&#x201;" horiz-adv-x="1077" 
d="M369 1218l-221 333h93l198 -333h-70zM593 1218l-224 333h102l184 -333h-62zM440 -24q-155 0 -248 78t-93 223q0 86 37 149.5t107.5 103t161 61.5t210.5 31q128 8 190 13v122q0 126 -57.5 189.5t-184.5 63.5q-174 0 -325 -83q-4 10 -18.5 43.5t-20.5 51.5q62 40 162 67
t196 27q197 0 283 -84.5t86 -299.5v-732h-97q-5 23 -14.5 91t-9.5 70q-129 -185 -365 -185zM444 75q128 0 227.5 75.5t130.5 209.5v187q-144 -12 -145 -12q-244 -22 -339 -80t-95 -180q0 -100 60.5 -150t160.5 -50z" />
    <glyph glyph-name="uni0202" unicode="&#x202;" horiz-adv-x="1276" 
d="M405 1616q0 74 34.5 128t85.5 79t111 25q61 0 113 -25t86.5 -79t34.5 -128h-94q0 68 -41.5 106.5t-98 38.5t-98 -38.5t-41.5 -106.5h-92zM6 0l581 1488h123l560 -1488h-132l-190 505h-617l-198 -505h-127zM380 599h522q-225 646 -255 760q-12 -44 -79 -234t-128 -358z
" />
    <glyph glyph-name="uni0203" unicode="&#x203;" horiz-adv-x="1077" 
d="M280 1218q0 74 34.5 128t85.5 79t111 25q61 0 113 -25t86.5 -79t34.5 -128h-94q0 68 -41.5 106.5t-98 38.5t-98 -38.5t-41.5 -106.5h-92zM440 -24q-155 0 -248 78t-93 223q0 86 37 149.5t107.5 103t161 61.5t210.5 31q128 8 190 13v122q0 126 -57.5 189.5t-184.5 63.5
q-174 0 -325 -83q-4 10 -18.5 43.5t-20.5 51.5q62 40 162 67t196 27q197 0 283 -84.5t86 -299.5v-732h-97q-5 23 -14.5 91t-9.5 70q-129 -185 -365 -185zM444 75q128 0 227.5 75.5t130.5 209.5v187q-144 -12 -145 -12q-244 -22 -339 -80t-95 -180q0 -100 60.5 -150
t160.5 -50z" />
    <glyph glyph-name="uni0204" unicode="&#x204;" horiz-adv-x="1142" 
d="M462 1616l-221 333h93l198 -333h-70zM686 1616l-224 333h102l184 -333h-62zM182 0v1488h829l-5 -106h-696v-560h662v-109h-662v-606h718l-11 -107h-835z" />
    <glyph glyph-name="uni0205" unicode="&#x205;" horiz-adv-x="1093" 
d="M401 1218l-221 333h93l198 -333h-70zM625 1218l-224 333h102l184 -333h-62zM591 -24q-227 0 -360.5 152t-133.5 412q0 251 130.5 411t337.5 165q193 0 310 -138t117 -370q0 -9 -0.5 -36.5t-0.5 -38.5h-763q2 -211 102 -334.5t264 -123.5q107 0 186 25t165 71l21 -93
q-166 -102 -375 -102zM233 633h624q0 183 -79 280.5t-217 97.5q-140 0 -226 -104t-102 -274z" />
    <glyph glyph-name="uni0206" unicode="&#x206;" horiz-adv-x="1142" 
d="M373 1616q0 74 34.5 128t85.5 79t111 25q61 0 113 -25t86.5 -79t34.5 -128h-94q0 68 -41.5 106.5t-98 38.5t-98 -38.5t-41.5 -106.5h-92zM182 0v1488h829l-5 -106h-696v-560h662v-109h-662v-606h718l-11 -107h-835z" />
    <glyph glyph-name="uni0207" unicode="&#x207;" horiz-adv-x="1093" 
d="M312 1218q0 74 34.5 128t85.5 79t111 25q61 0 113 -25t86.5 -79t34.5 -128h-94q0 68 -41.5 106.5t-98 38.5t-98 -38.5t-41.5 -106.5h-92zM591 -24q-227 0 -360.5 152t-133.5 412q0 251 130.5 411t337.5 165q193 0 310 -138t117 -370q0 -9 -0.5 -36.5t-0.5 -38.5h-763
q2 -211 102 -334.5t264 -123.5q107 0 186 25t165 71l21 -93q-166 -102 -375 -102zM233 633h624q0 183 -79 280.5t-217 97.5q-140 0 -226 -104t-102 -274z" />
    <glyph glyph-name="uni0208" unicode="&#x208;" horiz-adv-x="514" 
d="M114 1616l-221 333h93l198 -333h-70zM338 1616l-224 333h102l184 -333h-62zM193 0v1488h128v-1488h-128z" />
    <glyph glyph-name="uni0209" unicode="&#x209;" horiz-adv-x="376" 
d="M57 1218l-221 333h93l198 -333h-70zM281 1218l-224 333h102l184 -333h-62zM138 0v1096h125v-1096h-125z" />
    <glyph glyph-name="uni020A" unicode="&#x20a;" horiz-adv-x="514" 
d="M25 1616q0 74 34.5 128t85.5 79t111 25q61 0 113 -25t86.5 -79t34.5 -128h-94q0 68 -41.5 106.5t-98 38.5t-98 -38.5t-41.5 -106.5h-92zM193 0v1488h128v-1488h-128z" />
    <glyph glyph-name="uni020B" unicode="&#x20b;" horiz-adv-x="376" 
d="M-32 1218q0 74 34.5 128t85.5 79t111 25q61 0 113 -25t86.5 -79t34.5 -128h-94q0 68 -41.5 106.5t-98 38.5t-98 -38.5t-41.5 -106.5h-92zM138 0v1096h125v-1096h-125z" />
    <glyph glyph-name="uni020C" unicode="&#x20c;" horiz-adv-x="1627" 
d="M671 1616l-221 333h93l198 -333h-70zM895 1616l-224 333h102l184 -333h-62zM815 82q184 0 309.5 84t184 230.5t58.5 348.5q0 316 -140 489t-411 173q-273 0 -415.5 -172.5t-142.5 -489.5q0 -307 141.5 -485t415.5 -178zM815 -23q-170 0 -303.5 56.5t-219 159t-130 242.5
t-44.5 309q0 354 182.5 562t515.5 208q327 0 510 -209.5t183 -561.5q0 -165 -45 -304.5t-130.5 -242.5t-218.5 -161t-300 -58z" />
    <glyph glyph-name="uni020D" unicode="&#x20d;" horiz-adv-x="1190" 
d="M452 1218l-221 333h93l198 -333h-70zM676 1218l-224 333h102l184 -333h-62zM601 75q120 0 202.5 63.5t120 167.5t37.5 239q0 212 -90 341t-274 129q-120 0 -204.5 -64.5t-123.5 -169t-39 -239.5q0 -205 95.5 -336t275.5 -131zM592 -24q-149 0 -262.5 75t-173 203.5
t-59.5 290.5q0 122 34.5 226.5t98.5 181t159 120t211 43.5q154 0 267 -75.5t169.5 -203t56.5 -290.5q0 -164 -58 -292t-173 -203.5t-270 -75.5z" />
    <glyph glyph-name="uni020E" unicode="&#x20e;" horiz-adv-x="1627" 
d="M581 1616q0 74 34.5 128t85.5 79t111 25q61 0 113 -25t86.5 -79t34.5 -128h-94q0 68 -41.5 106.5t-98 38.5t-98 -38.5t-41.5 -106.5h-92zM815 82q184 0 309.5 84t184 230.5t58.5 348.5q0 316 -140 489t-411 173q-273 0 -415.5 -172.5t-142.5 -489.5q0 -307 141.5 -485
t415.5 -178zM815 -23q-170 0 -303.5 56.5t-219 159t-130 242.5t-44.5 309q0 354 182.5 562t515.5 208q327 0 510 -209.5t183 -561.5q0 -165 -45 -304.5t-130.5 -242.5t-218.5 -161t-300 -58z" />
    <glyph glyph-name="uni020F" unicode="&#x20f;" horiz-adv-x="1190" 
d="M363 1218q0 74 34.5 128t85.5 79t111 25q61 0 113 -25t86.5 -79t34.5 -128h-94q0 68 -41.5 106.5t-98 38.5t-98 -38.5t-41.5 -106.5h-92zM601 75q120 0 202.5 63.5t120 167.5t37.5 239q0 212 -90 341t-274 129q-120 0 -204.5 -64.5t-123.5 -169t-39 -239.5
q0 -205 95.5 -336t275.5 -131zM592 -24q-149 0 -262.5 75t-173 203.5t-59.5 290.5q0 122 34.5 226.5t98.5 181t159 120t211 43.5q154 0 267 -75.5t169.5 -203t56.5 -290.5q0 -164 -58 -292t-173 -203.5t-270 -75.5z" />
    <glyph glyph-name="uni0210" unicode="&#x210;" horiz-adv-x="1333" 
d="M565 1616l-221 333h93l198 -333h-70zM789 1616l-224 333h102l184 -333h-62zM182 0v1488h424q81 0 140.5 -3t121.5 -13t105.5 -26.5t83 -44.5t63.5 -67.5t37.5 -94.5t13.5 -125q0 -137 -67 -235t-205 -133q60 -123 90 -187l244 -559h-149l-210 509q-21 50 -94 216
q-20 -3 -148 -3l-322 6v-728h-128zM687 828q199 0 278 69.5t79 214.5q0 130 -71.5 199.5t-243.5 69.5h-419v-550q235 -3 377 -3z" />
    <glyph glyph-name="uni0211" unicode="&#x211;" horiz-adv-x="715" 
d="M273 1218l-221 333h93l198 -333h-70zM497 1218l-224 333h102l184 -333h-62zM149 0q-2 965 -2 1096h102l8 -216q59 98 150 160t190 62q41 0 88 -7l-9 -103q-36 6 -76 6q-139 0 -233.5 -109.5t-94.5 -259.5v-629h-123z" />
    <glyph glyph-name="uni0212" unicode="&#x212;" horiz-adv-x="1333" 
d="M475 1616q0 74 34.5 128t85.5 79t111 25q61 0 113 -25t86.5 -79t34.5 -128h-94q0 68 -41.5 106.5t-98 38.5t-98 -38.5t-41.5 -106.5h-92zM182 0v1488h424q81 0 140.5 -3t121.5 -13t105.5 -26.5t83 -44.5t63.5 -67.5t37.5 -94.5t13.5 -125q0 -137 -67 -235t-205 -133
q60 -123 90 -187l244 -559h-149l-210 509q-21 50 -94 216q-20 -3 -148 -3l-322 6v-728h-128zM687 828q199 0 278 69.5t79 214.5q0 130 -71.5 199.5t-243.5 69.5h-419v-550q235 -3 377 -3z" />
    <glyph glyph-name="uni0213" unicode="&#x213;" horiz-adv-x="715" 
d="M183 1218q0 74 34.5 128t85.5 79t111 25q61 0 113 -25t86.5 -79t34.5 -128h-94q0 68 -41.5 106.5t-98 38.5t-98 -38.5t-41.5 -106.5h-92zM149 0q-2 965 -2 1096h102l8 -216q59 98 150 160t190 62q41 0 88 -7l-9 -103q-36 6 -76 6q-139 0 -233.5 -109.5t-94.5 -259.5v-629
h-123z" />
    <glyph glyph-name="uni0214" unicode="&#x214;" horiz-adv-x="1408" 
d="M561 1616l-221 333h93l198 -333h-70zM785 1616l-224 333h102l184 -333h-62zM699 -23q-144 0 -250 39t-169 112t-93 169.5t-30 219.5v971h128v-991q0 -213 105 -315.5t317 -102.5q416 0 416 419v990h128v-973q0 -98 -19.5 -179t-61.5 -148t-106 -113.5t-156.5 -72
t-208.5 -25.5z" />
    <glyph glyph-name="uni0215" unicode="&#x215;" 
d="M405 1218l-221 333h93l198 -333h-70zM629 1218l-224 333h102l184 -333h-62zM555 -27q-86 0 -159.5 19.5t-136.5 61t-99.5 117.5t-36.5 179v746h124v-749q0 -78 24 -132t69 -81.5t96 -38.5t119 -11q67 0 118 11.5t95 39.5t67.5 81.5t23.5 130.5v749h124v-746
q0 -84 -24 -150t-64 -108t-96.5 -69.5t-116 -38.5t-127.5 -11z" />
    <glyph glyph-name="uni0216" unicode="&#x216;" horiz-adv-x="1408" 
d="M471 1616q0 74 34.5 128t85.5 79t111 25q61 0 113 -25t86.5 -79t34.5 -128h-94q0 68 -41.5 106.5t-98 38.5t-98 -38.5t-41.5 -106.5h-92zM699 -23q-144 0 -250 39t-169 112t-93 169.5t-30 219.5v971h128v-991q0 -213 105 -315.5t317 -102.5q416 0 416 419v990h128v-973
q0 -98 -19.5 -179t-61.5 -148t-106 -113.5t-156.5 -72t-208.5 -25.5z" />
    <glyph glyph-name="uni0217" unicode="&#x217;" 
d="M315 1218q0 74 34.5 128t85.5 79t111 25q61 0 113 -25t86.5 -79t34.5 -128h-94q0 68 -41.5 106.5t-98 38.5t-98 -38.5t-41.5 -106.5h-92zM555 -27q-86 0 -159.5 19.5t-136.5 61t-99.5 117.5t-36.5 179v746h124v-749q0 -78 24 -132t69 -81.5t96 -38.5t119 -11
q67 0 118 11.5t95 39.5t67.5 81.5t23.5 130.5v749h124v-746q0 -84 -24 -150t-64 -108t-96.5 -69.5t-116 -38.5t-127.5 -11z" />
    <glyph glyph-name="uni0218" unicode="&#x218;" horiz-adv-x="1247" 
d="M508 -628h77l163 503h-141zM658 -23q-189 0 -334 40t-225 88l48 91q211 -114 522 -114q171 0 263.5 89t92.5 251q0 60 -11 101t-41 78.5t-87.5 63t-146.5 43.5l-240 48q-201 40 -301.5 126t-100.5 245q0 103 40 178.5t115.5 120.5t175 66.5t226.5 21.5q126 0 246.5 -31
t197.5 -70l-33 -98q-59 33 -174.5 62.5t-239.5 29.5q-211 0 -317 -70.5t-106 -222.5q0 -95 67 -152.5t198 -85.5l268 -55q100 -21 169.5 -50t123 -75t79.5 -114.5t26 -162.5q0 -210 -137.5 -326t-363.5 -116z" />
    <glyph glyph-name="uni0219" unicode="&#x219;" horiz-adv-x="944" 
d="M360 -630h77l163 503h-141zM467 -25q-106 0 -199 26t-147 62l18 104q165 -86 316 -86q271 0 281 201q0 84 -54.5 132t-218.5 100q-86 30 -95 33q-257 78 -259 277q0 115 101.5 203.5t274.5 88.5t325 -68l-42 -92q-154 58 -286 58q-116 0 -182.5 -52t-66.5 -140
q0 -74 43.5 -113.5t172.5 -75.5q14 -4 51.5 -18t41.5 -15q173 -53 241.5 -125.5t68.5 -197.5q-3 -144 -107.5 -223t-277.5 -79z" />
    <glyph glyph-name="uni021A" unicode="&#x21a;" horiz-adv-x="1082" 
d="M421 -605h77l163 503h-141zM476 0v1378h-468v110h1066v-110h-468v-1378h-130z" />
    <glyph glyph-name="uni021B" unicode="&#x21b;" horiz-adv-x="676" 
d="M219 -628h77l163 503h-141zM456 -23q-138 0 -202 62.5t-64 203.5v762h-155l9 75l148 14l33 251l87 6v-255h320v-91h-320v-736q0 -116 38 -155.5t134 -39.5q62 0 154 23l5 -96q-121 -24 -187 -24z" />
    <glyph glyph-name="uni0237" unicode="&#x237;" horiz-adv-x="406" 
d="M-63 -594l-29 121h59q32 0 56.5 3t44 7.5t33.5 15t23.5 18.5t16 27t9.5 31t4.5 39t2 43.5t0.5 51.5v1341h137v-1400q0 -93 -12 -147.5t-46.5 -90t-90 -48t-150.5 -12.5h-58z" />
    <glyph glyph-name="circumflex" unicode="&#x2c6;" horiz-adv-x="812" 
d="M136 1310l168 359h192l171 -359h-91l-175 295l-176 -295h-89z" />
    <glyph glyph-name="caron" unicode="&#x2c7;" horiz-adv-x="812" 
d="M307 1310l-171 359h91l175 -295l176 295h89l-168 -359h-192z" />
    <glyph glyph-name="breve" unicode="&#x2d8;" horiz-adv-x="774" 
d="M389 1356q-97 0 -163.5 66.5t-66.5 185.5h92q0 -87 35.5 -130.5t102.5 -43.5q66 0 103.5 44t37.5 130h94q0 -118 -68 -185t-167 -67z" />
    <glyph glyph-name="dotaccent" unicode="&#x2d9;" horiz-adv-x="352" 
d="M106 1331v185h153v-185h-153z" />
    <glyph glyph-name="ring" unicode="&#x2da;" horiz-adv-x="621" 
d="M314 1388q38 0 65.5 28t27.5 79q-1 50 -28.5 78.5t-65.5 28.5t-65.5 -28.5t-27.5 -79.5q0 -50 28 -78t66 -28zM315 1317q-75 0 -130.5 47.5t-55.5 130.5q0 84 54 131t129 47q74 0 128.5 -47.5t54.5 -130.5q0 -85 -53.5 -131.5t-126.5 -46.5z" />
    <glyph glyph-name="ogonek" unicode="&#x2db;" horiz-adv-x="596" 
d="M307 -437q-82 0 -134.5 48.5t-52.5 130.5q0 127 191 244h117q-104 -79 -155 -131.5t-51 -100.5q0 -42 29.5 -66.5t61.5 -24.5q31 0 43.5 1t35 7.5t55.5 21.5v-101q-74 -29 -140 -29z" />
    <glyph glyph-name="tilde" unicode="&#x2dc;" horiz-adv-x="930" 
d="M150 1336q3 107 44.5 146.5t114.5 39.5q46 0 143 -48t121 -48q16 0 27 9t17 27t8 29t4 31h91q-4 -101 -39.5 -143.5t-101.5 -42.5q-44 0 -149.5 51.5t-128.5 51.5q-53 0 -61 -103h-90z" />
    <glyph glyph-name="hungarumlaut" unicode="&#x2dd;" horiz-adv-x="741" 
d="M118 1328l176 318h120l-213 -318h-83zM315 1328l182 318h115l-209 -318h-88z" />
    <glyph glyph-name="uni0307" unicode="&#x307;" horiz-adv-x="364" 
d="M115 1357v168h167v-168h-167z" />
    <glyph glyph-name="uni030F" unicode="&#x30f;" horiz-adv-x="797" 
d="M379 1300l-221 333h93l198 -333h-70zM603 1300l-224 333h102l184 -333h-62z" />
    <glyph glyph-name="uni0311" unicode="&#x311;" horiz-adv-x="792" 
d="M167 1345q0 74 34.5 128t85.5 79t111 25q61 0 113 -25t86.5 -79t34.5 -128h-94q0 68 -41.5 106.5t-98 38.5t-98 -38.5t-41.5 -106.5h-92z" />
    <glyph glyph-name="uni0326" unicode="&#x326;" horiz-adv-x="552" 
d="M170 -671l87 486h139l-132 -486h-94z" />
    <glyph glyph-name="quoteleft" unicode="&#x2018;" horiz-adv-x="541" 
d="M104 1161l240 458h76l-162 -458h-154z" />
    <glyph glyph-name="quoteright" unicode="&#x2019;" horiz-adv-x="532" 
d="M166 1161l86 458h130l-123 -458h-93z" />
    <glyph glyph-name="quotesinglbase" unicode="&#x201a;" horiz-adv-x="480" 
d="M130 -240l85 458h134l-122 -458h-97z" />
    <glyph glyph-name="quotedblleft" unicode="&#x201c;" horiz-adv-x="854" 
d="M104 1161l237 458h79l-161 -458h-155zM419 1161l234 458h79l-159 -458h-154z" />
    <glyph glyph-name="quotedblright" unicode="&#x201d;" horiz-adv-x="723" 
d="M113 1161l87 458h135l-129 -458h-93zM394 1161l87 458h138l-127 -458h-98z" />
    <glyph glyph-name="quotedblbase" unicode="&#x201e;" horiz-adv-x="734" 
d="M111 -240l81 458h129l-117 -458h-93zM409 -240l78 458h134l-123 -458h-89z" />
    <glyph glyph-name="dagger" unicode="&#x2020;" horiz-adv-x="829" 
d="M362 125v973h-289v57h289v456h99v-456h295v-57h-290v-973h-104z" />
    <glyph glyph-name="daggerdbl" unicode="&#x2021;" horiz-adv-x="929" 
d="M418 218v316h-320v120h320v471h-314v124h314v366h98v-366h321v-124h-321v-471h312v-120h-312v-316h-98z" />
    <glyph glyph-name="bullet" unicode="&#x2022;" horiz-adv-x="808" 
d="M403 535q-63 0 -114 21t-82 56t-47 78.5t-16 91.5q0 49 17 94t48.5 82t81.5 59t112 22q63 0 113.5 -21.5t81.5 -57.5t47.5 -80t16.5 -92.5t-16.5 -93t-47.5 -80.5t-82 -57.5t-113 -21.5z" />
    <glyph glyph-name="guilsinglleft" unicode="&#x2039;" horiz-adv-x="636" 
d="M372 187l-222 406l227 400h111l-218 -400l213 -406h-111z" />
    <glyph glyph-name="guilsinglright" unicode="&#x203a;" horiz-adv-x="632" 
d="M155 187l218 408l-212 398h111l221 -398l-226 -408h-112z" />
    <glyph glyph-name="fraction" unicode="&#x2044;" horiz-adv-x="1115" 
d="M69 0l865 1597h99l-864 -1597h-100z" />
    <glyph glyph-name="uni2074" unicode="&#x2074;" horiz-adv-x="705" 
d="M455 684v224h-321v84q15 27 151 284l159 297q-1 -1 -3 -6h100v-573h90l8 -86h-100v-224h-84zM218 994h236q0 397 2 439z" />
    <glyph glyph-name="trademark" unicode="&#x2122;" horiz-adv-x="1808" 
d="M871 571v942h130l291 -755l305 755h126v-942h-93v867l-306 -761h-78l-288 765v-871h-87zM361 571v870h-262v72h625v-72h-273v-870h-90z" />
    <glyph glyph-name="minus" unicode="&#x2212;" horiz-adv-x="1212" 
d="M123 578v123h975v-123h-975z" />
    <glyph glyph-name="approxequal" unicode="&#x2248;" horiz-adv-x="1315" 
d="M140 367q19 154 94 236.5t195 82.5q44 0 93 -17t79.5 -34t82.5 -50q11 -7 43.5 -28.5t47.5 -30t39.5 -21.5t43.5 -18.5t36 -5.5q127 0 162 203l105 27q-20 -163 -77.5 -240t-186.5 -77q-109 0 -281 116q-118 84 -185 84q-75 0 -118.5 -49t-66.5 -147zM137 758
q18 152 94.5 235t196.5 83q61 0 118 -26.5t141 -83.5q75 -52 120 -73.5t85 -21.5q127 0 160 202l106 30q-19 -161 -78.5 -238t-186.5 -77q-115 0 -280 116q-117 83 -186 83q-75 0 -118.5 -47.5t-62.5 -143.5z" />
    <glyph glyph-name="notequal" unicode="&#x2260;" horiz-adv-x="1135" 
d="M337 50l-90 18l117 310h-258l-6 101h320l166 344h-480l-8 107h538l143 313l92 -12l-116 -300h277l7 -108h-333l-171 -344h499l5 -101h-555z" />
    <glyph glyph-name="lessequal" unicode="&#x2264;" horiz-adv-x="1164" 
d="M1022 237l-898 499v73l898 529v-124l-783 -434l783 -418v-125zM84 12v119l972 -1v-118h-972z" />
    <glyph glyph-name="greaterequal" unicode="&#x2265;" horiz-adv-x="1164" 
d="M144 240v125l791 409l-786 443v124l902 -532v-68zM109 12v118l964 1v-119h-964z" />
    <glyph glyph-name="lozenge" unicode="&#x25ca;" horiz-adv-x="1103" 
d="M496 -49l-414 840l421 844h102l414 -841l-423 -843h-100zM544 77q98 186 372 714q-14 28 -151.5 298t-207.5 413q-75 -137 -214 -404.5t-159 -304.5q40 -79 164.5 -330.5t195.5 -385.5z" />
    <glyph glyph-name="glyph381" horiz-adv-x="1082" 
d="M476 0v1378h-468v110h1066v-110h-468v-1378h-130z" />
    <glyph glyph-name="glyph382" horiz-adv-x="554" 
d="M164 -648h77l163 503h-141z" />
    <glyph glyph-name="glyph383" horiz-adv-x="468" 
d="M150 561h168v198h-168v-198z" />
    <glyph glyph-name="glyph384" horiz-adv-x="676" 
d="M456 -23q-138 0 -202 62.5t-64 203.5v762h-155l9 75l148 14l33 251l87 6v-255h320v-91h-320v-736q0 -116 38 -155.5t134 -39.5q62 0 154 23l5 -96q-121 -24 -187 -24z" />
    </font>
</defs>
</svg>
